%TF.GenerationSoftware,KiCad,Pcbnew,(7.0.0)*%
%TF.CreationDate,2023-04-12T15:17:59+10:00*%
%TF.ProjectId,AS-NES-Mapper472,41532d4e-4553-42d4-9d61-707065723437,rev?*%
%TF.SameCoordinates,Original*%
%TF.FileFunction,Soldermask,Top*%
%TF.FilePolarity,Negative*%
%FSLAX46Y46*%
G04 Gerber Fmt 4.6, Leading zero omitted, Abs format (unit mm)*
G04 Created by KiCad (PCBNEW (7.0.0)) date 2023-04-12 15:17:59*
%MOMM*%
%LPD*%
G01*
G04 APERTURE LIST*
G04 Aperture macros list*
%AMRoundRect*
0 Rectangle with rounded corners*
0 $1 Rounding radius*
0 $2 $3 $4 $5 $6 $7 $8 $9 X,Y pos of 4 corners*
0 Add a 4 corners polygon primitive as box body*
4,1,4,$2,$3,$4,$5,$6,$7,$8,$9,$2,$3,0*
0 Add four circle primitives for the rounded corners*
1,1,$1+$1,$2,$3*
1,1,$1+$1,$4,$5*
1,1,$1+$1,$6,$7*
1,1,$1+$1,$8,$9*
0 Add four rect primitives between the rounded corners*
20,1,$1+$1,$2,$3,$4,$5,0*
20,1,$1+$1,$4,$5,$6,$7,0*
20,1,$1+$1,$6,$7,$8,$9,0*
20,1,$1+$1,$8,$9,$2,$3,0*%
G04 Aperture macros list end*
%ADD10C,1.600000*%
%ADD11R,1.600000X1.600000*%
%ADD12O,1.600000X1.600000*%
%ADD13R,3.000000X15.000000*%
%ADD14R,2.000000X15.000000*%
%ADD15R,1.500000X1.000000*%
%ADD16RoundRect,0.150000X-0.150000X0.512500X-0.150000X-0.512500X0.150000X-0.512500X0.150000X0.512500X0*%
%ADD17RoundRect,0.150000X0.150000X-0.512500X0.150000X0.512500X-0.150000X0.512500X-0.150000X-0.512500X0*%
G04 APERTURE END LIST*
D10*
%TO.C,C2*%
X142850000Y-127770000D03*
X140350000Y-127770000D03*
%TD*%
D11*
%TO.C,U2*%
X100006699Y-109889999D03*
D12*
X97466699Y-109889999D03*
X94926699Y-109889999D03*
X92386699Y-109889999D03*
X89846699Y-109889999D03*
X87306699Y-109889999D03*
X84766699Y-109889999D03*
X82226699Y-109889999D03*
X79686699Y-109889999D03*
X77146699Y-109889999D03*
X74606699Y-109889999D03*
X72066699Y-109889999D03*
X69526699Y-109889999D03*
X66986699Y-109889999D03*
X64446699Y-109889999D03*
X61906699Y-109889999D03*
X61906699Y-125129999D03*
X64446699Y-125129999D03*
X66986699Y-125129999D03*
X69526699Y-125129999D03*
X72066699Y-125129999D03*
X74606699Y-125129999D03*
X77146699Y-125129999D03*
X79686699Y-125129999D03*
X82226699Y-125129999D03*
X84766699Y-125129999D03*
X87306699Y-125129999D03*
X89846699Y-125129999D03*
X92386699Y-125129999D03*
X94926699Y-125129999D03*
X97466699Y-125129999D03*
X100006699Y-125129999D03*
%TD*%
D13*
%TO.C,J1*%
X146786599Y-139903599D03*
D14*
X143786599Y-139878599D03*
X141286599Y-139878599D03*
X138786599Y-139878599D03*
X136286599Y-139878599D03*
X133786599Y-139878599D03*
X131286599Y-139878599D03*
X128786599Y-139878599D03*
X126286599Y-139878599D03*
X123786599Y-139903599D03*
X121286599Y-139853599D03*
X118786599Y-139903599D03*
X116286599Y-139878599D03*
X113786599Y-139903599D03*
X111286599Y-139903599D03*
X108786599Y-139928599D03*
X106286599Y-139903599D03*
X103786599Y-139928599D03*
X101286599Y-139928599D03*
X98786599Y-139878599D03*
X96286599Y-139928599D03*
X93786599Y-139928599D03*
X91286599Y-139903599D03*
X88786599Y-139903599D03*
X86286599Y-139928599D03*
X83786599Y-139928599D03*
X81286599Y-139928599D03*
X78786599Y-139953599D03*
X76286599Y-139953599D03*
X73786599Y-139928599D03*
X71286599Y-139903599D03*
X68786599Y-139903599D03*
X66286599Y-139903599D03*
X63786599Y-139903599D03*
X61286599Y-139928599D03*
D13*
X58286599Y-139928599D03*
%TD*%
D15*
%TO.C,JP2*%
X80899999Y-103889999D03*
X80899999Y-105189999D03*
%TD*%
D16*
%TO.C,U13*%
X116720000Y-89052500D03*
X115770000Y-89052500D03*
X114820000Y-89052500D03*
X114820000Y-91327500D03*
X116720000Y-91327500D03*
%TD*%
D11*
%TO.C,U5*%
X69969999Y-90959999D03*
D12*
X69969999Y-88419999D03*
X69969999Y-85879999D03*
X69969999Y-83339999D03*
X69969999Y-80799999D03*
X69969999Y-78259999D03*
X69969999Y-75719999D03*
X69969999Y-73179999D03*
X62349999Y-73179999D03*
X62349999Y-75719999D03*
X62349999Y-78259999D03*
X62349999Y-80799999D03*
X62349999Y-83339999D03*
X62349999Y-85879999D03*
X62349999Y-88419999D03*
X62349999Y-90959999D03*
%TD*%
D11*
%TO.C,C1*%
X103405112Y-88029999D03*
D10*
X100905113Y-88030000D03*
%TD*%
D11*
%TO.C,U1*%
X143249999Y-109889999D03*
D12*
X140709999Y-109889999D03*
X138169999Y-109889999D03*
X135629999Y-109889999D03*
X133089999Y-109889999D03*
X130549999Y-109889999D03*
X128009999Y-109889999D03*
X125469999Y-109889999D03*
X122929999Y-109889999D03*
X120389999Y-109889999D03*
X117849999Y-109889999D03*
X115309999Y-109889999D03*
X112769999Y-109889999D03*
X110229999Y-109889999D03*
X107689999Y-109889999D03*
X105149999Y-109889999D03*
X105149999Y-125129999D03*
X107689999Y-125129999D03*
X110229999Y-125129999D03*
X112769999Y-125129999D03*
X115309999Y-125129999D03*
X117849999Y-125129999D03*
X120389999Y-125129999D03*
X122929999Y-125129999D03*
X125469999Y-125129999D03*
X128009999Y-125129999D03*
X130549999Y-125129999D03*
X133089999Y-125129999D03*
X135629999Y-125129999D03*
X138169999Y-125129999D03*
X140709999Y-125129999D03*
X143249999Y-125129999D03*
%TD*%
D11*
%TO.C,U4*%
X146214999Y-78209999D03*
D12*
X143674999Y-78209999D03*
X141134999Y-78209999D03*
X138594999Y-78209999D03*
X136054999Y-78209999D03*
X133514999Y-78209999D03*
X130974999Y-78209999D03*
X130974999Y-85829999D03*
X133514999Y-85829999D03*
X136054999Y-85829999D03*
X138594999Y-85829999D03*
X141134999Y-85829999D03*
X143674999Y-85829999D03*
X146214999Y-85829999D03*
%TD*%
D17*
%TO.C,U12*%
X139240000Y-91327500D03*
X140190000Y-91327500D03*
X141140000Y-91327500D03*
X141140000Y-89052500D03*
X139240000Y-89052500D03*
%TD*%
D10*
%TO.C,C3*%
X97440000Y-127720000D03*
X94940000Y-127720000D03*
%TD*%
D16*
%TO.C,U15*%
X120210000Y-89052500D03*
X119260000Y-89052500D03*
X118310000Y-89052500D03*
X118310000Y-91327500D03*
X120210000Y-91327500D03*
%TD*%
D11*
%TO.C,U10*%
X146459999Y-52884999D03*
D12*
X143919999Y-52884999D03*
X141379999Y-52884999D03*
X138839999Y-52884999D03*
X136299999Y-52884999D03*
X133759999Y-52884999D03*
X131219999Y-52884999D03*
X128679999Y-52884999D03*
X126139999Y-52884999D03*
X123599999Y-52884999D03*
X121059999Y-52884999D03*
X118519999Y-52884999D03*
X115979999Y-52884999D03*
X113439999Y-52884999D03*
X113439999Y-68124999D03*
X115979999Y-68124999D03*
X118519999Y-68124999D03*
X121059999Y-68124999D03*
X123599999Y-68124999D03*
X126139999Y-68124999D03*
X128679999Y-68124999D03*
X131219999Y-68124999D03*
X133759999Y-68124999D03*
X136299999Y-68124999D03*
X138839999Y-68124999D03*
X141379999Y-68124999D03*
X143919999Y-68124999D03*
X146459999Y-68124999D03*
%TD*%
D16*
%TO.C,U14*%
X113220000Y-89052500D03*
X112270000Y-89052500D03*
X111320000Y-89052500D03*
X111320000Y-91327500D03*
X113220000Y-91327500D03*
%TD*%
D11*
%TO.C,U6*%
X73259999Y-75719999D03*
D12*
X73259999Y-78259999D03*
X73259999Y-80799999D03*
X73259999Y-83339999D03*
X80879999Y-83339999D03*
X80879999Y-80799999D03*
X80879999Y-78259999D03*
X80879999Y-75719999D03*
%TD*%
D15*
%TO.C,JP1*%
X75849999Y-103889999D03*
X75849999Y-105189999D03*
%TD*%
D11*
%TO.C,U9*%
X93039999Y-52754999D03*
D12*
X90499999Y-52754999D03*
X87959999Y-52754999D03*
X85419999Y-52754999D03*
X82879999Y-52754999D03*
X80339999Y-52754999D03*
X77799999Y-52754999D03*
X75259999Y-52754999D03*
X72719999Y-52754999D03*
X70179999Y-52754999D03*
X67639999Y-52754999D03*
X65099999Y-52754999D03*
X62559999Y-52754999D03*
X60019999Y-52754999D03*
X60019999Y-67994999D03*
X62559999Y-67994999D03*
X65099999Y-67994999D03*
X67639999Y-67994999D03*
X70179999Y-67994999D03*
X72719999Y-67994999D03*
X75259999Y-67994999D03*
X77799999Y-67994999D03*
X80339999Y-67994999D03*
X82879999Y-67994999D03*
X85419999Y-67994999D03*
X87959999Y-67994999D03*
X90499999Y-67994999D03*
X93039999Y-67994999D03*
%TD*%
D11*
%TO.C,U11*%
X111474999Y-85779999D03*
D12*
X114014999Y-85779999D03*
X116554999Y-85779999D03*
X119094999Y-85779999D03*
X121634999Y-85779999D03*
X124174999Y-85779999D03*
X126714999Y-85779999D03*
X126714999Y-78159999D03*
X124174999Y-78159999D03*
X121634999Y-78159999D03*
X119094999Y-78159999D03*
X116554999Y-78159999D03*
X114014999Y-78159999D03*
X111474999Y-78159999D03*
%TD*%
M02*
