%TF.GenerationSoftware,KiCad,Pcbnew,(7.0.0)*%
%TF.CreationDate,2023-04-12T15:18:02+10:00*%
%TF.ProjectId,AS-NES-Mapper472,41532d4e-4553-42d4-9d61-707065723437,rev?*%
%TF.SameCoordinates,Original*%
%TF.FileFunction,Drillmap*%
%TF.FilePolarity,Positive*%
%FSLAX45Y45*%
G04 Gerber Fmt 4.5, Leading zero omitted, Abs format (unit mm)*
G04 Created by KiCad (PCBNEW (7.0.0)) date 2023-04-12 15:18:02*
%MOMM*%
%LPD*%
G01*
G04 APERTURE LIST*
%ADD10C,0.100000*%
%ADD11C,0.200000*%
G04 APERTURE END LIST*
D10*
X15253680Y-4764490D02*
X15253600Y-10320510D01*
X5753870Y-10664590D02*
X5753880Y-11014710D01*
X14758210Y-10320510D02*
X15253600Y-10320510D01*
X15108360Y-11270240D02*
X15253860Y-11269970D01*
X14758360Y-10670340D02*
X14758210Y-10320510D01*
X5253760Y-4764470D02*
X15253680Y-4764490D01*
X14556130Y-4941900D02*
G75*
G03*
X14556130Y-4941900I-160160J0D01*
G01*
X15253630Y-13317390D02*
X15253880Y-11964940D01*
X15253880Y-11964940D02*
X15253860Y-11269970D01*
X5253800Y-11614330D02*
X5403880Y-11614600D01*
X5403960Y-11014620D02*
X5753880Y-11014710D01*
X10965440Y-7094830D02*
G75*
G03*
X10965440Y-7094830I-190500J0D01*
G01*
X5403880Y-11614600D02*
X5403960Y-11014620D01*
X10611370Y-8014020D02*
G75*
G03*
X10611370Y-8014020I-357710J0D01*
G01*
X14758360Y-10670340D02*
X15108280Y-10670250D01*
X5253760Y-4764470D02*
X5253910Y-10664860D01*
X15108280Y-10670250D02*
X15108360Y-11270240D01*
X5253910Y-10664860D02*
X5753870Y-10664590D01*
X5253580Y-13317530D02*
X5253800Y-11614330D01*
D11*
X5496199Y-15066476D02*
X5496199Y-14866476D01*
X5496199Y-14866476D02*
X5543818Y-14866476D01*
X5543818Y-14866476D02*
X5572390Y-14876000D01*
X5572390Y-14876000D02*
X5591437Y-14895048D01*
X5591437Y-14895048D02*
X5600961Y-14914095D01*
X5600961Y-14914095D02*
X5610485Y-14952190D01*
X5610485Y-14952190D02*
X5610485Y-14980762D01*
X5610485Y-14980762D02*
X5600961Y-15018857D01*
X5600961Y-15018857D02*
X5591437Y-15037905D01*
X5591437Y-15037905D02*
X5572390Y-15056952D01*
X5572390Y-15056952D02*
X5543818Y-15066476D01*
X5543818Y-15066476D02*
X5496199Y-15066476D01*
X5696199Y-15066476D02*
X5696199Y-14933143D01*
X5696199Y-14971238D02*
X5705723Y-14952190D01*
X5705723Y-14952190D02*
X5715247Y-14942667D01*
X5715247Y-14942667D02*
X5734294Y-14933143D01*
X5734294Y-14933143D02*
X5753342Y-14933143D01*
X5820008Y-15066476D02*
X5820008Y-14933143D01*
X5820008Y-14866476D02*
X5810485Y-14876000D01*
X5810485Y-14876000D02*
X5820008Y-14885524D01*
X5820008Y-14885524D02*
X5829532Y-14876000D01*
X5829532Y-14876000D02*
X5820008Y-14866476D01*
X5820008Y-14866476D02*
X5820008Y-14885524D01*
X5943818Y-15066476D02*
X5924770Y-15056952D01*
X5924770Y-15056952D02*
X5915247Y-15037905D01*
X5915247Y-15037905D02*
X5915247Y-14866476D01*
X6048580Y-15066476D02*
X6029532Y-15056952D01*
X6029532Y-15056952D02*
X6020008Y-15037905D01*
X6020008Y-15037905D02*
X6020008Y-14866476D01*
X6244770Y-15066476D02*
X6244770Y-14866476D01*
X6244770Y-14866476D02*
X6311437Y-15009333D01*
X6311437Y-15009333D02*
X6378104Y-14866476D01*
X6378104Y-14866476D02*
X6378104Y-15066476D01*
X6559056Y-15066476D02*
X6559056Y-14961714D01*
X6559056Y-14961714D02*
X6549532Y-14942667D01*
X6549532Y-14942667D02*
X6530485Y-14933143D01*
X6530485Y-14933143D02*
X6492389Y-14933143D01*
X6492389Y-14933143D02*
X6473342Y-14942667D01*
X6559056Y-15056952D02*
X6540008Y-15066476D01*
X6540008Y-15066476D02*
X6492389Y-15066476D01*
X6492389Y-15066476D02*
X6473342Y-15056952D01*
X6473342Y-15056952D02*
X6463818Y-15037905D01*
X6463818Y-15037905D02*
X6463818Y-15018857D01*
X6463818Y-15018857D02*
X6473342Y-14999809D01*
X6473342Y-14999809D02*
X6492389Y-14990286D01*
X6492389Y-14990286D02*
X6540008Y-14990286D01*
X6540008Y-14990286D02*
X6559056Y-14980762D01*
X6654294Y-14933143D02*
X6654294Y-15133143D01*
X6654294Y-14942667D02*
X6673342Y-14933143D01*
X6673342Y-14933143D02*
X6711437Y-14933143D01*
X6711437Y-14933143D02*
X6730485Y-14942667D01*
X6730485Y-14942667D02*
X6740008Y-14952190D01*
X6740008Y-14952190D02*
X6749532Y-14971238D01*
X6749532Y-14971238D02*
X6749532Y-15028381D01*
X6749532Y-15028381D02*
X6740008Y-15047428D01*
X6740008Y-15047428D02*
X6730485Y-15056952D01*
X6730485Y-15056952D02*
X6711437Y-15066476D01*
X6711437Y-15066476D02*
X6673342Y-15066476D01*
X6673342Y-15066476D02*
X6654294Y-15056952D01*
X6835247Y-15047428D02*
X6844770Y-15056952D01*
X6844770Y-15056952D02*
X6835247Y-15066476D01*
X6835247Y-15066476D02*
X6825723Y-15056952D01*
X6825723Y-15056952D02*
X6835247Y-15047428D01*
X6835247Y-15047428D02*
X6835247Y-15066476D01*
X6835247Y-14942667D02*
X6844770Y-14952190D01*
X6844770Y-14952190D02*
X6835247Y-14961714D01*
X6835247Y-14961714D02*
X6825723Y-14952190D01*
X6825723Y-14952190D02*
X6835247Y-14942667D01*
X6835247Y-14942667D02*
X6835247Y-14961714D01*
M02*
