M48
; DRILL file {KiCad (7.0.0)} date Mon Jun 26 18:42:50 2023
; FORMAT={-:-/ absolute / inch / decimal}
; #@! TF.CreationDate,2023-06-26T18:42:50-07:00
; #@! TF.GenerationSoftware,Kicad,Pcbnew,(7.0.0)
; #@! TF.FileFunction,Plated,1,2,PTH
FMAT,2
INCH
; #@! TA.AperFunction,Plated,PTH,ViaDrill
T1C0.0118
; #@! TA.AperFunction,Plated,PTH,ViaDrill
T2C0.0197
; #@! TA.AperFunction,Plated,PTH,ComponentDrill
T3C0.0315
%
G90
G05
T1
X2.4076Y-5.1231
X2.4177Y-5.1748
X2.4441Y-5.1543
X2.4697Y-3.7591
X2.5156Y-5.1264
X2.5156Y-5.1823
X2.5598Y-3.7189
X2.5756Y-5.1555
X2.5846Y-3.6496
X2.5933Y-3.6953
X2.6272Y-5.1843
X2.7317Y-5.172
X2.7496Y-3.6846
X2.8181Y-5.189
X2.9067Y-5.1874
X3.0043Y-5.1795
X3.0169Y-3.7626
X3.0291Y-3.0846
X3.0618Y-4.8437
X3.0661Y-4.411
X3.1764Y-5.1819
X3.2016Y-5.1398
X3.2811Y-4.0894
X3.3016Y-5.1626
X3.398Y-5.1484
X3.487Y-3.5043
X3.4996Y-5.1756
X3.589Y-5.1713
X3.6378Y-4.4177
X3.6776Y-4.0929
X3.7866Y-5.1354
X4.2051Y-5.1094
X4.3028Y-5.1382
X4.311Y-3.5937
X4.328Y-3.6988
X4.3831Y-3.4642
X4.385Y-5.1598
X4.4217Y-3.5937
X4.4846Y-5.1843
X4.5209Y-3.4598
X4.5209Y-3.6579
X4.5634Y-3.5969
X4.6559Y-3.4618
X4.6598Y-3.7835
X4.6874Y-3.7142
X4.7035Y-3.5969
X4.7311Y-3.1835
X4.7354Y-5.1315
X4.7795Y-3.5173
X4.7937Y-3.6614
X4.8551Y-3.8437
X4.8614Y-5.0791
X4.8614Y-5.1878
X4.8626Y-3.489
X4.8909Y-3.6374
X4.9366Y-5.1083
X4.937Y-3.5606
X4.9614Y-5.0555
X4.9614Y-5.1839
X4.9949Y-3.461
X5.0378Y-5.1555
X5.0429Y-3.5409
X5.0457Y-3.5965
X5.061Y-5.0319
X5.0614Y-5.1831
X5.0902Y-3.5587
X5.1185Y-5.1732
X5.1417Y-3.6622
X5.1614Y-5.0082
X5.1614Y-5.1909
X5.1921Y-3.7748
X5.211Y-4.9846
X5.2394Y-3.5161
X5.2394Y-5.1909
X5.2398Y-5.087
X5.2563Y-3.461
X5.2827Y-3.4413
X5.3063Y-3.7028
X5.3303Y-3.4634
X5.3516Y-3.5575
X5.3654Y-5.1795
X5.4008Y-5.1866
X5.402Y-3.6319
X5.4201Y-3.8047
X5.4276Y-3.5161
X5.4398Y-5.087
X5.4398Y-5.1795
X5.4449Y-3.5961
X5.448Y-3.702
X5.4642Y-5.1575
X5.4646Y-5.0441
X5.4874Y-3.8528
X5.5043Y-3.4453
X5.5161Y-3.5043
X5.5185Y-3.6579
X5.5256Y-3.8059
X5.5389Y-5.1791
X5.5559Y-5.1343
X5.5563Y-3.6378
X5.5906Y-3.7409
X5.6535Y-5.115
X5.6791Y-3.6929
X5.6831Y-5.0906
X5.6854Y-5.1878
X5.7465Y-3.1843
X5.7565Y-3.4921
T2
X2.313Y-3.8638
X2.313Y-4.813
X3.0634Y-3.8638
X3.8343Y-4.813
T3
X2.363Y-2.077
X2.363Y-2.677
X2.4373Y-4.3264
X2.4373Y-4.9264
X2.4547Y-2.8811
X2.4547Y-2.9811
X2.4547Y-3.0811
X2.4547Y-3.1811
X2.4547Y-3.2811
X2.4547Y-3.3811
X2.4547Y-3.4811
X2.4547Y-3.5811
X2.463Y-2.077
X2.463Y-2.677
X2.5373Y-4.3264
X2.5373Y-4.9264
X2.563Y-2.077
X2.563Y-2.677
X2.6373Y-4.3264
X2.6373Y-4.9264
X2.663Y-2.077
X2.663Y-2.677
X2.7373Y-4.3264
X2.7373Y-4.9264
X2.7547Y-2.8811
X2.7547Y-2.9811
X2.7547Y-3.0811
X2.7547Y-3.1811
X2.7547Y-3.2811
X2.7547Y-3.3811
X2.7547Y-3.4811
X2.7547Y-3.5811
X2.763Y-2.077
X2.763Y-2.677
X2.8373Y-4.3264
X2.8373Y-4.9264
X2.863Y-2.077
X2.863Y-2.677
X2.8843Y-2.9811
X2.8843Y-3.0811
X2.8843Y-3.1811
X2.8843Y-3.2811
X2.9373Y-4.3264
X2.9373Y-4.9264
X2.963Y-2.077
X2.963Y-2.677
X3.0373Y-4.3264
X3.0373Y-4.9264
X3.063Y-2.077
X3.063Y-2.677
X3.1373Y-4.3264
X3.1373Y-4.9264
X3.163Y-2.077
X3.163Y-2.677
X3.1843Y-2.9811
X3.1843Y-3.0811
X3.1843Y-3.1811
X3.1843Y-3.2811
X3.2373Y-4.3264
X3.2373Y-4.9264
X3.263Y-2.077
X3.263Y-2.677
X3.3373Y-4.3264
X3.3373Y-4.9264
X3.363Y-2.077
X3.363Y-2.677
X3.4373Y-4.3264
X3.4373Y-4.9264
X3.463Y-2.077
X3.463Y-2.677
X3.5373Y-4.3264
X3.5373Y-4.9264
X3.563Y-2.077
X3.563Y-2.677
X3.6373Y-4.3264
X3.6373Y-4.9264
X3.663Y-2.077
X3.663Y-2.677
X3.7373Y-4.3264
X3.7373Y-4.9264
X3.7378Y-5.0283
X3.8362Y-5.0283
X3.8373Y-4.3264
X3.8373Y-4.9264
X3.9373Y-4.3264
X3.9373Y-4.9264
X3.9726Y-3.4657
X4.0711Y-3.4657
X4.1398Y-4.3264
X4.1398Y-4.9264
X4.2398Y-4.3264
X4.2398Y-4.9264
X4.3398Y-4.3264
X4.3398Y-4.9264
X4.3888Y-3.0772
X4.3888Y-3.3772
X4.4398Y-4.3264
X4.4398Y-4.9264
X4.4661Y-2.0821
X4.4661Y-2.6821
X4.4888Y-3.0772
X4.4888Y-3.3772
X4.5398Y-4.3264
X4.5398Y-4.9264
X4.5661Y-2.0821
X4.5661Y-2.6821
X4.5888Y-3.0772
X4.5888Y-3.3772
X4.6398Y-4.3264
X4.6398Y-4.9264
X4.6661Y-2.0821
X4.6661Y-2.6821
X4.6888Y-3.0772
X4.6888Y-3.3772
X4.7398Y-4.3264
X4.7398Y-4.9264
X4.7661Y-2.0821
X4.7661Y-2.6821
X4.7888Y-3.0772
X4.7888Y-3.3772
X4.8398Y-4.3264
X4.8398Y-4.9264
X4.8661Y-2.0821
X4.8661Y-2.6821
X4.8888Y-3.0772
X4.8888Y-3.3772
X4.9398Y-4.3264
X4.9398Y-4.9264
X4.9661Y-2.0821
X4.9661Y-2.6821
X4.9888Y-3.0772
X4.9888Y-3.3772
X5.0398Y-4.3264
X5.0398Y-4.9264
X5.0661Y-2.0821
X5.0661Y-2.6821
X5.1398Y-4.3264
X5.1398Y-4.9264
X5.1565Y-3.0791
X5.1565Y-3.3791
X5.1661Y-2.0821
X5.1661Y-2.6821
X5.2398Y-4.3264
X5.2398Y-4.9264
X5.2565Y-3.0791
X5.2565Y-3.3791
X5.2661Y-2.0821
X5.2661Y-2.6821
X5.3398Y-4.3264
X5.3398Y-4.9264
X5.3565Y-3.0791
X5.3565Y-3.3791
X5.3661Y-2.0821
X5.3661Y-2.6821
X5.4398Y-4.3264
X5.4398Y-4.9264
X5.4565Y-3.0791
X5.4565Y-3.3791
X5.4661Y-2.0821
X5.4661Y-2.6821
X5.5256Y-5.0303
X5.5398Y-4.3264
X5.5398Y-4.9264
X5.5565Y-3.0791
X5.5565Y-3.3791
X5.5661Y-2.0821
X5.5661Y-2.6821
X5.624Y-5.0303
X5.6398Y-4.3264
X5.6398Y-4.9264
X5.6565Y-3.0791
X5.6565Y-3.3791
X5.6661Y-2.0821
X5.6661Y-2.6821
X5.7565Y-3.0791
X5.7565Y-3.3791
X5.7661Y-2.0821
X5.7661Y-2.6821
T0
M30
