  0
SECTION
  2
HEADER
  9
$ANGBASE
  50
0.0
  9
$ANGDIR
  70
1
  9
$MEASUREMENT
  70
0
  0
ENDSEC
  0
SECTION
  2
TABLES
  0
TABLE
  2
LTYPE
  70
4
  0
LTYPE
  5
40F
  2
CONTINUOUS
  70
0
  3
Solid line
  72
65
  73
0
  40
0.0
  0
LTYPE
  5
410
  2
DASHDOT
 70
0
  3
Dash Dot ____ _ ____ _
 72
65
 73
4
 40
2.0
 49
1.25
 49
-0.25
 49
0.25
 49
-0.25
  0
LTYPE
  5
411
  2
DASHED
 70
0
  3
Dashed __ __ __ __ __
 72
65
 73
2
 40
0.75
 49
0.5
 49
-0.25
  0
LTYPE
  5
43B
  2
DOTTED
 70
0
  3
Dotted .  .  .  .
 72
65
 73
2
 40
0.2
 49
0.0
 49
-0.2
  0
ENDTAB
  0
TABLE
  2
STYLE
  70
4
  0
STYLE
  2
KICAD
  70
0
  40
0
  41
1
  42
1
  50
0
  71
0
  3
isocp.shx
  0
STYLE
  2
KICADB
  70
0
  40
0
  41
1
  42
1
  50
0
  71
0
  3
isocp.shx
  0
STYLE
  2
KICADI
  70
0
  40
0
  41
1
  42
1
  50
15
  71
0
  3
isocp.shx
  0
STYLE
  2
KICADBI
  70
0
  40
0
  41
1
  42
1
  50
15
  71
0
  3
isocp.shx
  0
ENDTAB
  0
TABLE
  2
LAYER
  70
1
  0
LAYER
  2
BLACK
  70
0
  62
7
  6
CONTINUOUS
  0
ENDTAB
  0
ENDSEC
  0
SECTION
  2
ENTITIES
0
LINE
8
BLACK
6
CONTINUOUS
10
6.00539
20
-1.87578
11
6.00535
21
-4.06319
0
LINE
8
BLACK
6
CONTINUOUS
10
2.2653
20
-4.19866
11
2.26531
21
-4.3365
0
LINE
8
BLACK
6
CONTINUOUS
10
5.81032
20
-4.06319
11
6.00535
21
-4.06319
0
LINE
8
BLACK
6
CONTINUOUS
10
5.94817
20
-4.4371
11
6.00546
21
-4.437
0
LINE
8
BLACK
6
CONTINUOUS
10
5.81038
20
-4.20092
11
5.81032
21
-4.06319
0
LINE
8
BLACK
6
CONTINUOUS
10
2.06841
20
-1.87578
11
6.00539
21
-1.87578
0
CIRCLE
8
BLACK
10
5.6677
20
-1.94563
40
0.0630551
0
LINE
8
BLACK
6
CONTINUOUS
10
6.00537
20
-5.24307
11
6.00546
21
-4.71061
0
LINE
8
BLACK
6
CONTINUOUS
10
6.00546
20
-4.71061
11
6.00546
21
-4.437
0
LINE
8
BLACK
6
CONTINUOUS
10
2.06843
20
-4.57257
11
2.12751
21
-4.57268
0
LINE
8
BLACK
6
CONTINUOUS
10
2.12754
20
-4.33646
11
2.26531
21
-4.3365
0
CIRCLE
8
BLACK
10
4.2421
20
-2.79324
40
0.075
0
LINE
8
BLACK
6
CONTINUOUS
10
2.12751
20
-4.57268
11
2.12754
21
-4.33646
0
CIRCLE
8
BLACK
10
4.03687
20
-3.15513
40
0.140831
0
LINE
8
BLACK
6
CONTINUOUS
10
5.81038
20
-4.20092
11
5.94814
21
-4.20089
0
LINE
8
BLACK
6
CONTINUOUS
10
2.06841
20
-1.87578
11
2.06847
21
-4.19876
0
LINE
8
BLACK
6
CONTINUOUS
10
5.94814
20
-4.20089
11
5.94817
21
-4.4371
0
LINE
8
BLACK
6
CONTINUOUS
10
2.06847
20
-4.19876
11
2.2653
21
-4.19866
0
LINE
8
BLACK
6
CONTINUOUS
10
2.06834
20
-5.24312
11
2.06843
21
-4.57257
0
LINE
8
BLACK
6
CONTINUOUS
10
2.16386
20
-5.93168
11
2.16386
21
-5.85294
0
LINE
8
BLACK
6
CONTINUOUS
10
2.16386
20
-5.85294
11
2.18261
21
-5.85294
0
LINE
8
BLACK
6
CONTINUOUS
10
2.18261
20
-5.85294
11
2.19385
21
-5.85669
0
LINE
8
BLACK
6
CONTINUOUS
10
2.19385
20
-5.85669
11
2.20135
21
-5.86419
0
LINE
8
BLACK
6
CONTINUOUS
10
2.20135
20
-5.86419
11
2.2051
21
-5.87169
0
LINE
8
BLACK
6
CONTINUOUS
10
2.2051
20
-5.87169
11
2.20885
21
-5.88669
0
LINE
8
BLACK
6
CONTINUOUS
10
2.20885
20
-5.88669
11
2.20885
21
-5.89794
0
LINE
8
BLACK
6
CONTINUOUS
10
2.20885
20
-5.89794
11
2.2051
21
-5.91294
0
LINE
8
BLACK
6
CONTINUOUS
10
2.2051
20
-5.91294
11
2.20135
21
-5.92043
0
LINE
8
BLACK
6
CONTINUOUS
10
2.20135
20
-5.92043
11
2.19385
21
-5.92793
0
LINE
8
BLACK
6
CONTINUOUS
10
2.19385
20
-5.92793
11
2.18261
21
-5.93168
0
LINE
8
BLACK
6
CONTINUOUS
10
2.18261
20
-5.93168
11
2.16386
21
-5.93168
0
LINE
8
BLACK
6
CONTINUOUS
10
2.2426
20
-5.93168
11
2.2426
21
-5.87919
0
LINE
8
BLACK
6
CONTINUOUS
10
2.2426
20
-5.89419
11
2.24635
21
-5.88669
0
LINE
8
BLACK
6
CONTINUOUS
10
2.24635
20
-5.88669
11
2.2501
21
-5.88294
0
LINE
8
BLACK
6
CONTINUOUS
10
2.2501
20
-5.88294
11
2.2576
21
-5.87919
0
LINE
8
BLACK
6
CONTINUOUS
10
2.2576
20
-5.87919
11
2.2651
21
-5.87919
0
LINE
8
BLACK
6
CONTINUOUS
10
2.29134
20
-5.93168
11
2.29134
21
-5.87919
0
LINE
8
BLACK
6
CONTINUOUS
10
2.29134
20
-5.85294
11
2.28759
21
-5.85669
0
LINE
8
BLACK
6
CONTINUOUS
10
2.28759
20
-5.85669
11
2.29134
21
-5.86044
0
LINE
8
BLACK
6
CONTINUOUS
10
2.29134
20
-5.86044
11
2.29509
21
-5.85669
0
LINE
8
BLACK
6
CONTINUOUS
10
2.29509
20
-5.85669
11
2.29134
21
-5.85294
0
LINE
8
BLACK
6
CONTINUOUS
10
2.29134
20
-5.85294
11
2.29134
21
-5.86044
0
LINE
8
BLACK
6
CONTINUOUS
10
2.34009
20
-5.93168
11
2.33259
21
-5.92793
0
LINE
8
BLACK
6
CONTINUOUS
10
2.33259
20
-5.92793
11
2.32884
21
-5.92043
0
LINE
8
BLACK
6
CONTINUOUS
10
2.32884
20
-5.92043
11
2.32884
21
-5.85294
0
LINE
8
BLACK
6
CONTINUOUS
10
2.38133
20
-5.93168
11
2.37383
21
-5.92793
0
LINE
8
BLACK
6
CONTINUOUS
10
2.37383
20
-5.92793
11
2.37008
21
-5.92043
0
LINE
8
BLACK
6
CONTINUOUS
10
2.37008
20
-5.92043
11
2.37008
21
-5.85294
0
LINE
8
BLACK
6
CONTINUOUS
10
2.45857
20
-5.93168
11
2.45857
21
-5.85294
0
LINE
8
BLACK
6
CONTINUOUS
10
2.45857
20
-5.85294
11
2.48482
21
-5.90919
0
LINE
8
BLACK
6
CONTINUOUS
10
2.48482
20
-5.90919
11
2.51106
21
-5.85294
0
LINE
8
BLACK
6
CONTINUOUS
10
2.51106
20
-5.85294
11
2.51106
21
-5.93168
0
LINE
8
BLACK
6
CONTINUOUS
10
2.58231
20
-5.93168
11
2.58231
21
-5.89044
0
LINE
8
BLACK
6
CONTINUOUS
10
2.58231
20
-5.89044
11
2.57856
21
-5.88294
0
LINE
8
BLACK
6
CONTINUOUS
10
2.57856
20
-5.88294
11
2.57106
21
-5.87919
0
LINE
8
BLACK
6
CONTINUOUS
10
2.57106
20
-5.87919
11
2.55606
21
-5.87919
0
LINE
8
BLACK
6
CONTINUOUS
10
2.55606
20
-5.87919
11
2.54856
21
-5.88294
0
LINE
8
BLACK
6
CONTINUOUS
10
2.58231
20
-5.92793
11
2.57481
21
-5.93168
0
LINE
8
BLACK
6
CONTINUOUS
10
2.57481
20
-5.93168
11
2.55606
21
-5.93168
0
LINE
8
BLACK
6
CONTINUOUS
10
2.55606
20
-5.93168
11
2.54856
21
-5.92793
0
LINE
8
BLACK
6
CONTINUOUS
10
2.54856
20
-5.92793
11
2.54481
21
-5.92043
0
LINE
8
BLACK
6
CONTINUOUS
10
2.54481
20
-5.92043
11
2.54481
21
-5.91294
0
LINE
8
BLACK
6
CONTINUOUS
10
2.54481
20
-5.91294
11
2.54856
21
-5.90544
0
LINE
8
BLACK
6
CONTINUOUS
10
2.54856
20
-5.90544
11
2.55606
21
-5.90169
0
LINE
8
BLACK
6
CONTINUOUS
10
2.55606
20
-5.90169
11
2.57481
21
-5.90169
0
LINE
8
BLACK
6
CONTINUOUS
10
2.57481
20
-5.90169
11
2.58231
21
-5.89794
0
LINE
8
BLACK
6
CONTINUOUS
10
2.6198
20
-5.87919
11
2.6198
21
-5.95793
0
LINE
8
BLACK
6
CONTINUOUS
10
2.6198
20
-5.88294
11
2.6273
21
-5.87919
0
LINE
8
BLACK
6
CONTINUOUS
10
2.6273
20
-5.87919
11
2.6423
21
-5.87919
0
LINE
8
BLACK
6
CONTINUOUS
10
2.6423
20
-5.87919
11
2.6498
21
-5.88294
0
LINE
8
BLACK
6
CONTINUOUS
10
2.6498
20
-5.88294
11
2.65355
21
-5.88669
0
LINE
8
BLACK
6
CONTINUOUS
10
2.65355
20
-5.88669
11
2.6573
21
-5.89419
0
LINE
8
BLACK
6
CONTINUOUS
10
2.6573
20
-5.89419
11
2.6573
21
-5.91669
0
LINE
8
BLACK
6
CONTINUOUS
10
2.6573
20
-5.91669
11
2.65355
21
-5.92418
0
LINE
8
BLACK
6
CONTINUOUS
10
2.65355
20
-5.92418
11
2.6498
21
-5.92793
0
LINE
8
BLACK
6
CONTINUOUS
10
2.6498
20
-5.92793
11
2.6423
21
-5.93168
0
LINE
8
BLACK
6
CONTINUOUS
10
2.6423
20
-5.93168
11
2.6273
21
-5.93168
0
LINE
8
BLACK
6
CONTINUOUS
10
2.6273
20
-5.93168
11
2.6198
21
-5.92793
0
LINE
8
BLACK
6
CONTINUOUS
10
2.69104
20
-5.92418
11
2.69479
21
-5.92793
0
LINE
8
BLACK
6
CONTINUOUS
10
2.69479
20
-5.92793
11
2.69104
21
-5.93168
0
LINE
8
BLACK
6
CONTINUOUS
10
2.69104
20
-5.93168
11
2.68729
21
-5.92793
0
LINE
8
BLACK
6
CONTINUOUS
10
2.68729
20
-5.92793
11
2.69104
21
-5.92418
0
LINE
8
BLACK
6
CONTINUOUS
10
2.69104
20
-5.92418
11
2.69104
21
-5.93168
0
LINE
8
BLACK
6
CONTINUOUS
10
2.69104
20
-5.88294
11
2.69479
21
-5.88669
0
LINE
8
BLACK
6
CONTINUOUS
10
2.69479
20
-5.88669
11
2.69104
21
-5.89044
0
LINE
8
BLACK
6
CONTINUOUS
10
2.69104
20
-5.89044
11
2.68729
21
-5.88669
0
LINE
8
BLACK
6
CONTINUOUS
10
2.68729
20
-5.88669
11
2.69104
21
-5.88294
0
LINE
8
BLACK
6
CONTINUOUS
10
2.69104
20
-5.88294
11
2.69104
21
-5.89044
  0
ENDSEC
  0
EOF
