M48
; DRILL file {KiCad (7.0.0)} date Wed Apr 12 15:18:02 2023
; FORMAT={-:-/ absolute / metric / decimal}
; #@! TF.CreationDate,2023-04-12T15:18:02+10:00
; #@! TF.GenerationSoftware,Kicad,Pcbnew,(7.0.0)
; #@! TF.FileFunction,Plated,1,2,PTH
FMAT,2
METRIC
; #@! TA.AperFunction,Plated,PTH,ViaDrill
T1C0.300
; #@! TA.AperFunction,Plated,PTH,ViaDrill
T2C0.500
; #@! TA.AperFunction,Plated,PTH,ComponentDrill
T3C0.800
%
G90
G05
T1
X61.152Y-130.128
X61.41Y-131.44
X62.08Y-130.92
X62.73Y-95.48
X63.896Y-130.21
X63.896Y-131.63
X65.02Y-94.459
X65.42Y-130.95
X65.65Y-92.7
X65.87Y-93.86
X66.73Y-131.68
X69.386Y-131.37
X69.84Y-93.59
X71.58Y-131.8
X73.83Y-131.76
X76.31Y-131.56
X76.63Y-95.57
X76.94Y-78.35
X77.77Y-123.03
X77.88Y-112.04
X80.68Y-131.62
X81.32Y-130.55
X83.34Y-103.87
X83.86Y-131.13
X86.31Y-130.77
X88.57Y-89.01
X88.89Y-131.46
X91.16Y-131.35
X92.4Y-112.21
X93.41Y-103.96
X96.18Y-130.44
X106.81Y-129.78
X109.29Y-130.51
X109.5Y-91.28
X109.93Y-93.95
X111.33Y-87.99
X111.38Y-131.06
X112.31Y-91.28
X113.91Y-131.68
X114.83Y-87.88
X114.83Y-92.91
X115.91Y-91.36
X118.26Y-87.93
X118.36Y-96.1
X119.06Y-94.34
X119.47Y-91.36
X120.17Y-80.86
X120.28Y-130.34
X121.4Y-89.34
X121.76Y-93.0
X123.32Y-97.63
X123.48Y-129.008
X123.48Y-131.77
X123.51Y-88.62
X124.23Y-92.39
X125.39Y-129.75
X125.4Y-90.44
X126.02Y-128.409
X126.02Y-131.67
X126.87Y-87.91
X127.96Y-130.95
X128.09Y-89.94
X128.16Y-91.35
X128.55Y-127.809
X128.56Y-131.65
X129.29Y-90.39
X130.01Y-131.399
X130.6Y-93.02
X131.1Y-127.209
X131.1Y-131.85
X131.88Y-95.88
X132.36Y-126.61
X133.08Y-89.31
X133.08Y-131.85
X133.09Y-129.21
X133.51Y-87.909
X134.18Y-87.41
X134.78Y-94.05
X135.39Y-87.97
X135.93Y-90.36
X136.28Y-131.56
X137.18Y-131.74
X137.21Y-92.25
X137.67Y-96.64
X137.86Y-89.31
X138.17Y-129.21
X138.17Y-131.56
X138.3Y-91.34
X138.38Y-94.03
X138.79Y-131.0
X138.8Y-128.12
X139.38Y-97.86
X139.81Y-87.51
X140.11Y-89.01
X140.17Y-92.91
X140.35Y-96.67
X140.687Y-131.55
X141.12Y-130.41
X141.13Y-92.4
X142.0Y-95.02
X143.6Y-129.92
X144.25Y-93.8
X144.35Y-129.3
X144.41Y-131.77
X145.96Y-80.88
X146.215Y-88.7
T2
X58.75Y-98.14
X58.75Y-122.25
X77.81Y-98.14
X97.39Y-122.25
T3
X60.02Y-52.755
X60.02Y-67.995
X61.907Y-109.89
X61.907Y-125.13
X62.35Y-73.18
X62.35Y-75.72
X62.35Y-78.26
X62.35Y-80.8
X62.35Y-83.34
X62.35Y-85.88
X62.35Y-88.42
X62.35Y-90.96
X62.56Y-52.755
X62.56Y-67.995
X64.447Y-109.89
X64.447Y-125.13
X65.1Y-52.755
X65.1Y-67.995
X66.987Y-109.89
X66.987Y-125.13
X67.64Y-52.755
X67.64Y-67.995
X69.527Y-109.89
X69.527Y-125.13
X69.97Y-73.18
X69.97Y-75.72
X69.97Y-78.26
X69.97Y-80.8
X69.97Y-83.34
X69.97Y-85.88
X69.97Y-88.42
X69.97Y-90.96
X70.18Y-52.755
X70.18Y-67.995
X72.067Y-109.89
X72.067Y-125.13
X72.72Y-52.755
X72.72Y-67.995
X73.26Y-75.72
X73.26Y-78.26
X73.26Y-80.8
X73.26Y-83.34
X74.607Y-109.89
X74.607Y-125.13
X75.26Y-52.755
X75.26Y-67.995
X77.147Y-109.89
X77.147Y-125.13
X77.8Y-52.755
X77.8Y-67.995
X79.687Y-109.89
X79.687Y-125.13
X80.34Y-52.755
X80.34Y-67.995
X80.88Y-75.72
X80.88Y-78.26
X80.88Y-80.8
X80.88Y-83.34
X82.227Y-109.89
X82.227Y-125.13
X82.88Y-52.755
X82.88Y-67.995
X84.767Y-109.89
X84.767Y-125.13
X85.42Y-52.755
X85.42Y-67.995
X87.307Y-109.89
X87.307Y-125.13
X87.96Y-52.755
X87.96Y-67.995
X89.847Y-109.89
X89.847Y-125.13
X90.5Y-52.755
X90.5Y-67.995
X92.387Y-109.89
X92.387Y-125.13
X93.04Y-52.755
X93.04Y-67.995
X94.927Y-109.89
X94.927Y-125.13
X94.94Y-127.72
X97.44Y-127.72
X97.467Y-109.89
X97.467Y-125.13
X100.007Y-109.89
X100.007Y-125.13
X100.905Y-88.03
X103.405Y-88.03
X105.15Y-109.89
X105.15Y-125.13
X107.69Y-109.89
X107.69Y-125.13
X110.23Y-109.89
X110.23Y-125.13
X111.475Y-78.16
X111.475Y-85.78
X112.77Y-109.89
X112.77Y-125.13
X113.44Y-52.885
X113.44Y-68.125
X114.015Y-78.16
X114.015Y-85.78
X115.31Y-109.89
X115.31Y-125.13
X115.98Y-52.885
X115.98Y-68.125
X116.555Y-78.16
X116.555Y-85.78
X117.85Y-109.89
X117.85Y-125.13
X118.52Y-52.885
X118.52Y-68.125
X119.095Y-78.16
X119.095Y-85.78
X120.39Y-109.89
X120.39Y-125.13
X121.06Y-52.885
X121.06Y-68.125
X121.635Y-78.16
X121.635Y-85.78
X122.93Y-109.89
X122.93Y-125.13
X123.6Y-52.885
X123.6Y-68.125
X124.175Y-78.16
X124.175Y-85.78
X125.47Y-109.89
X125.47Y-125.13
X126.14Y-52.885
X126.14Y-68.125
X126.715Y-78.16
X126.715Y-85.78
X128.01Y-109.89
X128.01Y-125.13
X128.68Y-52.885
X128.68Y-68.125
X130.55Y-109.89
X130.55Y-125.13
X130.975Y-78.21
X130.975Y-85.83
X131.22Y-52.885
X131.22Y-68.125
X133.09Y-109.89
X133.09Y-125.13
X133.515Y-78.21
X133.515Y-85.83
X133.76Y-52.885
X133.76Y-68.125
X135.63Y-109.89
X135.63Y-125.13
X136.055Y-78.21
X136.055Y-85.83
X136.3Y-52.885
X136.3Y-68.125
X138.17Y-109.89
X138.17Y-125.13
X138.595Y-78.21
X138.595Y-85.83
X138.84Y-52.885
X138.84Y-68.125
X140.35Y-127.77
X140.71Y-109.89
X140.71Y-125.13
X141.135Y-78.21
X141.135Y-85.83
X141.38Y-52.885
X141.38Y-68.125
X142.85Y-127.77
X143.25Y-109.89
X143.25Y-125.13
X143.675Y-78.21
X143.675Y-85.83
X143.92Y-52.885
X143.92Y-68.125
X146.215Y-78.21
X146.215Y-85.83
X146.46Y-52.885
X146.46Y-68.125
T0
M30
