%TF.GenerationSoftware,KiCad,Pcbnew,(7.0.0)*%
%TF.CreationDate,2023-04-12T15:18:02+10:00*%
%TF.ProjectId,AS-NES-Mapper472,41532d4e-4553-42d4-9d61-707065723437,rev?*%
%TF.SameCoordinates,Original*%
%TF.FileFunction,Drillmap*%
%TF.FilePolarity,Positive*%
%FSLAX45Y45*%
G04 Gerber Fmt 4.5, Leading zero omitted, Abs format (unit mm)*
G04 Created by KiCad (PCBNEW (7.0.0)) date 2023-04-12 15:18:02*
%MOMM*%
%LPD*%
G01*
G04 APERTURE LIST*
%ADD10C,0.100000*%
%ADD11C,0.200000*%
%ADD12C,0.030000*%
%ADD13C,0.050000*%
%ADD14C,0.080000*%
G04 APERTURE END LIST*
D10*
X15253680Y-4764490D02*
X15253600Y-10320510D01*
X5753870Y-10664590D02*
X5753880Y-11014710D01*
X14758210Y-10320510D02*
X15253600Y-10320510D01*
X15108360Y-11270240D02*
X15253860Y-11269970D01*
X14758360Y-10670340D02*
X14758210Y-10320510D01*
X5253760Y-4764470D02*
X15253680Y-4764490D01*
X14556130Y-4941900D02*
G75*
G03*
X14556130Y-4941900I-160160J0D01*
G01*
X15253630Y-13317390D02*
X15253880Y-11964940D01*
X15253880Y-11964940D02*
X15253860Y-11269970D01*
X5253800Y-11614330D02*
X5403880Y-11614600D01*
X5403960Y-11014620D02*
X5753880Y-11014710D01*
X10965440Y-7094830D02*
G75*
G03*
X10965440Y-7094830I-190500J0D01*
G01*
X5403880Y-11614600D02*
X5403960Y-11014620D01*
X10611370Y-8014020D02*
G75*
G03*
X10611370Y-8014020I-357710J0D01*
G01*
X14758360Y-10670340D02*
X15108280Y-10670250D01*
X5253760Y-4764470D02*
X5253910Y-10664860D01*
X15108280Y-10670250D02*
X15108360Y-11270240D01*
X5253910Y-10664860D02*
X5753870Y-10664590D01*
X5253580Y-13317530D02*
X5253800Y-11614330D01*
D11*
D12*
X6100211Y-12997789D02*
X6130211Y-13027789D01*
X6130211Y-12997789D02*
X6100211Y-13027789D01*
X6126000Y-13129000D02*
X6156000Y-13159000D01*
X6156000Y-13129000D02*
X6126000Y-13159000D01*
X6193000Y-13077000D02*
X6223000Y-13107000D01*
X6223000Y-13077000D02*
X6193000Y-13107000D01*
X6258000Y-9533000D02*
X6288000Y-9563000D01*
X6288000Y-9533000D02*
X6258000Y-9563000D01*
X6374620Y-13006000D02*
X6404620Y-13036000D01*
X6404620Y-13006000D02*
X6374620Y-13036000D01*
X6374620Y-13148000D02*
X6404620Y-13178000D01*
X6404620Y-13148000D02*
X6374620Y-13178000D01*
X6487000Y-9430950D02*
X6517000Y-9460950D01*
X6517000Y-9430950D02*
X6487000Y-9460950D01*
X6527000Y-13080000D02*
X6557000Y-13110000D01*
X6557000Y-13080000D02*
X6527000Y-13110000D01*
X6550000Y-9255000D02*
X6580000Y-9285000D01*
X6580000Y-9255000D02*
X6550000Y-9285000D01*
X6572000Y-9371000D02*
X6602000Y-9401000D01*
X6602000Y-9371000D02*
X6572000Y-9401000D01*
X6658000Y-13153000D02*
X6688000Y-13183000D01*
X6688000Y-13153000D02*
X6658000Y-13183000D01*
X6923610Y-13122000D02*
X6953610Y-13152000D01*
X6953610Y-13122000D02*
X6923610Y-13152000D01*
X6969000Y-9344000D02*
X6999000Y-9374000D01*
X6999000Y-9344000D02*
X6969000Y-9374000D01*
X7143000Y-13165000D02*
X7173000Y-13195000D01*
X7173000Y-13165000D02*
X7143000Y-13195000D01*
X7368000Y-13161000D02*
X7398000Y-13191000D01*
X7398000Y-13161000D02*
X7368000Y-13191000D01*
X7616000Y-13141000D02*
X7646000Y-13171000D01*
X7646000Y-13141000D02*
X7616000Y-13171000D01*
X7648000Y-9542000D02*
X7678000Y-9572000D01*
X7678000Y-9542000D02*
X7648000Y-9572000D01*
X7679000Y-7820000D02*
X7709000Y-7850000D01*
X7709000Y-7820000D02*
X7679000Y-7850000D01*
X7762000Y-12288000D02*
X7792000Y-12318000D01*
X7792000Y-12288000D02*
X7762000Y-12318000D01*
X7773000Y-11189000D02*
X7803000Y-11219000D01*
X7803000Y-11189000D02*
X7773000Y-11219000D01*
X8053000Y-13147000D02*
X8083000Y-13177000D01*
X8083000Y-13147000D02*
X8053000Y-13177000D01*
X8117000Y-13040000D02*
X8147000Y-13070000D01*
X8147000Y-13040000D02*
X8117000Y-13070000D01*
X8319000Y-10372000D02*
X8349000Y-10402000D01*
X8349000Y-10372000D02*
X8319000Y-10402000D01*
X8371000Y-13098000D02*
X8401000Y-13128000D01*
X8401000Y-13098000D02*
X8371000Y-13128000D01*
X8616000Y-13062000D02*
X8646000Y-13092000D01*
X8646000Y-13062000D02*
X8616000Y-13092000D01*
X8842000Y-8886000D02*
X8872000Y-8916000D01*
X8872000Y-8886000D02*
X8842000Y-8916000D01*
X8874000Y-13131000D02*
X8904000Y-13161000D01*
X8904000Y-13131000D02*
X8874000Y-13161000D01*
X9101000Y-13120000D02*
X9131000Y-13150000D01*
X9131000Y-13120000D02*
X9101000Y-13150000D01*
X9225000Y-11206000D02*
X9255000Y-11236000D01*
X9255000Y-11206000D02*
X9225000Y-11236000D01*
X9326000Y-10381000D02*
X9356000Y-10411000D01*
X9356000Y-10381000D02*
X9326000Y-10411000D01*
X9603000Y-13029000D02*
X9633000Y-13059000D01*
X9633000Y-13029000D02*
X9603000Y-13059000D01*
X10666000Y-12963000D02*
X10696000Y-12993000D01*
X10696000Y-12963000D02*
X10666000Y-12993000D01*
X10914000Y-13036000D02*
X10944000Y-13066000D01*
X10944000Y-13036000D02*
X10914000Y-13066000D01*
X10935000Y-9113000D02*
X10965000Y-9143000D01*
X10965000Y-9113000D02*
X10935000Y-9143000D01*
X10978000Y-9380000D02*
X11008000Y-9410000D01*
X11008000Y-9380000D02*
X10978000Y-9410000D01*
X11118000Y-8784000D02*
X11148000Y-8814000D01*
X11148000Y-8784000D02*
X11118000Y-8814000D01*
X11123000Y-13091000D02*
X11153000Y-13121000D01*
X11153000Y-13091000D02*
X11123000Y-13121000D01*
X11216000Y-9113000D02*
X11246000Y-9143000D01*
X11246000Y-9113000D02*
X11216000Y-9143000D01*
X11376000Y-13153000D02*
X11406000Y-13183000D01*
X11406000Y-13153000D02*
X11376000Y-13183000D01*
X11468000Y-8773000D02*
X11498000Y-8803000D01*
X11498000Y-8773000D02*
X11468000Y-8803000D01*
X11468000Y-9276000D02*
X11498000Y-9306000D01*
X11498000Y-9276000D02*
X11468000Y-9306000D01*
X11576000Y-9121000D02*
X11606000Y-9151000D01*
X11606000Y-9121000D02*
X11576000Y-9151000D01*
X11811000Y-8778000D02*
X11841000Y-8808000D01*
X11841000Y-8778000D02*
X11811000Y-8808000D01*
X11821000Y-9595000D02*
X11851000Y-9625000D01*
X11851000Y-9595000D02*
X11821000Y-9625000D01*
X11891000Y-9419000D02*
X11921000Y-9449000D01*
X11921000Y-9419000D02*
X11891000Y-9449000D01*
X11932000Y-9121000D02*
X11962000Y-9151000D01*
X11962000Y-9121000D02*
X11932000Y-9151000D01*
X12002000Y-8071000D02*
X12032000Y-8101000D01*
X12032000Y-8071000D02*
X12002000Y-8101000D01*
X12013000Y-13019000D02*
X12043000Y-13049000D01*
X12043000Y-13019000D02*
X12013000Y-13049000D01*
X12125000Y-8919000D02*
X12155000Y-8949000D01*
X12155000Y-8919000D02*
X12125000Y-8949000D01*
X12161000Y-9285000D02*
X12191000Y-9315000D01*
X12191000Y-9285000D02*
X12161000Y-9315000D01*
X12317000Y-9748000D02*
X12347000Y-9778000D01*
X12347000Y-9748000D02*
X12317000Y-9778000D01*
X12333050Y-12885800D02*
X12363050Y-12915800D01*
X12363050Y-12885800D02*
X12333050Y-12915800D01*
X12333050Y-13162000D02*
X12363050Y-13192000D01*
X12363050Y-13162000D02*
X12333050Y-13192000D01*
X12336000Y-8847000D02*
X12366000Y-8877000D01*
X12366000Y-8847000D02*
X12336000Y-8877000D01*
X12408000Y-9224000D02*
X12438000Y-9254000D01*
X12438000Y-9224000D02*
X12408000Y-9254000D01*
X12524000Y-12960050D02*
X12554000Y-12990050D01*
X12554000Y-12960050D02*
X12524000Y-12990050D01*
X12525000Y-9029000D02*
X12555000Y-9059000D01*
X12555000Y-9029000D02*
X12525000Y-9059000D01*
X12587050Y-12825850D02*
X12617050Y-12855850D01*
X12617050Y-12825850D02*
X12587050Y-12855850D01*
X12587050Y-13152000D02*
X12617050Y-13182000D01*
X12617050Y-13152000D02*
X12587050Y-13182000D01*
X12672000Y-8776000D02*
X12702000Y-8806000D01*
X12702000Y-8776000D02*
X12672000Y-8806000D01*
X12781000Y-13080000D02*
X12811000Y-13110000D01*
X12811000Y-13080000D02*
X12781000Y-13110000D01*
X12794000Y-8979000D02*
X12824000Y-9009000D01*
X12824000Y-8979000D02*
X12794000Y-9009000D01*
X12801000Y-9120000D02*
X12831000Y-9150000D01*
X12831000Y-9120000D02*
X12801000Y-9150000D01*
X12840000Y-12765900D02*
X12870000Y-12795900D01*
X12870000Y-12765900D02*
X12840000Y-12795900D01*
X12841050Y-13150000D02*
X12871050Y-13180000D01*
X12871050Y-13150000D02*
X12841050Y-13180000D01*
X12914000Y-9024000D02*
X12944000Y-9054000D01*
X12944000Y-9024000D02*
X12914000Y-9054000D01*
X12986000Y-13124950D02*
X13016000Y-13154950D01*
X13016000Y-13124950D02*
X12986000Y-13154950D01*
X13045000Y-9287000D02*
X13075000Y-9317000D01*
X13075000Y-9287000D02*
X13045000Y-9317000D01*
X13095000Y-12705950D02*
X13125000Y-12735950D01*
X13125000Y-12705950D02*
X13095000Y-12735950D01*
X13095000Y-13169950D02*
X13125000Y-13199950D01*
X13125000Y-13169950D02*
X13095000Y-13199950D01*
X13173000Y-9573000D02*
X13203000Y-9603000D01*
X13203000Y-9573000D02*
X13173000Y-9603000D01*
X13221000Y-12646000D02*
X13251000Y-12676000D01*
X13251000Y-12646000D02*
X13221000Y-12676000D01*
X13293000Y-8916000D02*
X13323000Y-8946000D01*
X13323000Y-8916000D02*
X13293000Y-8946000D01*
X13293000Y-13169950D02*
X13323000Y-13199950D01*
X13323000Y-13169950D02*
X13293000Y-13199950D01*
X13294000Y-12906050D02*
X13324000Y-12936050D01*
X13324000Y-12906050D02*
X13294000Y-12936050D01*
X13336000Y-8775950D02*
X13366000Y-8805950D01*
X13366000Y-8775950D02*
X13336000Y-8805950D01*
X13403050Y-8726000D02*
X13433050Y-8756000D01*
X13433050Y-8726000D02*
X13403050Y-8756000D01*
X13463000Y-9390000D02*
X13493000Y-9420000D01*
X13493000Y-9390000D02*
X13463000Y-9420000D01*
X13524000Y-8782000D02*
X13554000Y-8812000D01*
X13554000Y-8782000D02*
X13524000Y-8812000D01*
X13578000Y-9021000D02*
X13608000Y-9051000D01*
X13608000Y-9021000D02*
X13578000Y-9051000D01*
X13613000Y-13141000D02*
X13643000Y-13171000D01*
X13643000Y-13141000D02*
X13613000Y-13171000D01*
X13703000Y-13159000D02*
X13733000Y-13189000D01*
X13733000Y-13159000D02*
X13703000Y-13189000D01*
X13706000Y-9210000D02*
X13736000Y-9240000D01*
X13736000Y-9210000D02*
X13706000Y-9240000D01*
X13752000Y-9649000D02*
X13782000Y-9679000D01*
X13782000Y-9649000D02*
X13752000Y-9679000D01*
X13771000Y-8916000D02*
X13801000Y-8946000D01*
X13801000Y-8916000D02*
X13771000Y-8946000D01*
X13802000Y-12906050D02*
X13832000Y-12936050D01*
X13832000Y-12906050D02*
X13802000Y-12936050D01*
X13802000Y-13141000D02*
X13832000Y-13171000D01*
X13832000Y-13141000D02*
X13802000Y-13171000D01*
X13815000Y-9119000D02*
X13845000Y-9149000D01*
X13845000Y-9119000D02*
X13815000Y-9149000D01*
X13823000Y-9388000D02*
X13853000Y-9418000D01*
X13853000Y-9388000D02*
X13823000Y-9418000D01*
X13864000Y-13085000D02*
X13894000Y-13115000D01*
X13894000Y-13085000D02*
X13864000Y-13115000D01*
X13865000Y-12797000D02*
X13895000Y-12827000D01*
X13895000Y-12797000D02*
X13865000Y-12827000D01*
X13923000Y-9771000D02*
X13953000Y-9801000D01*
X13953000Y-9771000D02*
X13923000Y-9801000D01*
X13966000Y-8736000D02*
X13996000Y-8766000D01*
X13996000Y-8736000D02*
X13966000Y-8766000D01*
X13996000Y-8886000D02*
X14026000Y-8916000D01*
X14026000Y-8886000D02*
X13996000Y-8916000D01*
X14002000Y-9276000D02*
X14032000Y-9306000D01*
X14032000Y-9276000D02*
X14002000Y-9306000D01*
X14020000Y-9652000D02*
X14050000Y-9682000D01*
X14050000Y-9652000D02*
X14020000Y-9682000D01*
X14053710Y-13140000D02*
X14083710Y-13170000D01*
X14083710Y-13140000D02*
X14053710Y-13170000D01*
X14097000Y-13026000D02*
X14127000Y-13056000D01*
X14127000Y-13026000D02*
X14097000Y-13056000D01*
X14098000Y-9225000D02*
X14128000Y-9255000D01*
X14128000Y-9225000D02*
X14098000Y-9255000D01*
X14185000Y-9487000D02*
X14215000Y-9517000D01*
X14215000Y-9487000D02*
X14185000Y-9517000D01*
X14345000Y-12977000D02*
X14375000Y-13007000D01*
X14375000Y-12977000D02*
X14345000Y-13007000D01*
X14410000Y-9365000D02*
X14440000Y-9395000D01*
X14440000Y-9365000D02*
X14410000Y-9395000D01*
X14420000Y-12915000D02*
X14450000Y-12945000D01*
X14450000Y-12915000D02*
X14420000Y-12945000D01*
X14426000Y-13162000D02*
X14456000Y-13192000D01*
X14456000Y-13162000D02*
X14426000Y-13192000D01*
X14581000Y-8073000D02*
X14611000Y-8103000D01*
X14611000Y-8073000D02*
X14581000Y-8103000D01*
X14606500Y-8855000D02*
X14636500Y-8885000D01*
X14636500Y-8855000D02*
X14606500Y-8885000D01*
D13*
X5900000Y-9814000D02*
G75*
G03*
X5900000Y-9814000I-25000J0D01*
G01*
X5900000Y-12225000D02*
G75*
G03*
X5900000Y-12225000I-25000J0D01*
G01*
X7806000Y-9814000D02*
G75*
G03*
X7806000Y-9814000I-25000J0D01*
G01*
X9764000Y-12225000D02*
G75*
G03*
X9764000Y-12225000I-25000J0D01*
G01*
D14*
X6002000Y-5235500D02*
X6002000Y-5315500D01*
X5962000Y-5275500D02*
X6042000Y-5275500D01*
X6002000Y-6759500D02*
X6002000Y-6839500D01*
X5962000Y-6799500D02*
X6042000Y-6799500D01*
X6190670Y-10949000D02*
X6190670Y-11029000D01*
X6150670Y-10989000D02*
X6230670Y-10989000D01*
X6190670Y-12473000D02*
X6190670Y-12553000D01*
X6150670Y-12513000D02*
X6230670Y-12513000D01*
X6235000Y-7278000D02*
X6235000Y-7358000D01*
X6195000Y-7318000D02*
X6275000Y-7318000D01*
X6235000Y-7532000D02*
X6235000Y-7612000D01*
X6195000Y-7572000D02*
X6275000Y-7572000D01*
X6235000Y-7786000D02*
X6235000Y-7866000D01*
X6195000Y-7826000D02*
X6275000Y-7826000D01*
X6235000Y-8040000D02*
X6235000Y-8120000D01*
X6195000Y-8080000D02*
X6275000Y-8080000D01*
X6235000Y-8294000D02*
X6235000Y-8374000D01*
X6195000Y-8334000D02*
X6275000Y-8334000D01*
X6235000Y-8548000D02*
X6235000Y-8628000D01*
X6195000Y-8588000D02*
X6275000Y-8588000D01*
X6235000Y-8802000D02*
X6235000Y-8882000D01*
X6195000Y-8842000D02*
X6275000Y-8842000D01*
X6235000Y-9056000D02*
X6235000Y-9136000D01*
X6195000Y-9096000D02*
X6275000Y-9096000D01*
X6256000Y-5235500D02*
X6256000Y-5315500D01*
X6216000Y-5275500D02*
X6296000Y-5275500D01*
X6256000Y-6759500D02*
X6256000Y-6839500D01*
X6216000Y-6799500D02*
X6296000Y-6799500D01*
X6444670Y-10949000D02*
X6444670Y-11029000D01*
X6404670Y-10989000D02*
X6484670Y-10989000D01*
X6444670Y-12473000D02*
X6444670Y-12553000D01*
X6404670Y-12513000D02*
X6484670Y-12513000D01*
X6510000Y-5235500D02*
X6510000Y-5315500D01*
X6470000Y-5275500D02*
X6550000Y-5275500D01*
X6510000Y-6759500D02*
X6510000Y-6839500D01*
X6470000Y-6799500D02*
X6550000Y-6799500D01*
X6698670Y-10949000D02*
X6698670Y-11029000D01*
X6658670Y-10989000D02*
X6738670Y-10989000D01*
X6698670Y-12473000D02*
X6698670Y-12553000D01*
X6658670Y-12513000D02*
X6738670Y-12513000D01*
X6764000Y-5235500D02*
X6764000Y-5315500D01*
X6724000Y-5275500D02*
X6804000Y-5275500D01*
X6764000Y-6759500D02*
X6764000Y-6839500D01*
X6724000Y-6799500D02*
X6804000Y-6799500D01*
X6952670Y-10949000D02*
X6952670Y-11029000D01*
X6912670Y-10989000D02*
X6992670Y-10989000D01*
X6952670Y-12473000D02*
X6952670Y-12553000D01*
X6912670Y-12513000D02*
X6992670Y-12513000D01*
X6997000Y-7278000D02*
X6997000Y-7358000D01*
X6957000Y-7318000D02*
X7037000Y-7318000D01*
X6997000Y-7532000D02*
X6997000Y-7612000D01*
X6957000Y-7572000D02*
X7037000Y-7572000D01*
X6997000Y-7786000D02*
X6997000Y-7866000D01*
X6957000Y-7826000D02*
X7037000Y-7826000D01*
X6997000Y-8040000D02*
X6997000Y-8120000D01*
X6957000Y-8080000D02*
X7037000Y-8080000D01*
X6997000Y-8294000D02*
X6997000Y-8374000D01*
X6957000Y-8334000D02*
X7037000Y-8334000D01*
X6997000Y-8548000D02*
X6997000Y-8628000D01*
X6957000Y-8588000D02*
X7037000Y-8588000D01*
X6997000Y-8802000D02*
X6997000Y-8882000D01*
X6957000Y-8842000D02*
X7037000Y-8842000D01*
X6997000Y-9056000D02*
X6997000Y-9136000D01*
X6957000Y-9096000D02*
X7037000Y-9096000D01*
X7018000Y-5235500D02*
X7018000Y-5315500D01*
X6978000Y-5275500D02*
X7058000Y-5275500D01*
X7018000Y-6759500D02*
X7018000Y-6839500D01*
X6978000Y-6799500D02*
X7058000Y-6799500D01*
X7206670Y-10949000D02*
X7206670Y-11029000D01*
X7166670Y-10989000D02*
X7246670Y-10989000D01*
X7206670Y-12473000D02*
X7206670Y-12553000D01*
X7166670Y-12513000D02*
X7246670Y-12513000D01*
X7272000Y-5235500D02*
X7272000Y-5315500D01*
X7232000Y-5275500D02*
X7312000Y-5275500D01*
X7272000Y-6759500D02*
X7272000Y-6839500D01*
X7232000Y-6799500D02*
X7312000Y-6799500D01*
X7326000Y-7532000D02*
X7326000Y-7612000D01*
X7286000Y-7572000D02*
X7366000Y-7572000D01*
X7326000Y-7786000D02*
X7326000Y-7866000D01*
X7286000Y-7826000D02*
X7366000Y-7826000D01*
X7326000Y-8040000D02*
X7326000Y-8120000D01*
X7286000Y-8080000D02*
X7366000Y-8080000D01*
X7326000Y-8294000D02*
X7326000Y-8374000D01*
X7286000Y-8334000D02*
X7366000Y-8334000D01*
X7460670Y-10949000D02*
X7460670Y-11029000D01*
X7420670Y-10989000D02*
X7500670Y-10989000D01*
X7460670Y-12473000D02*
X7460670Y-12553000D01*
X7420670Y-12513000D02*
X7500670Y-12513000D01*
X7526000Y-5235500D02*
X7526000Y-5315500D01*
X7486000Y-5275500D02*
X7566000Y-5275500D01*
X7526000Y-6759500D02*
X7526000Y-6839500D01*
X7486000Y-6799500D02*
X7566000Y-6799500D01*
X7714670Y-10949000D02*
X7714670Y-11029000D01*
X7674670Y-10989000D02*
X7754670Y-10989000D01*
X7714670Y-12473000D02*
X7714670Y-12553000D01*
X7674670Y-12513000D02*
X7754670Y-12513000D01*
X7780000Y-5235500D02*
X7780000Y-5315500D01*
X7740000Y-5275500D02*
X7820000Y-5275500D01*
X7780000Y-6759500D02*
X7780000Y-6839500D01*
X7740000Y-6799500D02*
X7820000Y-6799500D01*
X7968670Y-10949000D02*
X7968670Y-11029000D01*
X7928670Y-10989000D02*
X8008670Y-10989000D01*
X7968670Y-12473000D02*
X7968670Y-12553000D01*
X7928670Y-12513000D02*
X8008670Y-12513000D01*
X8034000Y-5235500D02*
X8034000Y-5315500D01*
X7994000Y-5275500D02*
X8074000Y-5275500D01*
X8034000Y-6759500D02*
X8034000Y-6839500D01*
X7994000Y-6799500D02*
X8074000Y-6799500D01*
X8088000Y-7532000D02*
X8088000Y-7612000D01*
X8048000Y-7572000D02*
X8128000Y-7572000D01*
X8088000Y-7786000D02*
X8088000Y-7866000D01*
X8048000Y-7826000D02*
X8128000Y-7826000D01*
X8088000Y-8040000D02*
X8088000Y-8120000D01*
X8048000Y-8080000D02*
X8128000Y-8080000D01*
X8088000Y-8294000D02*
X8088000Y-8374000D01*
X8048000Y-8334000D02*
X8128000Y-8334000D01*
X8222670Y-10949000D02*
X8222670Y-11029000D01*
X8182670Y-10989000D02*
X8262670Y-10989000D01*
X8222670Y-12473000D02*
X8222670Y-12553000D01*
X8182670Y-12513000D02*
X8262670Y-12513000D01*
X8288000Y-5235500D02*
X8288000Y-5315500D01*
X8248000Y-5275500D02*
X8328000Y-5275500D01*
X8288000Y-6759500D02*
X8288000Y-6839500D01*
X8248000Y-6799500D02*
X8328000Y-6799500D01*
X8476670Y-10949000D02*
X8476670Y-11029000D01*
X8436670Y-10989000D02*
X8516670Y-10989000D01*
X8476670Y-12473000D02*
X8476670Y-12553000D01*
X8436670Y-12513000D02*
X8516670Y-12513000D01*
X8542000Y-5235500D02*
X8542000Y-5315500D01*
X8502000Y-5275500D02*
X8582000Y-5275500D01*
X8542000Y-6759500D02*
X8542000Y-6839500D01*
X8502000Y-6799500D02*
X8582000Y-6799500D01*
X8730670Y-10949000D02*
X8730670Y-11029000D01*
X8690670Y-10989000D02*
X8770670Y-10989000D01*
X8730670Y-12473000D02*
X8730670Y-12553000D01*
X8690670Y-12513000D02*
X8770670Y-12513000D01*
X8796000Y-5235500D02*
X8796000Y-5315500D01*
X8756000Y-5275500D02*
X8836000Y-5275500D01*
X8796000Y-6759500D02*
X8796000Y-6839500D01*
X8756000Y-6799500D02*
X8836000Y-6799500D01*
X8984670Y-10949000D02*
X8984670Y-11029000D01*
X8944670Y-10989000D02*
X9024670Y-10989000D01*
X8984670Y-12473000D02*
X8984670Y-12553000D01*
X8944670Y-12513000D02*
X9024670Y-12513000D01*
X9050000Y-5235500D02*
X9050000Y-5315500D01*
X9010000Y-5275500D02*
X9090000Y-5275500D01*
X9050000Y-6759500D02*
X9050000Y-6839500D01*
X9010000Y-6799500D02*
X9090000Y-6799500D01*
X9238670Y-10949000D02*
X9238670Y-11029000D01*
X9198670Y-10989000D02*
X9278670Y-10989000D01*
X9238670Y-12473000D02*
X9238670Y-12553000D01*
X9198670Y-12513000D02*
X9278670Y-12513000D01*
X9304000Y-5235500D02*
X9304000Y-5315500D01*
X9264000Y-5275500D02*
X9344000Y-5275500D01*
X9304000Y-6759500D02*
X9304000Y-6839500D01*
X9264000Y-6799500D02*
X9344000Y-6799500D01*
X9492670Y-10949000D02*
X9492670Y-11029000D01*
X9452670Y-10989000D02*
X9532670Y-10989000D01*
X9492670Y-12473000D02*
X9492670Y-12553000D01*
X9452670Y-12513000D02*
X9532670Y-12513000D01*
X9494000Y-12732000D02*
X9494000Y-12812000D01*
X9454000Y-12772000D02*
X9534000Y-12772000D01*
X9744000Y-12732000D02*
X9744000Y-12812000D01*
X9704000Y-12772000D02*
X9784000Y-12772000D01*
X9746670Y-10949000D02*
X9746670Y-11029000D01*
X9706670Y-10989000D02*
X9786670Y-10989000D01*
X9746670Y-12473000D02*
X9746670Y-12553000D01*
X9706670Y-12513000D02*
X9786670Y-12513000D01*
X10000670Y-10949000D02*
X10000670Y-11029000D01*
X9960670Y-10989000D02*
X10040670Y-10989000D01*
X10000670Y-12473000D02*
X10000670Y-12553000D01*
X9960670Y-12513000D02*
X10040670Y-12513000D01*
X10090511Y-8763000D02*
X10090511Y-8843000D01*
X10050511Y-8803000D02*
X10130511Y-8803000D01*
X10340511Y-8763000D02*
X10340511Y-8843000D01*
X10300511Y-8803000D02*
X10380511Y-8803000D01*
X10515000Y-10949000D02*
X10515000Y-11029000D01*
X10475000Y-10989000D02*
X10555000Y-10989000D01*
X10515000Y-12473000D02*
X10515000Y-12553000D01*
X10475000Y-12513000D02*
X10555000Y-12513000D01*
X10769000Y-10949000D02*
X10769000Y-11029000D01*
X10729000Y-10989000D02*
X10809000Y-10989000D01*
X10769000Y-12473000D02*
X10769000Y-12553000D01*
X10729000Y-12513000D02*
X10809000Y-12513000D01*
X11023000Y-10949000D02*
X11023000Y-11029000D01*
X10983000Y-10989000D02*
X11063000Y-10989000D01*
X11023000Y-12473000D02*
X11023000Y-12553000D01*
X10983000Y-12513000D02*
X11063000Y-12513000D01*
X11147500Y-7776000D02*
X11147500Y-7856000D01*
X11107500Y-7816000D02*
X11187500Y-7816000D01*
X11147500Y-8538000D02*
X11147500Y-8618000D01*
X11107500Y-8578000D02*
X11187500Y-8578000D01*
X11277000Y-10949000D02*
X11277000Y-11029000D01*
X11237000Y-10989000D02*
X11317000Y-10989000D01*
X11277000Y-12473000D02*
X11277000Y-12553000D01*
X11237000Y-12513000D02*
X11317000Y-12513000D01*
X11344000Y-5248500D02*
X11344000Y-5328500D01*
X11304000Y-5288500D02*
X11384000Y-5288500D01*
X11344000Y-6772500D02*
X11344000Y-6852500D01*
X11304000Y-6812500D02*
X11384000Y-6812500D01*
X11401500Y-7776000D02*
X11401500Y-7856000D01*
X11361500Y-7816000D02*
X11441500Y-7816000D01*
X11401500Y-8538000D02*
X11401500Y-8618000D01*
X11361500Y-8578000D02*
X11441500Y-8578000D01*
X11531000Y-10949000D02*
X11531000Y-11029000D01*
X11491000Y-10989000D02*
X11571000Y-10989000D01*
X11531000Y-12473000D02*
X11531000Y-12553000D01*
X11491000Y-12513000D02*
X11571000Y-12513000D01*
X11598000Y-5248500D02*
X11598000Y-5328500D01*
X11558000Y-5288500D02*
X11638000Y-5288500D01*
X11598000Y-6772500D02*
X11598000Y-6852500D01*
X11558000Y-6812500D02*
X11638000Y-6812500D01*
X11655500Y-7776000D02*
X11655500Y-7856000D01*
X11615500Y-7816000D02*
X11695500Y-7816000D01*
X11655500Y-8538000D02*
X11655500Y-8618000D01*
X11615500Y-8578000D02*
X11695500Y-8578000D01*
X11785000Y-10949000D02*
X11785000Y-11029000D01*
X11745000Y-10989000D02*
X11825000Y-10989000D01*
X11785000Y-12473000D02*
X11785000Y-12553000D01*
X11745000Y-12513000D02*
X11825000Y-12513000D01*
X11852000Y-5248500D02*
X11852000Y-5328500D01*
X11812000Y-5288500D02*
X11892000Y-5288500D01*
X11852000Y-6772500D02*
X11852000Y-6852500D01*
X11812000Y-6812500D02*
X11892000Y-6812500D01*
X11909500Y-7776000D02*
X11909500Y-7856000D01*
X11869500Y-7816000D02*
X11949500Y-7816000D01*
X11909500Y-8538000D02*
X11909500Y-8618000D01*
X11869500Y-8578000D02*
X11949500Y-8578000D01*
X12039000Y-10949000D02*
X12039000Y-11029000D01*
X11999000Y-10989000D02*
X12079000Y-10989000D01*
X12039000Y-12473000D02*
X12039000Y-12553000D01*
X11999000Y-12513000D02*
X12079000Y-12513000D01*
X12106000Y-5248500D02*
X12106000Y-5328500D01*
X12066000Y-5288500D02*
X12146000Y-5288500D01*
X12106000Y-6772500D02*
X12106000Y-6852500D01*
X12066000Y-6812500D02*
X12146000Y-6812500D01*
X12163500Y-7776000D02*
X12163500Y-7856000D01*
X12123500Y-7816000D02*
X12203500Y-7816000D01*
X12163500Y-8538000D02*
X12163500Y-8618000D01*
X12123500Y-8578000D02*
X12203500Y-8578000D01*
X12293000Y-10949000D02*
X12293000Y-11029000D01*
X12253000Y-10989000D02*
X12333000Y-10989000D01*
X12293000Y-12473000D02*
X12293000Y-12553000D01*
X12253000Y-12513000D02*
X12333000Y-12513000D01*
X12360000Y-5248500D02*
X12360000Y-5328500D01*
X12320000Y-5288500D02*
X12400000Y-5288500D01*
X12360000Y-6772500D02*
X12360000Y-6852500D01*
X12320000Y-6812500D02*
X12400000Y-6812500D01*
X12417500Y-7776000D02*
X12417500Y-7856000D01*
X12377500Y-7816000D02*
X12457500Y-7816000D01*
X12417500Y-8538000D02*
X12417500Y-8618000D01*
X12377500Y-8578000D02*
X12457500Y-8578000D01*
X12547000Y-10949000D02*
X12547000Y-11029000D01*
X12507000Y-10989000D02*
X12587000Y-10989000D01*
X12547000Y-12473000D02*
X12547000Y-12553000D01*
X12507000Y-12513000D02*
X12587000Y-12513000D01*
X12614000Y-5248500D02*
X12614000Y-5328500D01*
X12574000Y-5288500D02*
X12654000Y-5288500D01*
X12614000Y-6772500D02*
X12614000Y-6852500D01*
X12574000Y-6812500D02*
X12654000Y-6812500D01*
X12671500Y-7776000D02*
X12671500Y-7856000D01*
X12631500Y-7816000D02*
X12711500Y-7816000D01*
X12671500Y-8538000D02*
X12671500Y-8618000D01*
X12631500Y-8578000D02*
X12711500Y-8578000D01*
X12801000Y-10949000D02*
X12801000Y-11029000D01*
X12761000Y-10989000D02*
X12841000Y-10989000D01*
X12801000Y-12473000D02*
X12801000Y-12553000D01*
X12761000Y-12513000D02*
X12841000Y-12513000D01*
X12868000Y-5248500D02*
X12868000Y-5328500D01*
X12828000Y-5288500D02*
X12908000Y-5288500D01*
X12868000Y-6772500D02*
X12868000Y-6852500D01*
X12828000Y-6812500D02*
X12908000Y-6812500D01*
X13055000Y-10949000D02*
X13055000Y-11029000D01*
X13015000Y-10989000D02*
X13095000Y-10989000D01*
X13055000Y-12473000D02*
X13055000Y-12553000D01*
X13015000Y-12513000D02*
X13095000Y-12513000D01*
X13097500Y-7781000D02*
X13097500Y-7861000D01*
X13057500Y-7821000D02*
X13137500Y-7821000D01*
X13097500Y-8543000D02*
X13097500Y-8623000D01*
X13057500Y-8583000D02*
X13137500Y-8583000D01*
X13122000Y-5248500D02*
X13122000Y-5328500D01*
X13082000Y-5288500D02*
X13162000Y-5288500D01*
X13122000Y-6772500D02*
X13122000Y-6852500D01*
X13082000Y-6812500D02*
X13162000Y-6812500D01*
X13309000Y-10949000D02*
X13309000Y-11029000D01*
X13269000Y-10989000D02*
X13349000Y-10989000D01*
X13309000Y-12473000D02*
X13309000Y-12553000D01*
X13269000Y-12513000D02*
X13349000Y-12513000D01*
X13351500Y-7781000D02*
X13351500Y-7861000D01*
X13311500Y-7821000D02*
X13391500Y-7821000D01*
X13351500Y-8543000D02*
X13351500Y-8623000D01*
X13311500Y-8583000D02*
X13391500Y-8583000D01*
X13376000Y-5248500D02*
X13376000Y-5328500D01*
X13336000Y-5288500D02*
X13416000Y-5288500D01*
X13376000Y-6772500D02*
X13376000Y-6852500D01*
X13336000Y-6812500D02*
X13416000Y-6812500D01*
X13563000Y-10949000D02*
X13563000Y-11029000D01*
X13523000Y-10989000D02*
X13603000Y-10989000D01*
X13563000Y-12473000D02*
X13563000Y-12553000D01*
X13523000Y-12513000D02*
X13603000Y-12513000D01*
X13605500Y-7781000D02*
X13605500Y-7861000D01*
X13565500Y-7821000D02*
X13645500Y-7821000D01*
X13605500Y-8543000D02*
X13605500Y-8623000D01*
X13565500Y-8583000D02*
X13645500Y-8583000D01*
X13630000Y-5248500D02*
X13630000Y-5328500D01*
X13590000Y-5288500D02*
X13670000Y-5288500D01*
X13630000Y-6772500D02*
X13630000Y-6852500D01*
X13590000Y-6812500D02*
X13670000Y-6812500D01*
X13817000Y-10949000D02*
X13817000Y-11029000D01*
X13777000Y-10989000D02*
X13857000Y-10989000D01*
X13817000Y-12473000D02*
X13817000Y-12553000D01*
X13777000Y-12513000D02*
X13857000Y-12513000D01*
X13859500Y-7781000D02*
X13859500Y-7861000D01*
X13819500Y-7821000D02*
X13899500Y-7821000D01*
X13859500Y-8543000D02*
X13859500Y-8623000D01*
X13819500Y-8583000D02*
X13899500Y-8583000D01*
X13884000Y-5248500D02*
X13884000Y-5328500D01*
X13844000Y-5288500D02*
X13924000Y-5288500D01*
X13884000Y-6772500D02*
X13884000Y-6852500D01*
X13844000Y-6812500D02*
X13924000Y-6812500D01*
X14035000Y-12737000D02*
X14035000Y-12817000D01*
X13995000Y-12777000D02*
X14075000Y-12777000D01*
X14071000Y-10949000D02*
X14071000Y-11029000D01*
X14031000Y-10989000D02*
X14111000Y-10989000D01*
X14071000Y-12473000D02*
X14071000Y-12553000D01*
X14031000Y-12513000D02*
X14111000Y-12513000D01*
X14113500Y-7781000D02*
X14113500Y-7861000D01*
X14073500Y-7821000D02*
X14153500Y-7821000D01*
X14113500Y-8543000D02*
X14113500Y-8623000D01*
X14073500Y-8583000D02*
X14153500Y-8583000D01*
X14138000Y-5248500D02*
X14138000Y-5328500D01*
X14098000Y-5288500D02*
X14178000Y-5288500D01*
X14138000Y-6772500D02*
X14138000Y-6852500D01*
X14098000Y-6812500D02*
X14178000Y-6812500D01*
X14285000Y-12737000D02*
X14285000Y-12817000D01*
X14245000Y-12777000D02*
X14325000Y-12777000D01*
X14325000Y-10949000D02*
X14325000Y-11029000D01*
X14285000Y-10989000D02*
X14365000Y-10989000D01*
X14325000Y-12473000D02*
X14325000Y-12553000D01*
X14285000Y-12513000D02*
X14365000Y-12513000D01*
X14367500Y-7781000D02*
X14367500Y-7861000D01*
X14327500Y-7821000D02*
X14407500Y-7821000D01*
X14367500Y-8543000D02*
X14367500Y-8623000D01*
X14327500Y-8583000D02*
X14407500Y-8583000D01*
X14392000Y-5248500D02*
X14392000Y-5328500D01*
X14352000Y-5288500D02*
X14432000Y-5288500D01*
X14392000Y-6772500D02*
X14392000Y-6852500D01*
X14352000Y-6812500D02*
X14432000Y-6812500D01*
X14621500Y-7781000D02*
X14621500Y-7861000D01*
X14581500Y-7821000D02*
X14661500Y-7821000D01*
X14621500Y-8543000D02*
X14621500Y-8623000D01*
X14581500Y-8583000D02*
X14661500Y-8583000D01*
X14646000Y-5248500D02*
X14646000Y-5328500D01*
X14606000Y-5288500D02*
X14686000Y-5288500D01*
X14646000Y-6772500D02*
X14646000Y-6852500D01*
X14606000Y-6812500D02*
X14686000Y-6812500D01*
D11*
X5496199Y-15066476D02*
X5496199Y-14866476D01*
X5496199Y-14866476D02*
X5543818Y-14866476D01*
X5543818Y-14866476D02*
X5572390Y-14876000D01*
X5572390Y-14876000D02*
X5591437Y-14895048D01*
X5591437Y-14895048D02*
X5600961Y-14914095D01*
X5600961Y-14914095D02*
X5610485Y-14952190D01*
X5610485Y-14952190D02*
X5610485Y-14980762D01*
X5610485Y-14980762D02*
X5600961Y-15018857D01*
X5600961Y-15018857D02*
X5591437Y-15037905D01*
X5591437Y-15037905D02*
X5572390Y-15056952D01*
X5572390Y-15056952D02*
X5543818Y-15066476D01*
X5543818Y-15066476D02*
X5496199Y-15066476D01*
X5696199Y-15066476D02*
X5696199Y-14933143D01*
X5696199Y-14971238D02*
X5705723Y-14952190D01*
X5705723Y-14952190D02*
X5715247Y-14942667D01*
X5715247Y-14942667D02*
X5734294Y-14933143D01*
X5734294Y-14933143D02*
X5753342Y-14933143D01*
X5820008Y-15066476D02*
X5820008Y-14933143D01*
X5820008Y-14866476D02*
X5810485Y-14876000D01*
X5810485Y-14876000D02*
X5820008Y-14885524D01*
X5820008Y-14885524D02*
X5829532Y-14876000D01*
X5829532Y-14876000D02*
X5820008Y-14866476D01*
X5820008Y-14866476D02*
X5820008Y-14885524D01*
X5943818Y-15066476D02*
X5924770Y-15056952D01*
X5924770Y-15056952D02*
X5915247Y-15037905D01*
X5915247Y-15037905D02*
X5915247Y-14866476D01*
X6048580Y-15066476D02*
X6029532Y-15056952D01*
X6029532Y-15056952D02*
X6020008Y-15037905D01*
X6020008Y-15037905D02*
X6020008Y-14866476D01*
X6244770Y-15066476D02*
X6244770Y-14866476D01*
X6244770Y-14866476D02*
X6311437Y-15009333D01*
X6311437Y-15009333D02*
X6378104Y-14866476D01*
X6378104Y-14866476D02*
X6378104Y-15066476D01*
X6559056Y-15066476D02*
X6559056Y-14961714D01*
X6559056Y-14961714D02*
X6549532Y-14942667D01*
X6549532Y-14942667D02*
X6530485Y-14933143D01*
X6530485Y-14933143D02*
X6492389Y-14933143D01*
X6492389Y-14933143D02*
X6473342Y-14942667D01*
X6559056Y-15056952D02*
X6540008Y-15066476D01*
X6540008Y-15066476D02*
X6492389Y-15066476D01*
X6492389Y-15066476D02*
X6473342Y-15056952D01*
X6473342Y-15056952D02*
X6463818Y-15037905D01*
X6463818Y-15037905D02*
X6463818Y-15018857D01*
X6463818Y-15018857D02*
X6473342Y-14999809D01*
X6473342Y-14999809D02*
X6492389Y-14990286D01*
X6492389Y-14990286D02*
X6540008Y-14990286D01*
X6540008Y-14990286D02*
X6559056Y-14980762D01*
X6654294Y-14933143D02*
X6654294Y-15133143D01*
X6654294Y-14942667D02*
X6673342Y-14933143D01*
X6673342Y-14933143D02*
X6711437Y-14933143D01*
X6711437Y-14933143D02*
X6730485Y-14942667D01*
X6730485Y-14942667D02*
X6740008Y-14952190D01*
X6740008Y-14952190D02*
X6749532Y-14971238D01*
X6749532Y-14971238D02*
X6749532Y-15028381D01*
X6749532Y-15028381D02*
X6740008Y-15047428D01*
X6740008Y-15047428D02*
X6730485Y-15056952D01*
X6730485Y-15056952D02*
X6711437Y-15066476D01*
X6711437Y-15066476D02*
X6673342Y-15066476D01*
X6673342Y-15066476D02*
X6654294Y-15056952D01*
X6835247Y-15047428D02*
X6844770Y-15056952D01*
X6844770Y-15056952D02*
X6835247Y-15066476D01*
X6835247Y-15066476D02*
X6825723Y-15056952D01*
X6825723Y-15056952D02*
X6835247Y-15047428D01*
X6835247Y-15047428D02*
X6835247Y-15066476D01*
X6835247Y-14942667D02*
X6844770Y-14952190D01*
X6844770Y-14952190D02*
X6835247Y-14961714D01*
X6835247Y-14961714D02*
X6825723Y-14952190D01*
X6825723Y-14952190D02*
X6835247Y-14942667D01*
X6835247Y-14942667D02*
X6835247Y-14961714D01*
D12*
X5218580Y-15398000D02*
X5248580Y-15428000D01*
X5248580Y-15398000D02*
X5218580Y-15428000D01*
D11*
X5534294Y-15286476D02*
X5553342Y-15286476D01*
X5553342Y-15286476D02*
X5572390Y-15296000D01*
X5572390Y-15296000D02*
X5581913Y-15305524D01*
X5581913Y-15305524D02*
X5591437Y-15324571D01*
X5591437Y-15324571D02*
X5600961Y-15362667D01*
X5600961Y-15362667D02*
X5600961Y-15410286D01*
X5600961Y-15410286D02*
X5591437Y-15448381D01*
X5591437Y-15448381D02*
X5581913Y-15467428D01*
X5581913Y-15467428D02*
X5572390Y-15476952D01*
X5572390Y-15476952D02*
X5553342Y-15486476D01*
X5553342Y-15486476D02*
X5534294Y-15486476D01*
X5534294Y-15486476D02*
X5515247Y-15476952D01*
X5515247Y-15476952D02*
X5505723Y-15467428D01*
X5505723Y-15467428D02*
X5496199Y-15448381D01*
X5496199Y-15448381D02*
X5486675Y-15410286D01*
X5486675Y-15410286D02*
X5486675Y-15362667D01*
X5486675Y-15362667D02*
X5496199Y-15324571D01*
X5496199Y-15324571D02*
X5505723Y-15305524D01*
X5505723Y-15305524D02*
X5515247Y-15296000D01*
X5515247Y-15296000D02*
X5534294Y-15286476D01*
X5686675Y-15467428D02*
X5696199Y-15476952D01*
X5696199Y-15476952D02*
X5686675Y-15486476D01*
X5686675Y-15486476D02*
X5677151Y-15476952D01*
X5677151Y-15476952D02*
X5686675Y-15467428D01*
X5686675Y-15467428D02*
X5686675Y-15486476D01*
X5762866Y-15286476D02*
X5886675Y-15286476D01*
X5886675Y-15286476D02*
X5820008Y-15362667D01*
X5820008Y-15362667D02*
X5848580Y-15362667D01*
X5848580Y-15362667D02*
X5867628Y-15372190D01*
X5867628Y-15372190D02*
X5877151Y-15381714D01*
X5877151Y-15381714D02*
X5886675Y-15400762D01*
X5886675Y-15400762D02*
X5886675Y-15448381D01*
X5886675Y-15448381D02*
X5877151Y-15467428D01*
X5877151Y-15467428D02*
X5867628Y-15476952D01*
X5867628Y-15476952D02*
X5848580Y-15486476D01*
X5848580Y-15486476D02*
X5791437Y-15486476D01*
X5791437Y-15486476D02*
X5772389Y-15476952D01*
X5772389Y-15476952D02*
X5762866Y-15467428D01*
X6010485Y-15286476D02*
X6029532Y-15286476D01*
X6029532Y-15286476D02*
X6048580Y-15296000D01*
X6048580Y-15296000D02*
X6058104Y-15305524D01*
X6058104Y-15305524D02*
X6067628Y-15324571D01*
X6067628Y-15324571D02*
X6077151Y-15362667D01*
X6077151Y-15362667D02*
X6077151Y-15410286D01*
X6077151Y-15410286D02*
X6067628Y-15448381D01*
X6067628Y-15448381D02*
X6058104Y-15467428D01*
X6058104Y-15467428D02*
X6048580Y-15476952D01*
X6048580Y-15476952D02*
X6029532Y-15486476D01*
X6029532Y-15486476D02*
X6010485Y-15486476D01*
X6010485Y-15486476D02*
X5991437Y-15476952D01*
X5991437Y-15476952D02*
X5981913Y-15467428D01*
X5981913Y-15467428D02*
X5972389Y-15448381D01*
X5972389Y-15448381D02*
X5962866Y-15410286D01*
X5962866Y-15410286D02*
X5962866Y-15362667D01*
X5962866Y-15362667D02*
X5972389Y-15324571D01*
X5972389Y-15324571D02*
X5981913Y-15305524D01*
X5981913Y-15305524D02*
X5991437Y-15296000D01*
X5991437Y-15296000D02*
X6010485Y-15286476D01*
X6200961Y-15286476D02*
X6220009Y-15286476D01*
X6220009Y-15286476D02*
X6239056Y-15296000D01*
X6239056Y-15296000D02*
X6248580Y-15305524D01*
X6248580Y-15305524D02*
X6258104Y-15324571D01*
X6258104Y-15324571D02*
X6267628Y-15362667D01*
X6267628Y-15362667D02*
X6267628Y-15410286D01*
X6267628Y-15410286D02*
X6258104Y-15448381D01*
X6258104Y-15448381D02*
X6248580Y-15467428D01*
X6248580Y-15467428D02*
X6239056Y-15476952D01*
X6239056Y-15476952D02*
X6220009Y-15486476D01*
X6220009Y-15486476D02*
X6200961Y-15486476D01*
X6200961Y-15486476D02*
X6181913Y-15476952D01*
X6181913Y-15476952D02*
X6172389Y-15467428D01*
X6172389Y-15467428D02*
X6162866Y-15448381D01*
X6162866Y-15448381D02*
X6153342Y-15410286D01*
X6153342Y-15410286D02*
X6153342Y-15362667D01*
X6153342Y-15362667D02*
X6162866Y-15324571D01*
X6162866Y-15324571D02*
X6172389Y-15305524D01*
X6172389Y-15305524D02*
X6181913Y-15296000D01*
X6181913Y-15296000D02*
X6200961Y-15286476D01*
X6353342Y-15486476D02*
X6353342Y-15353143D01*
X6353342Y-15372190D02*
X6362866Y-15362667D01*
X6362866Y-15362667D02*
X6381913Y-15353143D01*
X6381913Y-15353143D02*
X6410485Y-15353143D01*
X6410485Y-15353143D02*
X6429532Y-15362667D01*
X6429532Y-15362667D02*
X6439056Y-15381714D01*
X6439056Y-15381714D02*
X6439056Y-15486476D01*
X6439056Y-15381714D02*
X6448580Y-15362667D01*
X6448580Y-15362667D02*
X6467628Y-15353143D01*
X6467628Y-15353143D02*
X6496199Y-15353143D01*
X6496199Y-15353143D02*
X6515247Y-15362667D01*
X6515247Y-15362667D02*
X6524770Y-15381714D01*
X6524770Y-15381714D02*
X6524770Y-15486476D01*
X6620009Y-15486476D02*
X6620009Y-15353143D01*
X6620009Y-15372190D02*
X6629532Y-15362667D01*
X6629532Y-15362667D02*
X6648580Y-15353143D01*
X6648580Y-15353143D02*
X6677151Y-15353143D01*
X6677151Y-15353143D02*
X6696199Y-15362667D01*
X6696199Y-15362667D02*
X6705723Y-15381714D01*
X6705723Y-15381714D02*
X6705723Y-15486476D01*
X6705723Y-15381714D02*
X6715247Y-15362667D01*
X6715247Y-15362667D02*
X6734294Y-15353143D01*
X6734294Y-15353143D02*
X6762866Y-15353143D01*
X6762866Y-15353143D02*
X6781913Y-15362667D01*
X6781913Y-15362667D02*
X6791437Y-15381714D01*
X6791437Y-15381714D02*
X6791437Y-15486476D01*
X7149532Y-15276952D02*
X6978104Y-15534095D01*
X7374294Y-15286476D02*
X7393342Y-15286476D01*
X7393342Y-15286476D02*
X7412390Y-15296000D01*
X7412390Y-15296000D02*
X7421913Y-15305524D01*
X7421913Y-15305524D02*
X7431437Y-15324571D01*
X7431437Y-15324571D02*
X7440961Y-15362667D01*
X7440961Y-15362667D02*
X7440961Y-15410286D01*
X7440961Y-15410286D02*
X7431437Y-15448381D01*
X7431437Y-15448381D02*
X7421913Y-15467428D01*
X7421913Y-15467428D02*
X7412390Y-15476952D01*
X7412390Y-15476952D02*
X7393342Y-15486476D01*
X7393342Y-15486476D02*
X7374294Y-15486476D01*
X7374294Y-15486476D02*
X7355247Y-15476952D01*
X7355247Y-15476952D02*
X7345723Y-15467428D01*
X7345723Y-15467428D02*
X7336199Y-15448381D01*
X7336199Y-15448381D02*
X7326675Y-15410286D01*
X7326675Y-15410286D02*
X7326675Y-15362667D01*
X7326675Y-15362667D02*
X7336199Y-15324571D01*
X7336199Y-15324571D02*
X7345723Y-15305524D01*
X7345723Y-15305524D02*
X7355247Y-15296000D01*
X7355247Y-15296000D02*
X7374294Y-15286476D01*
X7526675Y-15467428D02*
X7536199Y-15476952D01*
X7536199Y-15476952D02*
X7526675Y-15486476D01*
X7526675Y-15486476D02*
X7517151Y-15476952D01*
X7517151Y-15476952D02*
X7526675Y-15467428D01*
X7526675Y-15467428D02*
X7526675Y-15486476D01*
X7660009Y-15286476D02*
X7679056Y-15286476D01*
X7679056Y-15286476D02*
X7698104Y-15296000D01*
X7698104Y-15296000D02*
X7707628Y-15305524D01*
X7707628Y-15305524D02*
X7717151Y-15324571D01*
X7717151Y-15324571D02*
X7726675Y-15362667D01*
X7726675Y-15362667D02*
X7726675Y-15410286D01*
X7726675Y-15410286D02*
X7717151Y-15448381D01*
X7717151Y-15448381D02*
X7707628Y-15467428D01*
X7707628Y-15467428D02*
X7698104Y-15476952D01*
X7698104Y-15476952D02*
X7679056Y-15486476D01*
X7679056Y-15486476D02*
X7660009Y-15486476D01*
X7660009Y-15486476D02*
X7640961Y-15476952D01*
X7640961Y-15476952D02*
X7631437Y-15467428D01*
X7631437Y-15467428D02*
X7621913Y-15448381D01*
X7621913Y-15448381D02*
X7612390Y-15410286D01*
X7612390Y-15410286D02*
X7612390Y-15362667D01*
X7612390Y-15362667D02*
X7621913Y-15324571D01*
X7621913Y-15324571D02*
X7631437Y-15305524D01*
X7631437Y-15305524D02*
X7640961Y-15296000D01*
X7640961Y-15296000D02*
X7660009Y-15286476D01*
X7917151Y-15486476D02*
X7802866Y-15486476D01*
X7860009Y-15486476D02*
X7860009Y-15286476D01*
X7860009Y-15286476D02*
X7840961Y-15315048D01*
X7840961Y-15315048D02*
X7821913Y-15334095D01*
X7821913Y-15334095D02*
X7802866Y-15343619D01*
X8107628Y-15486476D02*
X7993342Y-15486476D01*
X8050485Y-15486476D02*
X8050485Y-15286476D01*
X8050485Y-15286476D02*
X8031437Y-15315048D01*
X8031437Y-15315048D02*
X8012390Y-15334095D01*
X8012390Y-15334095D02*
X7993342Y-15343619D01*
X8221913Y-15372190D02*
X8202866Y-15362667D01*
X8202866Y-15362667D02*
X8193342Y-15353143D01*
X8193342Y-15353143D02*
X8183818Y-15334095D01*
X8183818Y-15334095D02*
X8183818Y-15324571D01*
X8183818Y-15324571D02*
X8193342Y-15305524D01*
X8193342Y-15305524D02*
X8202866Y-15296000D01*
X8202866Y-15296000D02*
X8221913Y-15286476D01*
X8221913Y-15286476D02*
X8260009Y-15286476D01*
X8260009Y-15286476D02*
X8279056Y-15296000D01*
X8279056Y-15296000D02*
X8288580Y-15305524D01*
X8288580Y-15305524D02*
X8298104Y-15324571D01*
X8298104Y-15324571D02*
X8298104Y-15334095D01*
X8298104Y-15334095D02*
X8288580Y-15353143D01*
X8288580Y-15353143D02*
X8279056Y-15362667D01*
X8279056Y-15362667D02*
X8260009Y-15372190D01*
X8260009Y-15372190D02*
X8221913Y-15372190D01*
X8221913Y-15372190D02*
X8202866Y-15381714D01*
X8202866Y-15381714D02*
X8193342Y-15391238D01*
X8193342Y-15391238D02*
X8183818Y-15410286D01*
X8183818Y-15410286D02*
X8183818Y-15448381D01*
X8183818Y-15448381D02*
X8193342Y-15467428D01*
X8193342Y-15467428D02*
X8202866Y-15476952D01*
X8202866Y-15476952D02*
X8221913Y-15486476D01*
X8221913Y-15486476D02*
X8260009Y-15486476D01*
X8260009Y-15486476D02*
X8279056Y-15476952D01*
X8279056Y-15476952D02*
X8288580Y-15467428D01*
X8288580Y-15467428D02*
X8298104Y-15448381D01*
X8298104Y-15448381D02*
X8298104Y-15410286D01*
X8298104Y-15410286D02*
X8288580Y-15391238D01*
X8288580Y-15391238D02*
X8279056Y-15381714D01*
X8279056Y-15381714D02*
X8260009Y-15372190D01*
X8374294Y-15286476D02*
X8374294Y-15324571D01*
X8450485Y-15286476D02*
X8450485Y-15324571D01*
X8713342Y-15562667D02*
X8703818Y-15553143D01*
X8703818Y-15553143D02*
X8684771Y-15524571D01*
X8684771Y-15524571D02*
X8675247Y-15505524D01*
X8675247Y-15505524D02*
X8665723Y-15476952D01*
X8665723Y-15476952D02*
X8656199Y-15429333D01*
X8656199Y-15429333D02*
X8656199Y-15391238D01*
X8656199Y-15391238D02*
X8665723Y-15343619D01*
X8665723Y-15343619D02*
X8675247Y-15315048D01*
X8675247Y-15315048D02*
X8684771Y-15296000D01*
X8684771Y-15296000D02*
X8703818Y-15267428D01*
X8703818Y-15267428D02*
X8713342Y-15257905D01*
X8894294Y-15486476D02*
X8780009Y-15486476D01*
X8837152Y-15486476D02*
X8837152Y-15286476D01*
X8837152Y-15286476D02*
X8818104Y-15315048D01*
X8818104Y-15315048D02*
X8799056Y-15334095D01*
X8799056Y-15334095D02*
X8780009Y-15343619D01*
X9018104Y-15286476D02*
X9037152Y-15286476D01*
X9037152Y-15286476D02*
X9056199Y-15296000D01*
X9056199Y-15296000D02*
X9065723Y-15305524D01*
X9065723Y-15305524D02*
X9075247Y-15324571D01*
X9075247Y-15324571D02*
X9084771Y-15362667D01*
X9084771Y-15362667D02*
X9084771Y-15410286D01*
X9084771Y-15410286D02*
X9075247Y-15448381D01*
X9075247Y-15448381D02*
X9065723Y-15467428D01*
X9065723Y-15467428D02*
X9056199Y-15476952D01*
X9056199Y-15476952D02*
X9037152Y-15486476D01*
X9037152Y-15486476D02*
X9018104Y-15486476D01*
X9018104Y-15486476D02*
X8999056Y-15476952D01*
X8999056Y-15476952D02*
X8989533Y-15467428D01*
X8989533Y-15467428D02*
X8980009Y-15448381D01*
X8980009Y-15448381D02*
X8970485Y-15410286D01*
X8970485Y-15410286D02*
X8970485Y-15362667D01*
X8970485Y-15362667D02*
X8980009Y-15324571D01*
X8980009Y-15324571D02*
X8989533Y-15305524D01*
X8989533Y-15305524D02*
X8999056Y-15296000D01*
X8999056Y-15296000D02*
X9018104Y-15286476D01*
X9256199Y-15286476D02*
X9218104Y-15286476D01*
X9218104Y-15286476D02*
X9199056Y-15296000D01*
X9199056Y-15296000D02*
X9189533Y-15305524D01*
X9189533Y-15305524D02*
X9170485Y-15334095D01*
X9170485Y-15334095D02*
X9160961Y-15372190D01*
X9160961Y-15372190D02*
X9160961Y-15448381D01*
X9160961Y-15448381D02*
X9170485Y-15467428D01*
X9170485Y-15467428D02*
X9180009Y-15476952D01*
X9180009Y-15476952D02*
X9199056Y-15486476D01*
X9199056Y-15486476D02*
X9237152Y-15486476D01*
X9237152Y-15486476D02*
X9256199Y-15476952D01*
X9256199Y-15476952D02*
X9265723Y-15467428D01*
X9265723Y-15467428D02*
X9275247Y-15448381D01*
X9275247Y-15448381D02*
X9275247Y-15400762D01*
X9275247Y-15400762D02*
X9265723Y-15381714D01*
X9265723Y-15381714D02*
X9256199Y-15372190D01*
X9256199Y-15372190D02*
X9237152Y-15362667D01*
X9237152Y-15362667D02*
X9199056Y-15362667D01*
X9199056Y-15362667D02*
X9180009Y-15372190D01*
X9180009Y-15372190D02*
X9170485Y-15381714D01*
X9170485Y-15381714D02*
X9160961Y-15400762D01*
X9480961Y-15486476D02*
X9480961Y-15286476D01*
X9566675Y-15486476D02*
X9566675Y-15381714D01*
X9566675Y-15381714D02*
X9557152Y-15362667D01*
X9557152Y-15362667D02*
X9538104Y-15353143D01*
X9538104Y-15353143D02*
X9509533Y-15353143D01*
X9509533Y-15353143D02*
X9490485Y-15362667D01*
X9490485Y-15362667D02*
X9480961Y-15372190D01*
X9690485Y-15486476D02*
X9671437Y-15476952D01*
X9671437Y-15476952D02*
X9661914Y-15467428D01*
X9661914Y-15467428D02*
X9652390Y-15448381D01*
X9652390Y-15448381D02*
X9652390Y-15391238D01*
X9652390Y-15391238D02*
X9661914Y-15372190D01*
X9661914Y-15372190D02*
X9671437Y-15362667D01*
X9671437Y-15362667D02*
X9690485Y-15353143D01*
X9690485Y-15353143D02*
X9719056Y-15353143D01*
X9719056Y-15353143D02*
X9738104Y-15362667D01*
X9738104Y-15362667D02*
X9747628Y-15372190D01*
X9747628Y-15372190D02*
X9757152Y-15391238D01*
X9757152Y-15391238D02*
X9757152Y-15448381D01*
X9757152Y-15448381D02*
X9747628Y-15467428D01*
X9747628Y-15467428D02*
X9738104Y-15476952D01*
X9738104Y-15476952D02*
X9719056Y-15486476D01*
X9719056Y-15486476D02*
X9690485Y-15486476D01*
X9871437Y-15486476D02*
X9852390Y-15476952D01*
X9852390Y-15476952D02*
X9842866Y-15457905D01*
X9842866Y-15457905D02*
X9842866Y-15286476D01*
X10023818Y-15476952D02*
X10004771Y-15486476D01*
X10004771Y-15486476D02*
X9966675Y-15486476D01*
X9966675Y-15486476D02*
X9947628Y-15476952D01*
X9947628Y-15476952D02*
X9938104Y-15457905D01*
X9938104Y-15457905D02*
X9938104Y-15381714D01*
X9938104Y-15381714D02*
X9947628Y-15362667D01*
X9947628Y-15362667D02*
X9966675Y-15353143D01*
X9966675Y-15353143D02*
X10004771Y-15353143D01*
X10004771Y-15353143D02*
X10023818Y-15362667D01*
X10023818Y-15362667D02*
X10033342Y-15381714D01*
X10033342Y-15381714D02*
X10033342Y-15400762D01*
X10033342Y-15400762D02*
X9938104Y-15419809D01*
X10109533Y-15476952D02*
X10128580Y-15486476D01*
X10128580Y-15486476D02*
X10166675Y-15486476D01*
X10166675Y-15486476D02*
X10185723Y-15476952D01*
X10185723Y-15476952D02*
X10195247Y-15457905D01*
X10195247Y-15457905D02*
X10195247Y-15448381D01*
X10195247Y-15448381D02*
X10185723Y-15429333D01*
X10185723Y-15429333D02*
X10166675Y-15419809D01*
X10166675Y-15419809D02*
X10138104Y-15419809D01*
X10138104Y-15419809D02*
X10119056Y-15410286D01*
X10119056Y-15410286D02*
X10109533Y-15391238D01*
X10109533Y-15391238D02*
X10109533Y-15381714D01*
X10109533Y-15381714D02*
X10119056Y-15362667D01*
X10119056Y-15362667D02*
X10138104Y-15353143D01*
X10138104Y-15353143D02*
X10166675Y-15353143D01*
X10166675Y-15353143D02*
X10185723Y-15362667D01*
X10261914Y-15562667D02*
X10271437Y-15553143D01*
X10271437Y-15553143D02*
X10290485Y-15524571D01*
X10290485Y-15524571D02*
X10300009Y-15505524D01*
X10300009Y-15505524D02*
X10309533Y-15476952D01*
X10309533Y-15476952D02*
X10319056Y-15429333D01*
X10319056Y-15429333D02*
X10319056Y-15391238D01*
X10319056Y-15391238D02*
X10309533Y-15343619D01*
X10309533Y-15343619D02*
X10300009Y-15315048D01*
X10300009Y-15315048D02*
X10290485Y-15296000D01*
X10290485Y-15296000D02*
X10271437Y-15267428D01*
X10271437Y-15267428D02*
X10261914Y-15257905D01*
D13*
X5248580Y-15677000D02*
G75*
G03*
X5248580Y-15677000I-25000J0D01*
G01*
D11*
X5534294Y-15550476D02*
X5553342Y-15550476D01*
X5553342Y-15550476D02*
X5572390Y-15560000D01*
X5572390Y-15560000D02*
X5581913Y-15569524D01*
X5581913Y-15569524D02*
X5591437Y-15588571D01*
X5591437Y-15588571D02*
X5600961Y-15626667D01*
X5600961Y-15626667D02*
X5600961Y-15674286D01*
X5600961Y-15674286D02*
X5591437Y-15712381D01*
X5591437Y-15712381D02*
X5581913Y-15731428D01*
X5581913Y-15731428D02*
X5572390Y-15740952D01*
X5572390Y-15740952D02*
X5553342Y-15750476D01*
X5553342Y-15750476D02*
X5534294Y-15750476D01*
X5534294Y-15750476D02*
X5515247Y-15740952D01*
X5515247Y-15740952D02*
X5505723Y-15731428D01*
X5505723Y-15731428D02*
X5496199Y-15712381D01*
X5496199Y-15712381D02*
X5486675Y-15674286D01*
X5486675Y-15674286D02*
X5486675Y-15626667D01*
X5486675Y-15626667D02*
X5496199Y-15588571D01*
X5496199Y-15588571D02*
X5505723Y-15569524D01*
X5505723Y-15569524D02*
X5515247Y-15560000D01*
X5515247Y-15560000D02*
X5534294Y-15550476D01*
X5686675Y-15731428D02*
X5696199Y-15740952D01*
X5696199Y-15740952D02*
X5686675Y-15750476D01*
X5686675Y-15750476D02*
X5677151Y-15740952D01*
X5677151Y-15740952D02*
X5686675Y-15731428D01*
X5686675Y-15731428D02*
X5686675Y-15750476D01*
X5877151Y-15550476D02*
X5781913Y-15550476D01*
X5781913Y-15550476D02*
X5772389Y-15645714D01*
X5772389Y-15645714D02*
X5781913Y-15636190D01*
X5781913Y-15636190D02*
X5800961Y-15626667D01*
X5800961Y-15626667D02*
X5848580Y-15626667D01*
X5848580Y-15626667D02*
X5867628Y-15636190D01*
X5867628Y-15636190D02*
X5877151Y-15645714D01*
X5877151Y-15645714D02*
X5886675Y-15664762D01*
X5886675Y-15664762D02*
X5886675Y-15712381D01*
X5886675Y-15712381D02*
X5877151Y-15731428D01*
X5877151Y-15731428D02*
X5867628Y-15740952D01*
X5867628Y-15740952D02*
X5848580Y-15750476D01*
X5848580Y-15750476D02*
X5800961Y-15750476D01*
X5800961Y-15750476D02*
X5781913Y-15740952D01*
X5781913Y-15740952D02*
X5772389Y-15731428D01*
X6010485Y-15550476D02*
X6029532Y-15550476D01*
X6029532Y-15550476D02*
X6048580Y-15560000D01*
X6048580Y-15560000D02*
X6058104Y-15569524D01*
X6058104Y-15569524D02*
X6067628Y-15588571D01*
X6067628Y-15588571D02*
X6077151Y-15626667D01*
X6077151Y-15626667D02*
X6077151Y-15674286D01*
X6077151Y-15674286D02*
X6067628Y-15712381D01*
X6067628Y-15712381D02*
X6058104Y-15731428D01*
X6058104Y-15731428D02*
X6048580Y-15740952D01*
X6048580Y-15740952D02*
X6029532Y-15750476D01*
X6029532Y-15750476D02*
X6010485Y-15750476D01*
X6010485Y-15750476D02*
X5991437Y-15740952D01*
X5991437Y-15740952D02*
X5981913Y-15731428D01*
X5981913Y-15731428D02*
X5972389Y-15712381D01*
X5972389Y-15712381D02*
X5962866Y-15674286D01*
X5962866Y-15674286D02*
X5962866Y-15626667D01*
X5962866Y-15626667D02*
X5972389Y-15588571D01*
X5972389Y-15588571D02*
X5981913Y-15569524D01*
X5981913Y-15569524D02*
X5991437Y-15560000D01*
X5991437Y-15560000D02*
X6010485Y-15550476D01*
X6200961Y-15550476D02*
X6220009Y-15550476D01*
X6220009Y-15550476D02*
X6239056Y-15560000D01*
X6239056Y-15560000D02*
X6248580Y-15569524D01*
X6248580Y-15569524D02*
X6258104Y-15588571D01*
X6258104Y-15588571D02*
X6267628Y-15626667D01*
X6267628Y-15626667D02*
X6267628Y-15674286D01*
X6267628Y-15674286D02*
X6258104Y-15712381D01*
X6258104Y-15712381D02*
X6248580Y-15731428D01*
X6248580Y-15731428D02*
X6239056Y-15740952D01*
X6239056Y-15740952D02*
X6220009Y-15750476D01*
X6220009Y-15750476D02*
X6200961Y-15750476D01*
X6200961Y-15750476D02*
X6181913Y-15740952D01*
X6181913Y-15740952D02*
X6172389Y-15731428D01*
X6172389Y-15731428D02*
X6162866Y-15712381D01*
X6162866Y-15712381D02*
X6153342Y-15674286D01*
X6153342Y-15674286D02*
X6153342Y-15626667D01*
X6153342Y-15626667D02*
X6162866Y-15588571D01*
X6162866Y-15588571D02*
X6172389Y-15569524D01*
X6172389Y-15569524D02*
X6181913Y-15560000D01*
X6181913Y-15560000D02*
X6200961Y-15550476D01*
X6353342Y-15750476D02*
X6353342Y-15617143D01*
X6353342Y-15636190D02*
X6362866Y-15626667D01*
X6362866Y-15626667D02*
X6381913Y-15617143D01*
X6381913Y-15617143D02*
X6410485Y-15617143D01*
X6410485Y-15617143D02*
X6429532Y-15626667D01*
X6429532Y-15626667D02*
X6439056Y-15645714D01*
X6439056Y-15645714D02*
X6439056Y-15750476D01*
X6439056Y-15645714D02*
X6448580Y-15626667D01*
X6448580Y-15626667D02*
X6467628Y-15617143D01*
X6467628Y-15617143D02*
X6496199Y-15617143D01*
X6496199Y-15617143D02*
X6515247Y-15626667D01*
X6515247Y-15626667D02*
X6524770Y-15645714D01*
X6524770Y-15645714D02*
X6524770Y-15750476D01*
X6620009Y-15750476D02*
X6620009Y-15617143D01*
X6620009Y-15636190D02*
X6629532Y-15626667D01*
X6629532Y-15626667D02*
X6648580Y-15617143D01*
X6648580Y-15617143D02*
X6677151Y-15617143D01*
X6677151Y-15617143D02*
X6696199Y-15626667D01*
X6696199Y-15626667D02*
X6705723Y-15645714D01*
X6705723Y-15645714D02*
X6705723Y-15750476D01*
X6705723Y-15645714D02*
X6715247Y-15626667D01*
X6715247Y-15626667D02*
X6734294Y-15617143D01*
X6734294Y-15617143D02*
X6762866Y-15617143D01*
X6762866Y-15617143D02*
X6781913Y-15626667D01*
X6781913Y-15626667D02*
X6791437Y-15645714D01*
X6791437Y-15645714D02*
X6791437Y-15750476D01*
X7149532Y-15540952D02*
X6978104Y-15798095D01*
X7374294Y-15550476D02*
X7393342Y-15550476D01*
X7393342Y-15550476D02*
X7412390Y-15560000D01*
X7412390Y-15560000D02*
X7421913Y-15569524D01*
X7421913Y-15569524D02*
X7431437Y-15588571D01*
X7431437Y-15588571D02*
X7440961Y-15626667D01*
X7440961Y-15626667D02*
X7440961Y-15674286D01*
X7440961Y-15674286D02*
X7431437Y-15712381D01*
X7431437Y-15712381D02*
X7421913Y-15731428D01*
X7421913Y-15731428D02*
X7412390Y-15740952D01*
X7412390Y-15740952D02*
X7393342Y-15750476D01*
X7393342Y-15750476D02*
X7374294Y-15750476D01*
X7374294Y-15750476D02*
X7355247Y-15740952D01*
X7355247Y-15740952D02*
X7345723Y-15731428D01*
X7345723Y-15731428D02*
X7336199Y-15712381D01*
X7336199Y-15712381D02*
X7326675Y-15674286D01*
X7326675Y-15674286D02*
X7326675Y-15626667D01*
X7326675Y-15626667D02*
X7336199Y-15588571D01*
X7336199Y-15588571D02*
X7345723Y-15569524D01*
X7345723Y-15569524D02*
X7355247Y-15560000D01*
X7355247Y-15560000D02*
X7374294Y-15550476D01*
X7526675Y-15731428D02*
X7536199Y-15740952D01*
X7536199Y-15740952D02*
X7526675Y-15750476D01*
X7526675Y-15750476D02*
X7517151Y-15740952D01*
X7517151Y-15740952D02*
X7526675Y-15731428D01*
X7526675Y-15731428D02*
X7526675Y-15750476D01*
X7660009Y-15550476D02*
X7679056Y-15550476D01*
X7679056Y-15550476D02*
X7698104Y-15560000D01*
X7698104Y-15560000D02*
X7707628Y-15569524D01*
X7707628Y-15569524D02*
X7717151Y-15588571D01*
X7717151Y-15588571D02*
X7726675Y-15626667D01*
X7726675Y-15626667D02*
X7726675Y-15674286D01*
X7726675Y-15674286D02*
X7717151Y-15712381D01*
X7717151Y-15712381D02*
X7707628Y-15731428D01*
X7707628Y-15731428D02*
X7698104Y-15740952D01*
X7698104Y-15740952D02*
X7679056Y-15750476D01*
X7679056Y-15750476D02*
X7660009Y-15750476D01*
X7660009Y-15750476D02*
X7640961Y-15740952D01*
X7640961Y-15740952D02*
X7631437Y-15731428D01*
X7631437Y-15731428D02*
X7621913Y-15712381D01*
X7621913Y-15712381D02*
X7612390Y-15674286D01*
X7612390Y-15674286D02*
X7612390Y-15626667D01*
X7612390Y-15626667D02*
X7621913Y-15588571D01*
X7621913Y-15588571D02*
X7631437Y-15569524D01*
X7631437Y-15569524D02*
X7640961Y-15560000D01*
X7640961Y-15560000D02*
X7660009Y-15550476D01*
X7917151Y-15750476D02*
X7802866Y-15750476D01*
X7860009Y-15750476D02*
X7860009Y-15550476D01*
X7860009Y-15550476D02*
X7840961Y-15579048D01*
X7840961Y-15579048D02*
X7821913Y-15598095D01*
X7821913Y-15598095D02*
X7802866Y-15607619D01*
X8012390Y-15750476D02*
X8050485Y-15750476D01*
X8050485Y-15750476D02*
X8069532Y-15740952D01*
X8069532Y-15740952D02*
X8079056Y-15731428D01*
X8079056Y-15731428D02*
X8098104Y-15702857D01*
X8098104Y-15702857D02*
X8107628Y-15664762D01*
X8107628Y-15664762D02*
X8107628Y-15588571D01*
X8107628Y-15588571D02*
X8098104Y-15569524D01*
X8098104Y-15569524D02*
X8088580Y-15560000D01*
X8088580Y-15560000D02*
X8069532Y-15550476D01*
X8069532Y-15550476D02*
X8031437Y-15550476D01*
X8031437Y-15550476D02*
X8012390Y-15560000D01*
X8012390Y-15560000D02*
X8002866Y-15569524D01*
X8002866Y-15569524D02*
X7993342Y-15588571D01*
X7993342Y-15588571D02*
X7993342Y-15636190D01*
X7993342Y-15636190D02*
X8002866Y-15655238D01*
X8002866Y-15655238D02*
X8012390Y-15664762D01*
X8012390Y-15664762D02*
X8031437Y-15674286D01*
X8031437Y-15674286D02*
X8069532Y-15674286D01*
X8069532Y-15674286D02*
X8088580Y-15664762D01*
X8088580Y-15664762D02*
X8098104Y-15655238D01*
X8098104Y-15655238D02*
X8107628Y-15636190D01*
X8174294Y-15550476D02*
X8307628Y-15550476D01*
X8307628Y-15550476D02*
X8221913Y-15750476D01*
X8374294Y-15550476D02*
X8374294Y-15588571D01*
X8450485Y-15550476D02*
X8450485Y-15588571D01*
X8713342Y-15826667D02*
X8703818Y-15817143D01*
X8703818Y-15817143D02*
X8684771Y-15788571D01*
X8684771Y-15788571D02*
X8675247Y-15769524D01*
X8675247Y-15769524D02*
X8665723Y-15740952D01*
X8665723Y-15740952D02*
X8656199Y-15693333D01*
X8656199Y-15693333D02*
X8656199Y-15655238D01*
X8656199Y-15655238D02*
X8665723Y-15607619D01*
X8665723Y-15607619D02*
X8675247Y-15579048D01*
X8675247Y-15579048D02*
X8684771Y-15560000D01*
X8684771Y-15560000D02*
X8703818Y-15531428D01*
X8703818Y-15531428D02*
X8713342Y-15521905D01*
X8875247Y-15617143D02*
X8875247Y-15750476D01*
X8827628Y-15540952D02*
X8780009Y-15683809D01*
X8780009Y-15683809D02*
X8903818Y-15683809D01*
X9100009Y-15750476D02*
X9100009Y-15550476D01*
X9185723Y-15750476D02*
X9185723Y-15645714D01*
X9185723Y-15645714D02*
X9176199Y-15626667D01*
X9176199Y-15626667D02*
X9157152Y-15617143D01*
X9157152Y-15617143D02*
X9128580Y-15617143D01*
X9128580Y-15617143D02*
X9109533Y-15626667D01*
X9109533Y-15626667D02*
X9100009Y-15636190D01*
X9309533Y-15750476D02*
X9290485Y-15740952D01*
X9290485Y-15740952D02*
X9280961Y-15731428D01*
X9280961Y-15731428D02*
X9271437Y-15712381D01*
X9271437Y-15712381D02*
X9271437Y-15655238D01*
X9271437Y-15655238D02*
X9280961Y-15636190D01*
X9280961Y-15636190D02*
X9290485Y-15626667D01*
X9290485Y-15626667D02*
X9309533Y-15617143D01*
X9309533Y-15617143D02*
X9338104Y-15617143D01*
X9338104Y-15617143D02*
X9357152Y-15626667D01*
X9357152Y-15626667D02*
X9366675Y-15636190D01*
X9366675Y-15636190D02*
X9376199Y-15655238D01*
X9376199Y-15655238D02*
X9376199Y-15712381D01*
X9376199Y-15712381D02*
X9366675Y-15731428D01*
X9366675Y-15731428D02*
X9357152Y-15740952D01*
X9357152Y-15740952D02*
X9338104Y-15750476D01*
X9338104Y-15750476D02*
X9309533Y-15750476D01*
X9490485Y-15750476D02*
X9471437Y-15740952D01*
X9471437Y-15740952D02*
X9461914Y-15721905D01*
X9461914Y-15721905D02*
X9461914Y-15550476D01*
X9642866Y-15740952D02*
X9623818Y-15750476D01*
X9623818Y-15750476D02*
X9585723Y-15750476D01*
X9585723Y-15750476D02*
X9566675Y-15740952D01*
X9566675Y-15740952D02*
X9557152Y-15721905D01*
X9557152Y-15721905D02*
X9557152Y-15645714D01*
X9557152Y-15645714D02*
X9566675Y-15626667D01*
X9566675Y-15626667D02*
X9585723Y-15617143D01*
X9585723Y-15617143D02*
X9623818Y-15617143D01*
X9623818Y-15617143D02*
X9642866Y-15626667D01*
X9642866Y-15626667D02*
X9652390Y-15645714D01*
X9652390Y-15645714D02*
X9652390Y-15664762D01*
X9652390Y-15664762D02*
X9557152Y-15683809D01*
X9728580Y-15740952D02*
X9747628Y-15750476D01*
X9747628Y-15750476D02*
X9785723Y-15750476D01*
X9785723Y-15750476D02*
X9804771Y-15740952D01*
X9804771Y-15740952D02*
X9814295Y-15721905D01*
X9814295Y-15721905D02*
X9814295Y-15712381D01*
X9814295Y-15712381D02*
X9804771Y-15693333D01*
X9804771Y-15693333D02*
X9785723Y-15683809D01*
X9785723Y-15683809D02*
X9757152Y-15683809D01*
X9757152Y-15683809D02*
X9738104Y-15674286D01*
X9738104Y-15674286D02*
X9728580Y-15655238D01*
X9728580Y-15655238D02*
X9728580Y-15645714D01*
X9728580Y-15645714D02*
X9738104Y-15626667D01*
X9738104Y-15626667D02*
X9757152Y-15617143D01*
X9757152Y-15617143D02*
X9785723Y-15617143D01*
X9785723Y-15617143D02*
X9804771Y-15626667D01*
X9880961Y-15826667D02*
X9890485Y-15817143D01*
X9890485Y-15817143D02*
X9909533Y-15788571D01*
X9909533Y-15788571D02*
X9919056Y-15769524D01*
X9919056Y-15769524D02*
X9928580Y-15740952D01*
X9928580Y-15740952D02*
X9938104Y-15693333D01*
X9938104Y-15693333D02*
X9938104Y-15655238D01*
X9938104Y-15655238D02*
X9928580Y-15607619D01*
X9928580Y-15607619D02*
X9919056Y-15579048D01*
X9919056Y-15579048D02*
X9909533Y-15560000D01*
X9909533Y-15560000D02*
X9890485Y-15531428D01*
X9890485Y-15531428D02*
X9880961Y-15521905D01*
D14*
X5208580Y-15901000D02*
X5208580Y-15981000D01*
X5168580Y-15941000D02*
X5248580Y-15941000D01*
D11*
X5534294Y-15814476D02*
X5553342Y-15814476D01*
X5553342Y-15814476D02*
X5572390Y-15824000D01*
X5572390Y-15824000D02*
X5581913Y-15833524D01*
X5581913Y-15833524D02*
X5591437Y-15852571D01*
X5591437Y-15852571D02*
X5600961Y-15890667D01*
X5600961Y-15890667D02*
X5600961Y-15938286D01*
X5600961Y-15938286D02*
X5591437Y-15976381D01*
X5591437Y-15976381D02*
X5581913Y-15995428D01*
X5581913Y-15995428D02*
X5572390Y-16004952D01*
X5572390Y-16004952D02*
X5553342Y-16014476D01*
X5553342Y-16014476D02*
X5534294Y-16014476D01*
X5534294Y-16014476D02*
X5515247Y-16004952D01*
X5515247Y-16004952D02*
X5505723Y-15995428D01*
X5505723Y-15995428D02*
X5496199Y-15976381D01*
X5496199Y-15976381D02*
X5486675Y-15938286D01*
X5486675Y-15938286D02*
X5486675Y-15890667D01*
X5486675Y-15890667D02*
X5496199Y-15852571D01*
X5496199Y-15852571D02*
X5505723Y-15833524D01*
X5505723Y-15833524D02*
X5515247Y-15824000D01*
X5515247Y-15824000D02*
X5534294Y-15814476D01*
X5686675Y-15995428D02*
X5696199Y-16004952D01*
X5696199Y-16004952D02*
X5686675Y-16014476D01*
X5686675Y-16014476D02*
X5677151Y-16004952D01*
X5677151Y-16004952D02*
X5686675Y-15995428D01*
X5686675Y-15995428D02*
X5686675Y-16014476D01*
X5810485Y-15900190D02*
X5791437Y-15890667D01*
X5791437Y-15890667D02*
X5781913Y-15881143D01*
X5781913Y-15881143D02*
X5772389Y-15862095D01*
X5772389Y-15862095D02*
X5772389Y-15852571D01*
X5772389Y-15852571D02*
X5781913Y-15833524D01*
X5781913Y-15833524D02*
X5791437Y-15824000D01*
X5791437Y-15824000D02*
X5810485Y-15814476D01*
X5810485Y-15814476D02*
X5848580Y-15814476D01*
X5848580Y-15814476D02*
X5867628Y-15824000D01*
X5867628Y-15824000D02*
X5877151Y-15833524D01*
X5877151Y-15833524D02*
X5886675Y-15852571D01*
X5886675Y-15852571D02*
X5886675Y-15862095D01*
X5886675Y-15862095D02*
X5877151Y-15881143D01*
X5877151Y-15881143D02*
X5867628Y-15890667D01*
X5867628Y-15890667D02*
X5848580Y-15900190D01*
X5848580Y-15900190D02*
X5810485Y-15900190D01*
X5810485Y-15900190D02*
X5791437Y-15909714D01*
X5791437Y-15909714D02*
X5781913Y-15919238D01*
X5781913Y-15919238D02*
X5772389Y-15938286D01*
X5772389Y-15938286D02*
X5772389Y-15976381D01*
X5772389Y-15976381D02*
X5781913Y-15995428D01*
X5781913Y-15995428D02*
X5791437Y-16004952D01*
X5791437Y-16004952D02*
X5810485Y-16014476D01*
X5810485Y-16014476D02*
X5848580Y-16014476D01*
X5848580Y-16014476D02*
X5867628Y-16004952D01*
X5867628Y-16004952D02*
X5877151Y-15995428D01*
X5877151Y-15995428D02*
X5886675Y-15976381D01*
X5886675Y-15976381D02*
X5886675Y-15938286D01*
X5886675Y-15938286D02*
X5877151Y-15919238D01*
X5877151Y-15919238D02*
X5867628Y-15909714D01*
X5867628Y-15909714D02*
X5848580Y-15900190D01*
X6010485Y-15814476D02*
X6029532Y-15814476D01*
X6029532Y-15814476D02*
X6048580Y-15824000D01*
X6048580Y-15824000D02*
X6058104Y-15833524D01*
X6058104Y-15833524D02*
X6067628Y-15852571D01*
X6067628Y-15852571D02*
X6077151Y-15890667D01*
X6077151Y-15890667D02*
X6077151Y-15938286D01*
X6077151Y-15938286D02*
X6067628Y-15976381D01*
X6067628Y-15976381D02*
X6058104Y-15995428D01*
X6058104Y-15995428D02*
X6048580Y-16004952D01*
X6048580Y-16004952D02*
X6029532Y-16014476D01*
X6029532Y-16014476D02*
X6010485Y-16014476D01*
X6010485Y-16014476D02*
X5991437Y-16004952D01*
X5991437Y-16004952D02*
X5981913Y-15995428D01*
X5981913Y-15995428D02*
X5972389Y-15976381D01*
X5972389Y-15976381D02*
X5962866Y-15938286D01*
X5962866Y-15938286D02*
X5962866Y-15890667D01*
X5962866Y-15890667D02*
X5972389Y-15852571D01*
X5972389Y-15852571D02*
X5981913Y-15833524D01*
X5981913Y-15833524D02*
X5991437Y-15824000D01*
X5991437Y-15824000D02*
X6010485Y-15814476D01*
X6200961Y-15814476D02*
X6220009Y-15814476D01*
X6220009Y-15814476D02*
X6239056Y-15824000D01*
X6239056Y-15824000D02*
X6248580Y-15833524D01*
X6248580Y-15833524D02*
X6258104Y-15852571D01*
X6258104Y-15852571D02*
X6267628Y-15890667D01*
X6267628Y-15890667D02*
X6267628Y-15938286D01*
X6267628Y-15938286D02*
X6258104Y-15976381D01*
X6258104Y-15976381D02*
X6248580Y-15995428D01*
X6248580Y-15995428D02*
X6239056Y-16004952D01*
X6239056Y-16004952D02*
X6220009Y-16014476D01*
X6220009Y-16014476D02*
X6200961Y-16014476D01*
X6200961Y-16014476D02*
X6181913Y-16004952D01*
X6181913Y-16004952D02*
X6172389Y-15995428D01*
X6172389Y-15995428D02*
X6162866Y-15976381D01*
X6162866Y-15976381D02*
X6153342Y-15938286D01*
X6153342Y-15938286D02*
X6153342Y-15890667D01*
X6153342Y-15890667D02*
X6162866Y-15852571D01*
X6162866Y-15852571D02*
X6172389Y-15833524D01*
X6172389Y-15833524D02*
X6181913Y-15824000D01*
X6181913Y-15824000D02*
X6200961Y-15814476D01*
X6353342Y-16014476D02*
X6353342Y-15881143D01*
X6353342Y-15900190D02*
X6362866Y-15890667D01*
X6362866Y-15890667D02*
X6381913Y-15881143D01*
X6381913Y-15881143D02*
X6410485Y-15881143D01*
X6410485Y-15881143D02*
X6429532Y-15890667D01*
X6429532Y-15890667D02*
X6439056Y-15909714D01*
X6439056Y-15909714D02*
X6439056Y-16014476D01*
X6439056Y-15909714D02*
X6448580Y-15890667D01*
X6448580Y-15890667D02*
X6467628Y-15881143D01*
X6467628Y-15881143D02*
X6496199Y-15881143D01*
X6496199Y-15881143D02*
X6515247Y-15890667D01*
X6515247Y-15890667D02*
X6524770Y-15909714D01*
X6524770Y-15909714D02*
X6524770Y-16014476D01*
X6620009Y-16014476D02*
X6620009Y-15881143D01*
X6620009Y-15900190D02*
X6629532Y-15890667D01*
X6629532Y-15890667D02*
X6648580Y-15881143D01*
X6648580Y-15881143D02*
X6677151Y-15881143D01*
X6677151Y-15881143D02*
X6696199Y-15890667D01*
X6696199Y-15890667D02*
X6705723Y-15909714D01*
X6705723Y-15909714D02*
X6705723Y-16014476D01*
X6705723Y-15909714D02*
X6715247Y-15890667D01*
X6715247Y-15890667D02*
X6734294Y-15881143D01*
X6734294Y-15881143D02*
X6762866Y-15881143D01*
X6762866Y-15881143D02*
X6781913Y-15890667D01*
X6781913Y-15890667D02*
X6791437Y-15909714D01*
X6791437Y-15909714D02*
X6791437Y-16014476D01*
X7149532Y-15804952D02*
X6978104Y-16062095D01*
X7374294Y-15814476D02*
X7393342Y-15814476D01*
X7393342Y-15814476D02*
X7412390Y-15824000D01*
X7412390Y-15824000D02*
X7421913Y-15833524D01*
X7421913Y-15833524D02*
X7431437Y-15852571D01*
X7431437Y-15852571D02*
X7440961Y-15890667D01*
X7440961Y-15890667D02*
X7440961Y-15938286D01*
X7440961Y-15938286D02*
X7431437Y-15976381D01*
X7431437Y-15976381D02*
X7421913Y-15995428D01*
X7421913Y-15995428D02*
X7412390Y-16004952D01*
X7412390Y-16004952D02*
X7393342Y-16014476D01*
X7393342Y-16014476D02*
X7374294Y-16014476D01*
X7374294Y-16014476D02*
X7355247Y-16004952D01*
X7355247Y-16004952D02*
X7345723Y-15995428D01*
X7345723Y-15995428D02*
X7336199Y-15976381D01*
X7336199Y-15976381D02*
X7326675Y-15938286D01*
X7326675Y-15938286D02*
X7326675Y-15890667D01*
X7326675Y-15890667D02*
X7336199Y-15852571D01*
X7336199Y-15852571D02*
X7345723Y-15833524D01*
X7345723Y-15833524D02*
X7355247Y-15824000D01*
X7355247Y-15824000D02*
X7374294Y-15814476D01*
X7526675Y-15995428D02*
X7536199Y-16004952D01*
X7536199Y-16004952D02*
X7526675Y-16014476D01*
X7526675Y-16014476D02*
X7517151Y-16004952D01*
X7517151Y-16004952D02*
X7526675Y-15995428D01*
X7526675Y-15995428D02*
X7526675Y-16014476D01*
X7660009Y-15814476D02*
X7679056Y-15814476D01*
X7679056Y-15814476D02*
X7698104Y-15824000D01*
X7698104Y-15824000D02*
X7707628Y-15833524D01*
X7707628Y-15833524D02*
X7717151Y-15852571D01*
X7717151Y-15852571D02*
X7726675Y-15890667D01*
X7726675Y-15890667D02*
X7726675Y-15938286D01*
X7726675Y-15938286D02*
X7717151Y-15976381D01*
X7717151Y-15976381D02*
X7707628Y-15995428D01*
X7707628Y-15995428D02*
X7698104Y-16004952D01*
X7698104Y-16004952D02*
X7679056Y-16014476D01*
X7679056Y-16014476D02*
X7660009Y-16014476D01*
X7660009Y-16014476D02*
X7640961Y-16004952D01*
X7640961Y-16004952D02*
X7631437Y-15995428D01*
X7631437Y-15995428D02*
X7621913Y-15976381D01*
X7621913Y-15976381D02*
X7612390Y-15938286D01*
X7612390Y-15938286D02*
X7612390Y-15890667D01*
X7612390Y-15890667D02*
X7621913Y-15852571D01*
X7621913Y-15852571D02*
X7631437Y-15833524D01*
X7631437Y-15833524D02*
X7640961Y-15824000D01*
X7640961Y-15824000D02*
X7660009Y-15814476D01*
X7793342Y-15814476D02*
X7917151Y-15814476D01*
X7917151Y-15814476D02*
X7850485Y-15890667D01*
X7850485Y-15890667D02*
X7879056Y-15890667D01*
X7879056Y-15890667D02*
X7898104Y-15900190D01*
X7898104Y-15900190D02*
X7907628Y-15909714D01*
X7907628Y-15909714D02*
X7917151Y-15928762D01*
X7917151Y-15928762D02*
X7917151Y-15976381D01*
X7917151Y-15976381D02*
X7907628Y-15995428D01*
X7907628Y-15995428D02*
X7898104Y-16004952D01*
X7898104Y-16004952D02*
X7879056Y-16014476D01*
X7879056Y-16014476D02*
X7821913Y-16014476D01*
X7821913Y-16014476D02*
X7802866Y-16004952D01*
X7802866Y-16004952D02*
X7793342Y-15995428D01*
X8107628Y-16014476D02*
X7993342Y-16014476D01*
X8050485Y-16014476D02*
X8050485Y-15814476D01*
X8050485Y-15814476D02*
X8031437Y-15843048D01*
X8031437Y-15843048D02*
X8012390Y-15862095D01*
X8012390Y-15862095D02*
X7993342Y-15871619D01*
X8288580Y-15814476D02*
X8193342Y-15814476D01*
X8193342Y-15814476D02*
X8183818Y-15909714D01*
X8183818Y-15909714D02*
X8193342Y-15900190D01*
X8193342Y-15900190D02*
X8212390Y-15890667D01*
X8212390Y-15890667D02*
X8260009Y-15890667D01*
X8260009Y-15890667D02*
X8279056Y-15900190D01*
X8279056Y-15900190D02*
X8288580Y-15909714D01*
X8288580Y-15909714D02*
X8298104Y-15928762D01*
X8298104Y-15928762D02*
X8298104Y-15976381D01*
X8298104Y-15976381D02*
X8288580Y-15995428D01*
X8288580Y-15995428D02*
X8279056Y-16004952D01*
X8279056Y-16004952D02*
X8260009Y-16014476D01*
X8260009Y-16014476D02*
X8212390Y-16014476D01*
X8212390Y-16014476D02*
X8193342Y-16004952D01*
X8193342Y-16004952D02*
X8183818Y-15995428D01*
X8374294Y-15814476D02*
X8374294Y-15852571D01*
X8450485Y-15814476D02*
X8450485Y-15852571D01*
X8713342Y-16090667D02*
X8703818Y-16081143D01*
X8703818Y-16081143D02*
X8684771Y-16052571D01*
X8684771Y-16052571D02*
X8675247Y-16033524D01*
X8675247Y-16033524D02*
X8665723Y-16004952D01*
X8665723Y-16004952D02*
X8656199Y-15957333D01*
X8656199Y-15957333D02*
X8656199Y-15919238D01*
X8656199Y-15919238D02*
X8665723Y-15871619D01*
X8665723Y-15871619D02*
X8675247Y-15843048D01*
X8675247Y-15843048D02*
X8684771Y-15824000D01*
X8684771Y-15824000D02*
X8703818Y-15795428D01*
X8703818Y-15795428D02*
X8713342Y-15785905D01*
X8894294Y-16014476D02*
X8780009Y-16014476D01*
X8837152Y-16014476D02*
X8837152Y-15814476D01*
X8837152Y-15814476D02*
X8818104Y-15843048D01*
X8818104Y-15843048D02*
X8799056Y-15862095D01*
X8799056Y-15862095D02*
X8780009Y-15871619D01*
X8960961Y-15814476D02*
X9094294Y-15814476D01*
X9094294Y-15814476D02*
X9008580Y-16014476D01*
X9199056Y-15900190D02*
X9180009Y-15890667D01*
X9180009Y-15890667D02*
X9170485Y-15881143D01*
X9170485Y-15881143D02*
X9160961Y-15862095D01*
X9160961Y-15862095D02*
X9160961Y-15852571D01*
X9160961Y-15852571D02*
X9170485Y-15833524D01*
X9170485Y-15833524D02*
X9180009Y-15824000D01*
X9180009Y-15824000D02*
X9199056Y-15814476D01*
X9199056Y-15814476D02*
X9237152Y-15814476D01*
X9237152Y-15814476D02*
X9256199Y-15824000D01*
X9256199Y-15824000D02*
X9265723Y-15833524D01*
X9265723Y-15833524D02*
X9275247Y-15852571D01*
X9275247Y-15852571D02*
X9275247Y-15862095D01*
X9275247Y-15862095D02*
X9265723Y-15881143D01*
X9265723Y-15881143D02*
X9256199Y-15890667D01*
X9256199Y-15890667D02*
X9237152Y-15900190D01*
X9237152Y-15900190D02*
X9199056Y-15900190D01*
X9199056Y-15900190D02*
X9180009Y-15909714D01*
X9180009Y-15909714D02*
X9170485Y-15919238D01*
X9170485Y-15919238D02*
X9160961Y-15938286D01*
X9160961Y-15938286D02*
X9160961Y-15976381D01*
X9160961Y-15976381D02*
X9170485Y-15995428D01*
X9170485Y-15995428D02*
X9180009Y-16004952D01*
X9180009Y-16004952D02*
X9199056Y-16014476D01*
X9199056Y-16014476D02*
X9237152Y-16014476D01*
X9237152Y-16014476D02*
X9256199Y-16004952D01*
X9256199Y-16004952D02*
X9265723Y-15995428D01*
X9265723Y-15995428D02*
X9275247Y-15976381D01*
X9275247Y-15976381D02*
X9275247Y-15938286D01*
X9275247Y-15938286D02*
X9265723Y-15919238D01*
X9265723Y-15919238D02*
X9256199Y-15909714D01*
X9256199Y-15909714D02*
X9237152Y-15900190D01*
X9480961Y-16014476D02*
X9480961Y-15814476D01*
X9566675Y-16014476D02*
X9566675Y-15909714D01*
X9566675Y-15909714D02*
X9557152Y-15890667D01*
X9557152Y-15890667D02*
X9538104Y-15881143D01*
X9538104Y-15881143D02*
X9509533Y-15881143D01*
X9509533Y-15881143D02*
X9490485Y-15890667D01*
X9490485Y-15890667D02*
X9480961Y-15900190D01*
X9690485Y-16014476D02*
X9671437Y-16004952D01*
X9671437Y-16004952D02*
X9661914Y-15995428D01*
X9661914Y-15995428D02*
X9652390Y-15976381D01*
X9652390Y-15976381D02*
X9652390Y-15919238D01*
X9652390Y-15919238D02*
X9661914Y-15900190D01*
X9661914Y-15900190D02*
X9671437Y-15890667D01*
X9671437Y-15890667D02*
X9690485Y-15881143D01*
X9690485Y-15881143D02*
X9719056Y-15881143D01*
X9719056Y-15881143D02*
X9738104Y-15890667D01*
X9738104Y-15890667D02*
X9747628Y-15900190D01*
X9747628Y-15900190D02*
X9757152Y-15919238D01*
X9757152Y-15919238D02*
X9757152Y-15976381D01*
X9757152Y-15976381D02*
X9747628Y-15995428D01*
X9747628Y-15995428D02*
X9738104Y-16004952D01*
X9738104Y-16004952D02*
X9719056Y-16014476D01*
X9719056Y-16014476D02*
X9690485Y-16014476D01*
X9871437Y-16014476D02*
X9852390Y-16004952D01*
X9852390Y-16004952D02*
X9842866Y-15985905D01*
X9842866Y-15985905D02*
X9842866Y-15814476D01*
X10023818Y-16004952D02*
X10004771Y-16014476D01*
X10004771Y-16014476D02*
X9966675Y-16014476D01*
X9966675Y-16014476D02*
X9947628Y-16004952D01*
X9947628Y-16004952D02*
X9938104Y-15985905D01*
X9938104Y-15985905D02*
X9938104Y-15909714D01*
X9938104Y-15909714D02*
X9947628Y-15890667D01*
X9947628Y-15890667D02*
X9966675Y-15881143D01*
X9966675Y-15881143D02*
X10004771Y-15881143D01*
X10004771Y-15881143D02*
X10023818Y-15890667D01*
X10023818Y-15890667D02*
X10033342Y-15909714D01*
X10033342Y-15909714D02*
X10033342Y-15928762D01*
X10033342Y-15928762D02*
X9938104Y-15947809D01*
X10109533Y-16004952D02*
X10128580Y-16014476D01*
X10128580Y-16014476D02*
X10166675Y-16014476D01*
X10166675Y-16014476D02*
X10185723Y-16004952D01*
X10185723Y-16004952D02*
X10195247Y-15985905D01*
X10195247Y-15985905D02*
X10195247Y-15976381D01*
X10195247Y-15976381D02*
X10185723Y-15957333D01*
X10185723Y-15957333D02*
X10166675Y-15947809D01*
X10166675Y-15947809D02*
X10138104Y-15947809D01*
X10138104Y-15947809D02*
X10119056Y-15938286D01*
X10119056Y-15938286D02*
X10109533Y-15919238D01*
X10109533Y-15919238D02*
X10109533Y-15909714D01*
X10109533Y-15909714D02*
X10119056Y-15890667D01*
X10119056Y-15890667D02*
X10138104Y-15881143D01*
X10138104Y-15881143D02*
X10166675Y-15881143D01*
X10166675Y-15881143D02*
X10185723Y-15890667D01*
X10261914Y-16090667D02*
X10271437Y-16081143D01*
X10271437Y-16081143D02*
X10290485Y-16052571D01*
X10290485Y-16052571D02*
X10300009Y-16033524D01*
X10300009Y-16033524D02*
X10309533Y-16004952D01*
X10309533Y-16004952D02*
X10319056Y-15957333D01*
X10319056Y-15957333D02*
X10319056Y-15919238D01*
X10319056Y-15919238D02*
X10309533Y-15871619D01*
X10309533Y-15871619D02*
X10300009Y-15843048D01*
X10300009Y-15843048D02*
X10290485Y-15824000D01*
X10290485Y-15824000D02*
X10271437Y-15795428D01*
X10271437Y-15795428D02*
X10261914Y-15785905D01*
M02*
