  0
SECTION
  2
HEADER
  9
$ANGBASE
  50
0.0
  9
$ANGDIR
  70
1
  9
$MEASUREMENT
  70
0
  0
ENDSEC
  0
SECTION
  2
TABLES
  0
TABLE
  2
LTYPE
  70
4
  0
LTYPE
  5
40F
  2
CONTINUOUS
  70
0
  3
Solid line
  72
65
  73
0
  40
0.0
  0
LTYPE
  5
410
  2
DASHDOT
 70
0
  3
Dash Dot ____ _ ____ _
 72
65
 73
4
 40
2.0
 49
1.25
 49
-0.25
 49
0.25
 49
-0.25
  0
LTYPE
  5
411
  2
DASHED
 70
0
  3
Dashed __ __ __ __ __
 72
65
 73
2
 40
0.75
 49
0.5
 49
-0.25
  0
LTYPE
  5
43B
  2
DOTTED
 70
0
  3
Dotted .  .  .  .
 72
65
 73
2
 40
0.2
 49
0.0
 49
-0.2
  0
ENDTAB
  0
TABLE
  2
STYLE
  70
4
  0
STYLE
  2
KICAD
  70
0
  40
0
  41
1
  42
1
  50
0
  71
0
  3
isocp.shx
  0
STYLE
  2
KICADB
  70
0
  40
0
  41
1
  42
1
  50
0
  71
0
  3
isocp.shx
  0
STYLE
  2
KICADI
  70
0
  40
0
  41
1
  42
1
  50
15
  71
0
  3
isocp.shx
  0
STYLE
  2
KICADBI
  70
0
  40
0
  41
1
  42
1
  50
15
  71
0
  3
isocp.shx
  0
ENDTAB
  0
TABLE
  2
LAYER
  70
1
  0
LAYER
  2
BLACK
  70
0
  62
7
  6
CONTINUOUS
  0
ENDTAB
  0
ENDSEC
  0
SECTION
  2
ENTITIES
0
LINE
8
BLACK
6
CONTINUOUS
10
6.00539
20
-1.87578
11
6.00535
21
-4.06319
0
LINE
8
BLACK
6
CONTINUOUS
10
2.2653
20
-4.19866
11
2.26531
21
-4.3365
0
LINE
8
BLACK
6
CONTINUOUS
10
5.81032
20
-4.06319
11
6.00535
21
-4.06319
0
LINE
8
BLACK
6
CONTINUOUS
10
5.94817
20
-4.4371
11
6.00546
21
-4.437
0
LINE
8
BLACK
6
CONTINUOUS
10
5.81038
20
-4.20092
11
5.81032
21
-4.06319
0
LINE
8
BLACK
6
CONTINUOUS
10
2.06841
20
-1.87578
11
6.00539
21
-1.87578
0
CIRCLE
8
BLACK
10
5.6677
20
-1.94563
40
0.0630551
0
LINE
8
BLACK
6
CONTINUOUS
10
6.00537
20
-5.24307
11
6.00546
21
-4.71061
0
LINE
8
BLACK
6
CONTINUOUS
10
6.00546
20
-4.71061
11
6.00546
21
-4.437
0
LINE
8
BLACK
6
CONTINUOUS
10
2.06843
20
-4.57257
11
2.12751
21
-4.57268
0
LINE
8
BLACK
6
CONTINUOUS
10
2.12754
20
-4.33646
11
2.26531
21
-4.3365
0
CIRCLE
8
BLACK
10
4.2421
20
-2.79324
40
0.075
0
LINE
8
BLACK
6
CONTINUOUS
10
2.12751
20
-4.57268
11
2.12754
21
-4.33646
0
CIRCLE
8
BLACK
10
4.03687
20
-3.15513
40
0.140831
0
LINE
8
BLACK
6
CONTINUOUS
10
5.81038
20
-4.20092
11
5.94814
21
-4.20089
0
LINE
8
BLACK
6
CONTINUOUS
10
2.06841
20
-1.87578
11
2.06847
21
-4.19876
0
LINE
8
BLACK
6
CONTINUOUS
10
5.94814
20
-4.20089
11
5.94817
21
-4.4371
0
LINE
8
BLACK
6
CONTINUOUS
10
2.06847
20
-4.19876
11
2.2653
21
-4.19866
0
LINE
8
BLACK
6
CONTINUOUS
10
2.06834
20
-5.24312
11
2.06843
21
-4.57257
0
LINE
8
BLACK
6
CONTINUOUS
10
2.40166
20
-5.11724
11
2.41347
21
-5.12905
0
LINE
8
BLACK
6
CONTINUOUS
10
2.41347
20
-5.11724
11
2.40166
21
-5.12905
0
LINE
8
BLACK
6
CONTINUOUS
10
2.41181
20
-5.1689
11
2.42362
21
-5.18071
0
LINE
8
BLACK
6
CONTINUOUS
10
2.42362
20
-5.1689
11
2.41181
21
-5.18071
0
LINE
8
BLACK
6
CONTINUOUS
10
2.43819
20
-5.14843
11
2.45
21
-5.16024
0
LINE
8
BLACK
6
CONTINUOUS
10
2.45
20
-5.14843
11
2.43819
21
-5.16024
0
LINE
8
BLACK
6
CONTINUOUS
10
2.46378
20
-3.75315
11
2.47559
21
-3.76496
0
LINE
8
BLACK
6
CONTINUOUS
10
2.47559
20
-3.75315
11
2.46378
21
-3.76496
0
LINE
8
BLACK
6
CONTINUOUS
10
2.50969
20
-5.12047
11
2.5215
21
-5.13228
0
LINE
8
BLACK
6
CONTINUOUS
10
2.5215
20
-5.12047
11
2.50969
21
-5.13228
0
LINE
8
BLACK
6
CONTINUOUS
10
2.50969
20
-5.17638
11
2.5215
21
-5.18819
0
LINE
8
BLACK
6
CONTINUOUS
10
2.5215
20
-5.17638
11
2.50969
21
-5.18819
0
LINE
8
BLACK
6
CONTINUOUS
10
2.55394
20
-3.71297
11
2.56575
21
-3.72478
0
LINE
8
BLACK
6
CONTINUOUS
10
2.56575
20
-3.71297
11
2.55394
21
-3.72478
0
LINE
8
BLACK
6
CONTINUOUS
10
2.56969
20
-5.14961
11
2.5815
21
-5.16142
0
LINE
8
BLACK
6
CONTINUOUS
10
2.5815
20
-5.14961
11
2.56969
21
-5.16142
0
LINE
8
BLACK
6
CONTINUOUS
10
2.57874
20
-3.6437
11
2.59055
21
-3.65551
0
LINE
8
BLACK
6
CONTINUOUS
10
2.59055
20
-3.6437
11
2.57874
21
-3.65551
0
LINE
8
BLACK
6
CONTINUOUS
10
2.5874
20
-3.68937
11
2.59921
21
-3.70118
0
LINE
8
BLACK
6
CONTINUOUS
10
2.59921
20
-3.68937
11
2.5874
21
-3.70118
0
LINE
8
BLACK
6
CONTINUOUS
10
2.62126
20
-5.17835
11
2.63307
21
-5.19016
0
LINE
8
BLACK
6
CONTINUOUS
10
2.63307
20
-5.17835
11
2.62126
21
-5.19016
0
LINE
8
BLACK
6
CONTINUOUS
10
2.72583
20
-5.16614
11
2.73764
21
-5.17795
0
LINE
8
BLACK
6
CONTINUOUS
10
2.73764
20
-5.16614
11
2.72583
21
-5.17795
0
LINE
8
BLACK
6
CONTINUOUS
10
2.7437
20
-3.67874
11
2.75551
21
-3.69055
0
LINE
8
BLACK
6
CONTINUOUS
10
2.75551
20
-3.67874
11
2.7437
21
-3.69055
0
LINE
8
BLACK
6
CONTINUOUS
10
2.8122
20
-5.18307
11
2.82402
21
-5.19488
0
LINE
8
BLACK
6
CONTINUOUS
10
2.82402
20
-5.18307
11
2.8122
21
-5.19488
0
LINE
8
BLACK
6
CONTINUOUS
10
2.90079
20
-5.1815
11
2.9126
21
-5.19331
0
LINE
8
BLACK
6
CONTINUOUS
10
2.9126
20
-5.1815
11
2.90079
21
-5.19331
0
LINE
8
BLACK
6
CONTINUOUS
10
2.99843
20
-5.17362
11
3.01024
21
-5.18543
0
LINE
8
BLACK
6
CONTINUOUS
10
3.01024
20
-5.17362
11
2.99843
21
-5.18543
0
LINE
8
BLACK
6
CONTINUOUS
10
3.01102
20
-3.75669
11
3.02283
21
-3.7685
0
LINE
8
BLACK
6
CONTINUOUS
10
3.02283
20
-3.75669
11
3.01102
21
-3.7685
0
LINE
8
BLACK
6
CONTINUOUS
10
3.02323
20
-3.07874
11
3.03504
21
-3.09055
0
LINE
8
BLACK
6
CONTINUOUS
10
3.03504
20
-3.07874
11
3.02323
21
-3.09055
0
LINE
8
BLACK
6
CONTINUOUS
10
3.05591
20
-4.8378
11
3.06772
21
-4.84961
0
LINE
8
BLACK
6
CONTINUOUS
10
3.06772
20
-4.8378
11
3.05591
21
-4.84961
0
LINE
8
BLACK
6
CONTINUOUS
10
3.06024
20
-4.40512
11
3.07205
21
-4.41693
0
LINE
8
BLACK
6
CONTINUOUS
10
3.07205
20
-4.40512
11
3.06024
21
-4.41693
0
LINE
8
BLACK
6
CONTINUOUS
10
3.17047
20
-5.17598
11
3.18228
21
-5.1878
0
LINE
8
BLACK
6
CONTINUOUS
10
3.18228
20
-5.17598
11
3.17047
21
-5.1878
0
LINE
8
BLACK
6
CONTINUOUS
10
3.19567
20
-5.13386
11
3.20748
21
-5.14567
0
LINE
8
BLACK
6
CONTINUOUS
10
3.20748
20
-5.13386
11
3.19567
21
-5.14567
0
LINE
8
BLACK
6
CONTINUOUS
10
3.2752
20
-4.08346
11
3.28701
21
-4.09528
0
LINE
8
BLACK
6
CONTINUOUS
10
3.28701
20
-4.08346
11
3.2752
21
-4.09528
0
LINE
8
BLACK
6
CONTINUOUS
10
3.29567
20
-5.15669
11
3.30748
21
-5.1685
0
LINE
8
BLACK
6
CONTINUOUS
10
3.30748
20
-5.15669
11
3.29567
21
-5.1685
0
LINE
8
BLACK
6
CONTINUOUS
10
3.39213
20
-5.14252
11
3.40394
21
-5.15433
0
LINE
8
BLACK
6
CONTINUOUS
10
3.40394
20
-5.14252
11
3.39213
21
-5.15433
0
LINE
8
BLACK
6
CONTINUOUS
10
3.4811
20
-3.49843
11
3.49291
21
-3.51024
0
LINE
8
BLACK
6
CONTINUOUS
10
3.49291
20
-3.49843
11
3.4811
21
-3.51024
0
LINE
8
BLACK
6
CONTINUOUS
10
3.4937
20
-5.16969
11
3.50551
21
-5.1815
0
LINE
8
BLACK
6
CONTINUOUS
10
3.50551
20
-5.16969
11
3.4937
21
-5.1815
0
LINE
8
BLACK
6
CONTINUOUS
10
3.58307
20
-5.16535
11
3.59488
21
-5.17717
0
LINE
8
BLACK
6
CONTINUOUS
10
3.59488
20
-5.16535
11
3.58307
21
-5.17717
0
LINE
8
BLACK
6
CONTINUOUS
10
3.63189
20
-4.41181
11
3.6437
21
-4.42362
0
LINE
8
BLACK
6
CONTINUOUS
10
3.6437
20
-4.41181
11
3.63189
21
-4.42362
0
LINE
8
BLACK
6
CONTINUOUS
10
3.67165
20
-4.08701
11
3.68346
21
-4.09882
0
LINE
8
BLACK
6
CONTINUOUS
10
3.68346
20
-4.08701
11
3.67165
21
-4.09882
0
LINE
8
BLACK
6
CONTINUOUS
10
3.78071
20
-5.12953
11
3.79252
21
-5.14134
0
LINE
8
BLACK
6
CONTINUOUS
10
3.79252
20
-5.12953
11
3.78071
21
-5.14134
0
LINE
8
BLACK
6
CONTINUOUS
10
4.19921
20
-5.10354
11
4.21102
21
-5.11535
0
LINE
8
BLACK
6
CONTINUOUS
10
4.21102
20
-5.10354
11
4.19921
21
-5.11535
0
LINE
8
BLACK
6
CONTINUOUS
10
4.29685
20
-5.13228
11
4.30866
21
-5.14409
0
LINE
8
BLACK
6
CONTINUOUS
10
4.30866
20
-5.13228
11
4.29685
21
-5.14409
0
LINE
8
BLACK
6
CONTINUOUS
10
4.30512
20
-3.5878
11
4.31693
21
-3.59961
0
LINE
8
BLACK
6
CONTINUOUS
10
4.31693
20
-3.5878
11
4.30512
21
-3.59961
0
LINE
8
BLACK
6
CONTINUOUS
10
4.32205
20
-3.69291
11
4.33386
21
-3.70472
0
LINE
8
BLACK
6
CONTINUOUS
10
4.33386
20
-3.69291
11
4.32205
21
-3.70472
0
LINE
8
BLACK
6
CONTINUOUS
10
4.37717
20
-3.45827
11
4.38898
21
-3.47008
0
LINE
8
BLACK
6
CONTINUOUS
10
4.38898
20
-3.45827
11
4.37717
21
-3.47008
0
LINE
8
BLACK
6
CONTINUOUS
10
4.37913
20
-5.15394
11
4.39094
21
-5.16575
0
LINE
8
BLACK
6
CONTINUOUS
10
4.39094
20
-5.15394
11
4.37913
21
-5.16575
0
LINE
8
BLACK
6
CONTINUOUS
10
4.41575
20
-3.5878
11
4.42756
21
-3.59961
0
LINE
8
BLACK
6
CONTINUOUS
10
4.42756
20
-3.5878
11
4.41575
21
-3.59961
0
LINE
8
BLACK
6
CONTINUOUS
10
4.47874
20
-5.17835
11
4.49055
21
-5.19016
0
LINE
8
BLACK
6
CONTINUOUS
10
4.49055
20
-5.17835
11
4.47874
21
-5.19016
0
LINE
8
BLACK
6
CONTINUOUS
10
4.51496
20
-3.45394
11
4.52677
21
-3.46575
0
LINE
8
BLACK
6
CONTINUOUS
10
4.52677
20
-3.45394
11
4.51496
21
-3.46575
0
LINE
8
BLACK
6
CONTINUOUS
10
4.51496
20
-3.65197
11
4.52677
21
-3.66378
0
LINE
8
BLACK
6
CONTINUOUS
10
4.52677
20
-3.65197
11
4.51496
21
-3.66378
0
LINE
8
BLACK
6
CONTINUOUS
10
4.55748
20
-3.59094
11
4.56929
21
-3.60276
0
LINE
8
BLACK
6
CONTINUOUS
10
4.56929
20
-3.59094
11
4.55748
21
-3.60276
0
LINE
8
BLACK
6
CONTINUOUS
10
4.65
20
-3.45591
11
4.66181
21
-3.46772
0
LINE
8
BLACK
6
CONTINUOUS
10
4.66181
20
-3.45591
11
4.65
21
-3.46772
0
LINE
8
BLACK
6
CONTINUOUS
10
4.65394
20
-3.77756
11
4.66575
21
-3.78937
0
LINE
8
BLACK
6
CONTINUOUS
10
4.66575
20
-3.77756
11
4.65394
21
-3.78937
0
LINE
8
BLACK
6
CONTINUOUS
10
4.6815
20
-3.70827
11
4.69331
21
-3.72008
0
LINE
8
BLACK
6
CONTINUOUS
10
4.69331
20
-3.70827
11
4.6815
21
-3.72008
0
LINE
8
BLACK
6
CONTINUOUS
10
4.69764
20
-3.59094
11
4.70945
21
-3.60276
0
LINE
8
BLACK
6
CONTINUOUS
10
4.70945
20
-3.59094
11
4.69764
21
-3.60276
0
LINE
8
BLACK
6
CONTINUOUS
10
4.7252
20
-3.17756
11
4.73701
21
-3.18937
0
LINE
8
BLACK
6
CONTINUOUS
10
4.73701
20
-3.17756
11
4.7252
21
-3.18937
0
LINE
8
BLACK
6
CONTINUOUS
10
4.72953
20
-5.12559
11
4.74134
21
-5.1374
0
LINE
8
BLACK
6
CONTINUOUS
10
4.74134
20
-5.12559
11
4.72953
21
-5.1374
0
LINE
8
BLACK
6
CONTINUOUS
10
4.77362
20
-3.51142
11
4.78543
21
-3.52323
0
LINE
8
BLACK
6
CONTINUOUS
10
4.78543
20
-3.51142
11
4.77362
21
-3.52323
0
LINE
8
BLACK
6
CONTINUOUS
10
4.7878
20
-3.65551
11
4.79961
21
-3.66732
0
LINE
8
BLACK
6
CONTINUOUS
10
4.79961
20
-3.65551
11
4.7878
21
-3.66732
0
LINE
8
BLACK
6
CONTINUOUS
10
4.84921
20
-3.8378
11
4.86102
21
-3.84961
0
LINE
8
BLACK
6
CONTINUOUS
10
4.86102
20
-3.8378
11
4.84921
21
-3.84961
0
LINE
8
BLACK
6
CONTINUOUS
10
4.85553
20
-5.07315
11
4.86734
21
-5.08496
0
LINE
8
BLACK
6
CONTINUOUS
10
4.86734
20
-5.07315
11
4.85553
21
-5.08496
0
LINE
8
BLACK
6
CONTINUOUS
10
4.85553
20
-5.18189
11
4.86734
21
-5.1937
0
LINE
8
BLACK
6
CONTINUOUS
10
4.86734
20
-5.18189
11
4.85553
21
-5.1937
0
LINE
8
BLACK
6
CONTINUOUS
10
4.85669
20
-3.48307
11
4.8685
21
-3.49488
0
LINE
8
BLACK
6
CONTINUOUS
10
4.8685
20
-3.48307
11
4.85669
21
-3.49488
0
LINE
8
BLACK
6
CONTINUOUS
10
4.88504
20
-3.6315
11
4.89685
21
-3.64331
0
LINE
8
BLACK
6
CONTINUOUS
10
4.89685
20
-3.6315
11
4.88504
21
-3.64331
0
LINE
8
BLACK
6
CONTINUOUS
10
4.93071
20
-5.10238
11
4.94252
21
-5.11419
0
LINE
8
BLACK
6
CONTINUOUS
10
4.94252
20
-5.10238
11
4.93071
21
-5.11419
0
LINE
8
BLACK
6
CONTINUOUS
10
4.9311
20
-3.55472
11
4.94291
21
-3.56654
0
LINE
8
BLACK
6
CONTINUOUS
10
4.94291
20
-3.55472
11
4.9311
21
-3.56654
0
LINE
8
BLACK
6
CONTINUOUS
10
4.95553
20
-5.04955
11
4.96734
21
-5.06136
0
LINE
8
BLACK
6
CONTINUOUS
10
4.96734
20
-5.04955
11
4.95553
21
-5.06136
0
LINE
8
BLACK
6
CONTINUOUS
10
4.95553
20
-5.17795
11
4.96734
21
-5.18976
0
LINE
8
BLACK
6
CONTINUOUS
10
4.96734
20
-5.17795
11
4.95553
21
-5.18976
0
LINE
8
BLACK
6
CONTINUOUS
10
4.98898
20
-3.45512
11
5.00079
21
-3.46693
0
LINE
8
BLACK
6
CONTINUOUS
10
5.00079
20
-3.45512
11
4.98898
21
-3.46693
0
LINE
8
BLACK
6
CONTINUOUS
10
5.03189
20
-5.14961
11
5.0437
21
-5.16142
0
LINE
8
BLACK
6
CONTINUOUS
10
5.0437
20
-5.14961
11
5.03189
21
-5.16142
0
LINE
8
BLACK
6
CONTINUOUS
10
5.03701
20
-3.53504
11
5.04882
21
-3.54685
0
LINE
8
BLACK
6
CONTINUOUS
10
5.04882
20
-3.53504
11
5.03701
21
-3.54685
0
LINE
8
BLACK
6
CONTINUOUS
10
5.03976
20
-3.59055
11
5.05157
21
-3.60236
0
LINE
8
BLACK
6
CONTINUOUS
10
5.05157
20
-3.59055
11
5.03976
21
-3.60236
0
LINE
8
BLACK
6
CONTINUOUS
10
5.05512
20
-5.02594
11
5.06693
21
-5.03776
0
LINE
8
BLACK
6
CONTINUOUS
10
5.06693
20
-5.02594
11
5.05512
21
-5.03776
0
LINE
8
BLACK
6
CONTINUOUS
10
5.05553
20
-5.17717
11
5.06734
21
-5.18898
0
LINE
8
BLACK
6
CONTINUOUS
10
5.06734
20
-5.17717
11
5.05553
21
-5.18898
0
LINE
8
BLACK
6
CONTINUOUS
10
5.08425
20
-3.55276
11
5.09606
21
-3.56457
0
LINE
8
BLACK
6
CONTINUOUS
10
5.09606
20
-3.55276
11
5.08425
21
-3.56457
0
LINE
8
BLACK
6
CONTINUOUS
10
5.1126
20
-5.1673
11
5.12441
21
-5.17911
0
LINE
8
BLACK
6
CONTINUOUS
10
5.12441
20
-5.1673
11
5.1126
21
-5.17911
0
LINE
8
BLACK
6
CONTINUOUS
10
5.13583
20
-3.6563
11
5.14764
21
-3.66811
0
LINE
8
BLACK
6
CONTINUOUS
10
5.14764
20
-3.6563
11
5.13583
21
-3.66811
0
LINE
8
BLACK
6
CONTINUOUS
10
5.15551
20
-5.00234
11
5.16732
21
-5.01415
0
LINE
8
BLACK
6
CONTINUOUS
10
5.16732
20
-5.00234
11
5.15551
21
-5.01415
0
LINE
8
BLACK
6
CONTINUOUS
10
5.15551
20
-5.18502
11
5.16732
21
-5.19683
0
LINE
8
BLACK
6
CONTINUOUS
10
5.16732
20
-5.18502
11
5.15551
21
-5.19683
0
LINE
8
BLACK
6
CONTINUOUS
10
5.18622
20
-3.7689
11
5.19803
21
-3.78071
0
LINE
8
BLACK
6
CONTINUOUS
10
5.19803
20
-3.7689
11
5.18622
21
-3.78071
0
LINE
8
BLACK
6
CONTINUOUS
10
5.20512
20
-4.97874
11
5.21693
21
-4.99055
0
LINE
8
BLACK
6
CONTINUOUS
10
5.21693
20
-4.97874
11
5.20512
21
-4.99055
0
LINE
8
BLACK
6
CONTINUOUS
10
5.23346
20
-3.51024
11
5.24528
21
-3.52205
0
LINE
8
BLACK
6
CONTINUOUS
10
5.24528
20
-3.51024
11
5.23346
21
-3.52205
0
LINE
8
BLACK
6
CONTINUOUS
10
5.23346
20
-5.18502
11
5.24528
21
-5.19683
0
LINE
8
BLACK
6
CONTINUOUS
10
5.24528
20
-5.18502
11
5.23346
21
-5.19683
0
LINE
8
BLACK
6
CONTINUOUS
10
5.23386
20
-5.08112
11
5.24567
21
-5.09293
0
LINE
8
BLACK
6
CONTINUOUS
10
5.24567
20
-5.08112
11
5.23386
21
-5.09293
0
LINE
8
BLACK
6
CONTINUOUS
10
5.25039
20
-3.4551
11
5.2622
21
-3.46691
0
LINE
8
BLACK
6
CONTINUOUS
10
5.2622
20
-3.4551
11
5.25039
21
-3.46691
0
LINE
8
BLACK
6
CONTINUOUS
10
5.27679
20
-3.43543
11
5.2886
21
-3.44724
0
LINE
8
BLACK
6
CONTINUOUS
10
5.2886
20
-3.43543
11
5.27679
21
-3.44724
0
LINE
8
BLACK
6
CONTINUOUS
10
5.30039
20
-3.69685
11
5.3122
21
-3.70866
0
LINE
8
BLACK
6
CONTINUOUS
10
5.3122
20
-3.69685
11
5.30039
21
-3.70866
0
LINE
8
BLACK
6
CONTINUOUS
10
5.32441
20
-3.45748
11
5.33622
21
-3.46929
0
LINE
8
BLACK
6
CONTINUOUS
10
5.33622
20
-3.45748
11
5.32441
21
-3.46929
0
LINE
8
BLACK
6
CONTINUOUS
10
5.34567
20
-3.55157
11
5.35748
21
-3.56339
0
LINE
8
BLACK
6
CONTINUOUS
10
5.35748
20
-3.55157
11
5.34567
21
-3.56339
0
LINE
8
BLACK
6
CONTINUOUS
10
5.35945
20
-5.17362
11
5.37126
21
-5.18543
0
LINE
8
BLACK
6
CONTINUOUS
10
5.37126
20
-5.17362
11
5.35945
21
-5.18543
0
LINE
8
BLACK
6
CONTINUOUS
10
5.39488
20
-5.18071
11
5.40669
21
-5.19252
0
LINE
8
BLACK
6
CONTINUOUS
10
5.40669
20
-5.18071
11
5.39488
21
-5.19252
0
LINE
8
BLACK
6
CONTINUOUS
10
5.39606
20
-3.62598
11
5.40787
21
-3.6378
0
LINE
8
BLACK
6
CONTINUOUS
10
5.40787
20
-3.62598
11
5.39606
21
-3.6378
0
LINE
8
BLACK
6
CONTINUOUS
10
5.41417
20
-3.79882
11
5.42598
21
-3.81063
0
LINE
8
BLACK
6
CONTINUOUS
10
5.42598
20
-3.79882
11
5.41417
21
-3.81063
0
LINE
8
BLACK
6
CONTINUOUS
10
5.42165
20
-3.51024
11
5.43346
21
-3.52205
0
LINE
8
BLACK
6
CONTINUOUS
10
5.43346
20
-3.51024
11
5.42165
21
-3.52205
0
LINE
8
BLACK
6
CONTINUOUS
10
5.43386
20
-5.08112
11
5.44567
21
-5.09293
0
LINE
8
BLACK
6
CONTINUOUS
10
5.44567
20
-5.08112
11
5.43386
21
-5.09293
0
LINE
8
BLACK
6
CONTINUOUS
10
5.43386
20
-5.17362
11
5.44567
21
-5.18543
0
LINE
8
BLACK
6
CONTINUOUS
10
5.44567
20
-5.17362
11
5.43386
21
-5.18543
0
LINE
8
BLACK
6
CONTINUOUS
10
5.43898
20
-3.59016
11
5.45079
21
-3.60197
0
LINE
8
BLACK
6
CONTINUOUS
10
5.45079
20
-3.59016
11
5.43898
21
-3.60197
0
LINE
8
BLACK
6
CONTINUOUS
10
5.44213
20
-3.69606
11
5.45394
21
-3.70787
0
LINE
8
BLACK
6
CONTINUOUS
10
5.45394
20
-3.69606
11
5.44213
21
-3.70787
0
LINE
8
BLACK
6
CONTINUOUS
10
5.45827
20
-5.15157
11
5.47008
21
-5.16339
0
LINE
8
BLACK
6
CONTINUOUS
10
5.47008
20
-5.15157
11
5.45827
21
-5.16339
0
LINE
8
BLACK
6
CONTINUOUS
10
5.45866
20
-5.03819
11
5.47047
21
-5.05
0
LINE
8
BLACK
6
CONTINUOUS
10
5.47047
20
-5.03819
11
5.45866
21
-5.05
0
LINE
8
BLACK
6
CONTINUOUS
10
5.4815
20
-3.84685
11
5.49331
21
-3.85866
0
LINE
8
BLACK
6
CONTINUOUS
10
5.49331
20
-3.84685
11
5.4815
21
-3.85866
0
LINE
8
BLACK
6
CONTINUOUS
10
5.49843
20
-3.43937
11
5.51024
21
-3.45118
0
LINE
8
BLACK
6
CONTINUOUS
10
5.51024
20
-3.43937
11
5.49843
21
-3.45118
0
LINE
8
BLACK
6
CONTINUOUS
10
5.51024
20
-3.49843
11
5.52205
21
-3.51024
0
LINE
8
BLACK
6
CONTINUOUS
10
5.52205
20
-3.49843
11
5.51024
21
-3.51024
0
LINE
8
BLACK
6
CONTINUOUS
10
5.5126
20
-3.65197
11
5.52441
21
-3.66378
0
LINE
8
BLACK
6
CONTINUOUS
10
5.52441
20
-3.65197
11
5.5126
21
-3.66378
0
LINE
8
BLACK
6
CONTINUOUS
10
5.51969
20
-3.8
11
5.5315
21
-3.81181
0
LINE
8
BLACK
6
CONTINUOUS
10
5.5315
20
-3.8
11
5.51969
21
-3.81181
0
LINE
8
BLACK
6
CONTINUOUS
10
5.53296
20
-5.17323
11
5.54477
21
-5.18504
0
LINE
8
BLACK
6
CONTINUOUS
10
5.54477
20
-5.17323
11
5.53296
21
-5.18504
0
LINE
8
BLACK
6
CONTINUOUS
10
5.55
20
-5.12835
11
5.56181
21
-5.14016
0
LINE
8
BLACK
6
CONTINUOUS
10
5.56181
20
-5.12835
11
5.55
21
-5.14016
0
LINE
8
BLACK
6
CONTINUOUS
10
5.55039
20
-3.63189
11
5.5622
21
-3.6437
0
LINE
8
BLACK
6
CONTINUOUS
10
5.5622
20
-3.63189
11
5.55039
21
-3.6437
0
LINE
8
BLACK
6
CONTINUOUS
10
5.58465
20
-3.73504
11
5.59646
21
-3.74685
0
LINE
8
BLACK
6
CONTINUOUS
10
5.59646
20
-3.73504
11
5.58465
21
-3.74685
0
LINE
8
BLACK
6
CONTINUOUS
10
5.64764
20
-5.10906
11
5.65945
21
-5.12087
0
LINE
8
BLACK
6
CONTINUOUS
10
5.65945
20
-5.10906
11
5.64764
21
-5.12087
0
LINE
8
BLACK
6
CONTINUOUS
10
5.67323
20
-3.68701
11
5.68504
21
-3.69882
0
LINE
8
BLACK
6
CONTINUOUS
10
5.68504
20
-3.68701
11
5.67323
21
-3.69882
0
LINE
8
BLACK
6
CONTINUOUS
10
5.67717
20
-5.08465
11
5.68898
21
-5.09646
0
LINE
8
BLACK
6
CONTINUOUS
10
5.68898
20
-5.08465
11
5.67717
21
-5.09646
0
LINE
8
BLACK
6
CONTINUOUS
10
5.67953
20
-5.18189
11
5.69134
21
-5.1937
0
LINE
8
BLACK
6
CONTINUOUS
10
5.69134
20
-5.18189
11
5.67953
21
-5.1937
0
LINE
8
BLACK
6
CONTINUOUS
10
5.74055
20
-3.17835
11
5.75236
21
-3.19016
0
LINE
8
BLACK
6
CONTINUOUS
10
5.75236
20
-3.17835
11
5.74055
21
-3.19016
0
LINE
8
BLACK
6
CONTINUOUS
10
5.75059
20
-3.48622
11
5.7624
21
-3.49803
0
LINE
8
BLACK
6
CONTINUOUS
10
5.7624
20
-3.48622
11
5.75059
21
-3.49803
0
CIRCLE
8
BLACK
10
2.31299
20
-3.86378
40
0.00984252
0
CIRCLE
8
BLACK
10
2.31299
20
-4.81299
40
0.00984252
0
CIRCLE
8
BLACK
10
3.06339
20
-3.86378
40
0.00984252
0
CIRCLE
8
BLACK
10
3.83425
20
-4.81299
40
0.00984252
0
LINE
8
BLACK
6
CONTINUOUS
10
2.36299
20
-2.06122
11
2.36299
21
-2.09272
0
LINE
8
BLACK
6
CONTINUOUS
10
2.34724
20
-2.07697
11
2.37874
21
-2.07697
0
LINE
8
BLACK
6
CONTINUOUS
10
2.36299
20
-2.66122
11
2.36299
21
-2.69272
0
LINE
8
BLACK
6
CONTINUOUS
10
2.34724
20
-2.67697
11
2.37874
21
-2.67697
0
LINE
8
BLACK
6
CONTINUOUS
10
2.43727
20
-4.31063
11
2.43727
21
-4.34213
0
LINE
8
BLACK
6
CONTINUOUS
10
2.42152
20
-4.32638
11
2.45302
21
-4.32638
0
LINE
8
BLACK
6
CONTINUOUS
10
2.43727
20
-4.91063
11
2.43727
21
-4.94213
0
LINE
8
BLACK
6
CONTINUOUS
10
2.42152
20
-4.92638
11
2.45302
21
-4.92638
0
LINE
8
BLACK
6
CONTINUOUS
10
2.45472
20
-2.86535
11
2.45472
21
-2.89685
0
LINE
8
BLACK
6
CONTINUOUS
10
2.43898
20
-2.8811
11
2.47047
21
-2.8811
0
LINE
8
BLACK
6
CONTINUOUS
10
2.45472
20
-2.96535
11
2.45472
21
-2.99685
0
LINE
8
BLACK
6
CONTINUOUS
10
2.43898
20
-2.9811
11
2.47047
21
-2.9811
0
LINE
8
BLACK
6
CONTINUOUS
10
2.45472
20
-3.06535
11
2.45472
21
-3.09685
0
LINE
8
BLACK
6
CONTINUOUS
10
2.43898
20
-3.0811
11
2.47047
21
-3.0811
0
LINE
8
BLACK
6
CONTINUOUS
10
2.45472
20
-3.16535
11
2.45472
21
-3.19685
0
LINE
8
BLACK
6
CONTINUOUS
10
2.43898
20
-3.1811
11
2.47047
21
-3.1811
0
LINE
8
BLACK
6
CONTINUOUS
10
2.45472
20
-3.26535
11
2.45472
21
-3.29685
0
LINE
8
BLACK
6
CONTINUOUS
10
2.43898
20
-3.2811
11
2.47047
21
-3.2811
0
LINE
8
BLACK
6
CONTINUOUS
10
2.45472
20
-3.36535
11
2.45472
21
-3.39685
0
LINE
8
BLACK
6
CONTINUOUS
10
2.43898
20
-3.3811
11
2.47047
21
-3.3811
0
LINE
8
BLACK
6
CONTINUOUS
10
2.45472
20
-3.46535
11
2.45472
21
-3.49685
0
LINE
8
BLACK
6
CONTINUOUS
10
2.43898
20
-3.4811
11
2.47047
21
-3.4811
0
LINE
8
BLACK
6
CONTINUOUS
10
2.45472
20
-3.56535
11
2.45472
21
-3.59685
0
LINE
8
BLACK
6
CONTINUOUS
10
2.43898
20
-3.5811
11
2.47047
21
-3.5811
0
LINE
8
BLACK
6
CONTINUOUS
10
2.46299
20
-2.06122
11
2.46299
21
-2.09272
0
LINE
8
BLACK
6
CONTINUOUS
10
2.44724
20
-2.07697
11
2.47874
21
-2.07697
0
LINE
8
BLACK
6
CONTINUOUS
10
2.46299
20
-2.66122
11
2.46299
21
-2.69272
0
LINE
8
BLACK
6
CONTINUOUS
10
2.44724
20
-2.67697
11
2.47874
21
-2.67697
0
LINE
8
BLACK
6
CONTINUOUS
10
2.53727
20
-4.31063
11
2.53727
21
-4.34213
0
LINE
8
BLACK
6
CONTINUOUS
10
2.52152
20
-4.32638
11
2.55302
21
-4.32638
0
LINE
8
BLACK
6
CONTINUOUS
10
2.53727
20
-4.91063
11
2.53727
21
-4.94213
0
LINE
8
BLACK
6
CONTINUOUS
10
2.52152
20
-4.92638
11
2.55302
21
-4.92638
0
LINE
8
BLACK
6
CONTINUOUS
10
2.56299
20
-2.06122
11
2.56299
21
-2.09272
0
LINE
8
BLACK
6
CONTINUOUS
10
2.54724
20
-2.07697
11
2.57874
21
-2.07697
0
LINE
8
BLACK
6
CONTINUOUS
10
2.56299
20
-2.66122
11
2.56299
21
-2.69272
0
LINE
8
BLACK
6
CONTINUOUS
10
2.54724
20
-2.67697
11
2.57874
21
-2.67697
0
LINE
8
BLACK
6
CONTINUOUS
10
2.63727
20
-4.31063
11
2.63727
21
-4.34213
0
LINE
8
BLACK
6
CONTINUOUS
10
2.62152
20
-4.32638
11
2.65302
21
-4.32638
0
LINE
8
BLACK
6
CONTINUOUS
10
2.63727
20
-4.91063
11
2.63727
21
-4.94213
0
LINE
8
BLACK
6
CONTINUOUS
10
2.62152
20
-4.92638
11
2.65302
21
-4.92638
0
LINE
8
BLACK
6
CONTINUOUS
10
2.66299
20
-2.06122
11
2.66299
21
-2.09272
0
LINE
8
BLACK
6
CONTINUOUS
10
2.64724
20
-2.07697
11
2.67874
21
-2.07697
0
LINE
8
BLACK
6
CONTINUOUS
10
2.66299
20
-2.66122
11
2.66299
21
-2.69272
0
LINE
8
BLACK
6
CONTINUOUS
10
2.64724
20
-2.67697
11
2.67874
21
-2.67697
0
LINE
8
BLACK
6
CONTINUOUS
10
2.73727
20
-4.31063
11
2.73727
21
-4.34213
0
LINE
8
BLACK
6
CONTINUOUS
10
2.72152
20
-4.32638
11
2.75302
21
-4.32638
0
LINE
8
BLACK
6
CONTINUOUS
10
2.73727
20
-4.91063
11
2.73727
21
-4.94213
0
LINE
8
BLACK
6
CONTINUOUS
10
2.72152
20
-4.92638
11
2.75302
21
-4.92638
0
LINE
8
BLACK
6
CONTINUOUS
10
2.75472
20
-2.86535
11
2.75472
21
-2.89685
0
LINE
8
BLACK
6
CONTINUOUS
10
2.73898
20
-2.8811
11
2.77047
21
-2.8811
0
LINE
8
BLACK
6
CONTINUOUS
10
2.75472
20
-2.96535
11
2.75472
21
-2.99685
0
LINE
8
BLACK
6
CONTINUOUS
10
2.73898
20
-2.9811
11
2.77047
21
-2.9811
0
LINE
8
BLACK
6
CONTINUOUS
10
2.75472
20
-3.06535
11
2.75472
21
-3.09685
0
LINE
8
BLACK
6
CONTINUOUS
10
2.73898
20
-3.0811
11
2.77047
21
-3.0811
0
LINE
8
BLACK
6
CONTINUOUS
10
2.75472
20
-3.16535
11
2.75472
21
-3.19685
0
LINE
8
BLACK
6
CONTINUOUS
10
2.73898
20
-3.1811
11
2.77047
21
-3.1811
0
LINE
8
BLACK
6
CONTINUOUS
10
2.75472
20
-3.26535
11
2.75472
21
-3.29685
0
LINE
8
BLACK
6
CONTINUOUS
10
2.73898
20
-3.2811
11
2.77047
21
-3.2811
0
LINE
8
BLACK
6
CONTINUOUS
10
2.75472
20
-3.36535
11
2.75472
21
-3.39685
0
LINE
8
BLACK
6
CONTINUOUS
10
2.73898
20
-3.3811
11
2.77047
21
-3.3811
0
LINE
8
BLACK
6
CONTINUOUS
10
2.75472
20
-3.46535
11
2.75472
21
-3.49685
0
LINE
8
BLACK
6
CONTINUOUS
10
2.73898
20
-3.4811
11
2.77047
21
-3.4811
0
LINE
8
BLACK
6
CONTINUOUS
10
2.75472
20
-3.56535
11
2.75472
21
-3.59685
0
LINE
8
BLACK
6
CONTINUOUS
10
2.73898
20
-3.5811
11
2.77047
21
-3.5811
0
LINE
8
BLACK
6
CONTINUOUS
10
2.76299
20
-2.06122
11
2.76299
21
-2.09272
0
LINE
8
BLACK
6
CONTINUOUS
10
2.74724
20
-2.07697
11
2.77874
21
-2.07697
0
LINE
8
BLACK
6
CONTINUOUS
10
2.76299
20
-2.66122
11
2.76299
21
-2.69272
0
LINE
8
BLACK
6
CONTINUOUS
10
2.74724
20
-2.67697
11
2.77874
21
-2.67697
0
LINE
8
BLACK
6
CONTINUOUS
10
2.83727
20
-4.31063
11
2.83727
21
-4.34213
0
LINE
8
BLACK
6
CONTINUOUS
10
2.82152
20
-4.32638
11
2.85302
21
-4.32638
0
LINE
8
BLACK
6
CONTINUOUS
10
2.83727
20
-4.91063
11
2.83727
21
-4.94213
0
LINE
8
BLACK
6
CONTINUOUS
10
2.82152
20
-4.92638
11
2.85302
21
-4.92638
0
LINE
8
BLACK
6
CONTINUOUS
10
2.86299
20
-2.06122
11
2.86299
21
-2.09272
0
LINE
8
BLACK
6
CONTINUOUS
10
2.84724
20
-2.07697
11
2.87874
21
-2.07697
0
LINE
8
BLACK
6
CONTINUOUS
10
2.86299
20
-2.66122
11
2.86299
21
-2.69272
0
LINE
8
BLACK
6
CONTINUOUS
10
2.84724
20
-2.67697
11
2.87874
21
-2.67697
0
LINE
8
BLACK
6
CONTINUOUS
10
2.88425
20
-2.96535
11
2.88425
21
-2.99685
0
LINE
8
BLACK
6
CONTINUOUS
10
2.8685
20
-2.9811
11
2.9
21
-2.9811
0
LINE
8
BLACK
6
CONTINUOUS
10
2.88425
20
-3.06535
11
2.88425
21
-3.09685
0
LINE
8
BLACK
6
CONTINUOUS
10
2.8685
20
-3.0811
11
2.9
21
-3.0811
0
LINE
8
BLACK
6
CONTINUOUS
10
2.88425
20
-3.16535
11
2.88425
21
-3.19685
0
LINE
8
BLACK
6
CONTINUOUS
10
2.8685
20
-3.1811
11
2.9
21
-3.1811
0
LINE
8
BLACK
6
CONTINUOUS
10
2.88425
20
-3.26535
11
2.88425
21
-3.29685
0
LINE
8
BLACK
6
CONTINUOUS
10
2.8685
20
-3.2811
11
2.9
21
-3.2811
0
LINE
8
BLACK
6
CONTINUOUS
10
2.93727
20
-4.31063
11
2.93727
21
-4.34213
0
LINE
8
BLACK
6
CONTINUOUS
10
2.92152
20
-4.32638
11
2.95302
21
-4.32638
0
LINE
8
BLACK
6
CONTINUOUS
10
2.93727
20
-4.91063
11
2.93727
21
-4.94213
0
LINE
8
BLACK
6
CONTINUOUS
10
2.92152
20
-4.92638
11
2.95302
21
-4.92638
0
LINE
8
BLACK
6
CONTINUOUS
10
2.96299
20
-2.06122
11
2.96299
21
-2.09272
0
LINE
8
BLACK
6
CONTINUOUS
10
2.94724
20
-2.07697
11
2.97874
21
-2.07697
0
LINE
8
BLACK
6
CONTINUOUS
10
2.96299
20
-2.66122
11
2.96299
21
-2.69272
0
LINE
8
BLACK
6
CONTINUOUS
10
2.94724
20
-2.67697
11
2.97874
21
-2.67697
0
LINE
8
BLACK
6
CONTINUOUS
10
3.03727
20
-4.31063
11
3.03727
21
-4.34213
0
LINE
8
BLACK
6
CONTINUOUS
10
3.02152
20
-4.32638
11
3.05302
21
-4.32638
0
LINE
8
BLACK
6
CONTINUOUS
10
3.03727
20
-4.91063
11
3.03727
21
-4.94213
0
LINE
8
BLACK
6
CONTINUOUS
10
3.02152
20
-4.92638
11
3.05302
21
-4.92638
0
LINE
8
BLACK
6
CONTINUOUS
10
3.06299
20
-2.06122
11
3.06299
21
-2.09272
0
LINE
8
BLACK
6
CONTINUOUS
10
3.04724
20
-2.07697
11
3.07874
21
-2.07697
0
LINE
8
BLACK
6
CONTINUOUS
10
3.06299
20
-2.66122
11
3.06299
21
-2.69272
0
LINE
8
BLACK
6
CONTINUOUS
10
3.04724
20
-2.67697
11
3.07874
21
-2.67697
0
LINE
8
BLACK
6
CONTINUOUS
10
3.13727
20
-4.31063
11
3.13727
21
-4.34213
0
LINE
8
BLACK
6
CONTINUOUS
10
3.12152
20
-4.32638
11
3.15302
21
-4.32638
0
LINE
8
BLACK
6
CONTINUOUS
10
3.13727
20
-4.91063
11
3.13727
21
-4.94213
0
LINE
8
BLACK
6
CONTINUOUS
10
3.12152
20
-4.92638
11
3.15302
21
-4.92638
0
LINE
8
BLACK
6
CONTINUOUS
10
3.16299
20
-2.06122
11
3.16299
21
-2.09272
0
LINE
8
BLACK
6
CONTINUOUS
10
3.14724
20
-2.07697
11
3.17874
21
-2.07697
0
LINE
8
BLACK
6
CONTINUOUS
10
3.16299
20
-2.66122
11
3.16299
21
-2.69272
0
LINE
8
BLACK
6
CONTINUOUS
10
3.14724
20
-2.67697
11
3.17874
21
-2.67697
0
LINE
8
BLACK
6
CONTINUOUS
10
3.18425
20
-2.96535
11
3.18425
21
-2.99685
0
LINE
8
BLACK
6
CONTINUOUS
10
3.1685
20
-2.9811
11
3.2
21
-2.9811
0
LINE
8
BLACK
6
CONTINUOUS
10
3.18425
20
-3.06535
11
3.18425
21
-3.09685
0
LINE
8
BLACK
6
CONTINUOUS
10
3.1685
20
-3.0811
11
3.2
21
-3.0811
0
LINE
8
BLACK
6
CONTINUOUS
10
3.18425
20
-3.16535
11
3.18425
21
-3.19685
0
LINE
8
BLACK
6
CONTINUOUS
10
3.1685
20
-3.1811
11
3.2
21
-3.1811
0
LINE
8
BLACK
6
CONTINUOUS
10
3.18425
20
-3.26535
11
3.18425
21
-3.29685
0
LINE
8
BLACK
6
CONTINUOUS
10
3.1685
20
-3.2811
11
3.2
21
-3.2811
0
LINE
8
BLACK
6
CONTINUOUS
10
3.23727
20
-4.31063
11
3.23727
21
-4.34213
0
LINE
8
BLACK
6
CONTINUOUS
10
3.22152
20
-4.32638
11
3.25302
21
-4.32638
0
LINE
8
BLACK
6
CONTINUOUS
10
3.23727
20
-4.91063
11
3.23727
21
-4.94213
0
LINE
8
BLACK
6
CONTINUOUS
10
3.22152
20
-4.92638
11
3.25302
21
-4.92638
0
LINE
8
BLACK
6
CONTINUOUS
10
3.26299
20
-2.06122
11
3.26299
21
-2.09272
0
LINE
8
BLACK
6
CONTINUOUS
10
3.24724
20
-2.07697
11
3.27874
21
-2.07697
0
LINE
8
BLACK
6
CONTINUOUS
10
3.26299
20
-2.66122
11
3.26299
21
-2.69272
0
LINE
8
BLACK
6
CONTINUOUS
10
3.24724
20
-2.67697
11
3.27874
21
-2.67697
0
LINE
8
BLACK
6
CONTINUOUS
10
3.33727
20
-4.31063
11
3.33727
21
-4.34213
0
LINE
8
BLACK
6
CONTINUOUS
10
3.32152
20
-4.32638
11
3.35302
21
-4.32638
0
LINE
8
BLACK
6
CONTINUOUS
10
3.33727
20
-4.91063
11
3.33727
21
-4.94213
0
LINE
8
BLACK
6
CONTINUOUS
10
3.32152
20
-4.92638
11
3.35302
21
-4.92638
0
LINE
8
BLACK
6
CONTINUOUS
10
3.36299
20
-2.06122
11
3.36299
21
-2.09272
0
LINE
8
BLACK
6
CONTINUOUS
10
3.34724
20
-2.07697
11
3.37874
21
-2.07697
0
LINE
8
BLACK
6
CONTINUOUS
10
3.36299
20
-2.66122
11
3.36299
21
-2.69272
0
LINE
8
BLACK
6
CONTINUOUS
10
3.34724
20
-2.67697
11
3.37874
21
-2.67697
0
LINE
8
BLACK
6
CONTINUOUS
10
3.43727
20
-4.31063
11
3.43727
21
-4.34213
0
LINE
8
BLACK
6
CONTINUOUS
10
3.42152
20
-4.32638
11
3.45302
21
-4.32638
0
LINE
8
BLACK
6
CONTINUOUS
10
3.43727
20
-4.91063
11
3.43727
21
-4.94213
0
LINE
8
BLACK
6
CONTINUOUS
10
3.42152
20
-4.92638
11
3.45302
21
-4.92638
0
LINE
8
BLACK
6
CONTINUOUS
10
3.46299
20
-2.06122
11
3.46299
21
-2.09272
0
LINE
8
BLACK
6
CONTINUOUS
10
3.44724
20
-2.07697
11
3.47874
21
-2.07697
0
LINE
8
BLACK
6
CONTINUOUS
10
3.46299
20
-2.66122
11
3.46299
21
-2.69272
0
LINE
8
BLACK
6
CONTINUOUS
10
3.44724
20
-2.67697
11
3.47874
21
-2.67697
0
LINE
8
BLACK
6
CONTINUOUS
10
3.53727
20
-4.31063
11
3.53727
21
-4.34213
0
LINE
8
BLACK
6
CONTINUOUS
10
3.52152
20
-4.32638
11
3.55302
21
-4.32638
0
LINE
8
BLACK
6
CONTINUOUS
10
3.53727
20
-4.91063
11
3.53727
21
-4.94213
0
LINE
8
BLACK
6
CONTINUOUS
10
3.52152
20
-4.92638
11
3.55302
21
-4.92638
0
LINE
8
BLACK
6
CONTINUOUS
10
3.56299
20
-2.06122
11
3.56299
21
-2.09272
0
LINE
8
BLACK
6
CONTINUOUS
10
3.54724
20
-2.07697
11
3.57874
21
-2.07697
0
LINE
8
BLACK
6
CONTINUOUS
10
3.56299
20
-2.66122
11
3.56299
21
-2.69272
0
LINE
8
BLACK
6
CONTINUOUS
10
3.54724
20
-2.67697
11
3.57874
21
-2.67697
0
LINE
8
BLACK
6
CONTINUOUS
10
3.63727
20
-4.31063
11
3.63727
21
-4.34213
0
LINE
8
BLACK
6
CONTINUOUS
10
3.62152
20
-4.32638
11
3.65302
21
-4.32638
0
LINE
8
BLACK
6
CONTINUOUS
10
3.63727
20
-4.91063
11
3.63727
21
-4.94213
0
LINE
8
BLACK
6
CONTINUOUS
10
3.62152
20
-4.92638
11
3.65302
21
-4.92638
0
LINE
8
BLACK
6
CONTINUOUS
10
3.66299
20
-2.06122
11
3.66299
21
-2.09272
0
LINE
8
BLACK
6
CONTINUOUS
10
3.64724
20
-2.07697
11
3.67874
21
-2.07697
0
LINE
8
BLACK
6
CONTINUOUS
10
3.66299
20
-2.66122
11
3.66299
21
-2.69272
0
LINE
8
BLACK
6
CONTINUOUS
10
3.64724
20
-2.67697
11
3.67874
21
-2.67697
0
LINE
8
BLACK
6
CONTINUOUS
10
3.73727
20
-4.31063
11
3.73727
21
-4.34213
0
LINE
8
BLACK
6
CONTINUOUS
10
3.72152
20
-4.32638
11
3.75302
21
-4.32638
0
LINE
8
BLACK
6
CONTINUOUS
10
3.73727
20
-4.91063
11
3.73727
21
-4.94213
0
LINE
8
BLACK
6
CONTINUOUS
10
3.72152
20
-4.92638
11
3.75302
21
-4.92638
0
LINE
8
BLACK
6
CONTINUOUS
10
3.7378
20
-5.0126
11
3.7378
21
-5.04409
0
LINE
8
BLACK
6
CONTINUOUS
10
3.72205
20
-5.02835
11
3.75354
21
-5.02835
0
LINE
8
BLACK
6
CONTINUOUS
10
3.83622
20
-5.0126
11
3.83622
21
-5.04409
0
LINE
8
BLACK
6
CONTINUOUS
10
3.82047
20
-5.02835
11
3.85197
21
-5.02835
0
LINE
8
BLACK
6
CONTINUOUS
10
3.83727
20
-4.31063
11
3.83727
21
-4.34213
0
LINE
8
BLACK
6
CONTINUOUS
10
3.82152
20
-4.32638
11
3.85302
21
-4.32638
0
LINE
8
BLACK
6
CONTINUOUS
10
3.83727
20
-4.91063
11
3.83727
21
-4.94213
0
LINE
8
BLACK
6
CONTINUOUS
10
3.82152
20
-4.92638
11
3.85302
21
-4.92638
0
LINE
8
BLACK
6
CONTINUOUS
10
3.93727
20
-4.31063
11
3.93727
21
-4.34213
0
LINE
8
BLACK
6
CONTINUOUS
10
3.92152
20
-4.32638
11
3.95302
21
-4.32638
0
LINE
8
BLACK
6
CONTINUOUS
10
3.93727
20
-4.91063
11
3.93727
21
-4.94213
0
LINE
8
BLACK
6
CONTINUOUS
10
3.92152
20
-4.92638
11
3.95302
21
-4.92638
0
LINE
8
BLACK
6
CONTINUOUS
10
3.97264
20
-3.45
11
3.97264
21
-3.4815
0
LINE
8
BLACK
6
CONTINUOUS
10
3.95689
20
-3.46575
11
3.98839
21
-3.46575
0
LINE
8
BLACK
6
CONTINUOUS
10
4.07107
20
-3.45
11
4.07107
21
-3.4815
0
LINE
8
BLACK
6
CONTINUOUS
10
4.05532
20
-3.46575
11
4.08682
21
-3.46575
0
LINE
8
BLACK
6
CONTINUOUS
10
4.13976
20
-4.31063
11
4.13976
21
-4.34213
0
LINE
8
BLACK
6
CONTINUOUS
10
4.12402
20
-4.32638
11
4.15551
21
-4.32638
0
LINE
8
BLACK
6
CONTINUOUS
10
4.13976
20
-4.91063
11
4.13976
21
-4.94213
0
LINE
8
BLACK
6
CONTINUOUS
10
4.12402
20
-4.92638
11
4.15551
21
-4.92638
0
LINE
8
BLACK
6
CONTINUOUS
10
4.23976
20
-4.31063
11
4.23976
21
-4.34213
0
LINE
8
BLACK
6
CONTINUOUS
10
4.22402
20
-4.32638
11
4.25551
21
-4.32638
0
LINE
8
BLACK
6
CONTINUOUS
10
4.23976
20
-4.91063
11
4.23976
21
-4.94213
0
LINE
8
BLACK
6
CONTINUOUS
10
4.22402
20
-4.92638
11
4.25551
21
-4.92638
0
LINE
8
BLACK
6
CONTINUOUS
10
4.33976
20
-4.31063
11
4.33976
21
-4.34213
0
LINE
8
BLACK
6
CONTINUOUS
10
4.32402
20
-4.32638
11
4.35551
21
-4.32638
0
LINE
8
BLACK
6
CONTINUOUS
10
4.33976
20
-4.91063
11
4.33976
21
-4.94213
0
LINE
8
BLACK
6
CONTINUOUS
10
4.32402
20
-4.92638
11
4.35551
21
-4.92638
0
LINE
8
BLACK
6
CONTINUOUS
10
4.38878
20
-3.06142
11
4.38878
21
-3.09291
0
LINE
8
BLACK
6
CONTINUOUS
10
4.37303
20
-3.07717
11
4.40453
21
-3.07717
0
LINE
8
BLACK
6
CONTINUOUS
10
4.38878
20
-3.36142
11
4.38878
21
-3.39291
0
LINE
8
BLACK
6
CONTINUOUS
10
4.37303
20
-3.37717
11
4.40453
21
-3.37717
0
LINE
8
BLACK
6
CONTINUOUS
10
4.43976
20
-4.31063
11
4.43976
21
-4.34213
0
LINE
8
BLACK
6
CONTINUOUS
10
4.42402
20
-4.32638
11
4.45551
21
-4.32638
0
LINE
8
BLACK
6
CONTINUOUS
10
4.43976
20
-4.91063
11
4.43976
21
-4.94213
0
LINE
8
BLACK
6
CONTINUOUS
10
4.42402
20
-4.92638
11
4.45551
21
-4.92638
0
LINE
8
BLACK
6
CONTINUOUS
10
4.46614
20
-2.06634
11
4.46614
21
-2.09783
0
LINE
8
BLACK
6
CONTINUOUS
10
4.45039
20
-2.08209
11
4.48189
21
-2.08209
0
LINE
8
BLACK
6
CONTINUOUS
10
4.46614
20
-2.66634
11
4.46614
21
-2.69783
0
LINE
8
BLACK
6
CONTINUOUS
10
4.45039
20
-2.68209
11
4.48189
21
-2.68209
0
LINE
8
BLACK
6
CONTINUOUS
10
4.48878
20
-3.06142
11
4.48878
21
-3.09291
0
LINE
8
BLACK
6
CONTINUOUS
10
4.47303
20
-3.07717
11
4.50453
21
-3.07717
0
LINE
8
BLACK
6
CONTINUOUS
10
4.48878
20
-3.36142
11
4.48878
21
-3.39291
0
LINE
8
BLACK
6
CONTINUOUS
10
4.47303
20
-3.37717
11
4.50453
21
-3.37717
0
LINE
8
BLACK
6
CONTINUOUS
10
4.53976
20
-4.31063
11
4.53976
21
-4.34213
0
LINE
8
BLACK
6
CONTINUOUS
10
4.52402
20
-4.32638
11
4.55551
21
-4.32638
0
LINE
8
BLACK
6
CONTINUOUS
10
4.53976
20
-4.91063
11
4.53976
21
-4.94213
0
LINE
8
BLACK
6
CONTINUOUS
10
4.52402
20
-4.92638
11
4.55551
21
-4.92638
0
LINE
8
BLACK
6
CONTINUOUS
10
4.56614
20
-2.06634
11
4.56614
21
-2.09783
0
LINE
8
BLACK
6
CONTINUOUS
10
4.55039
20
-2.08209
11
4.58189
21
-2.08209
0
LINE
8
BLACK
6
CONTINUOUS
10
4.56614
20
-2.66634
11
4.56614
21
-2.69783
0
LINE
8
BLACK
6
CONTINUOUS
10
4.55039
20
-2.68209
11
4.58189
21
-2.68209
0
LINE
8
BLACK
6
CONTINUOUS
10
4.58878
20
-3.06142
11
4.58878
21
-3.09291
0
LINE
8
BLACK
6
CONTINUOUS
10
4.57303
20
-3.07717
11
4.60453
21
-3.07717
0
LINE
8
BLACK
6
CONTINUOUS
10
4.58878
20
-3.36142
11
4.58878
21
-3.39291
0
LINE
8
BLACK
6
CONTINUOUS
10
4.57303
20
-3.37717
11
4.60453
21
-3.37717
0
LINE
8
BLACK
6
CONTINUOUS
10
4.63976
20
-4.31063
11
4.63976
21
-4.34213
0
LINE
8
BLACK
6
CONTINUOUS
10
4.62402
20
-4.32638
11
4.65551
21
-4.32638
0
LINE
8
BLACK
6
CONTINUOUS
10
4.63976
20
-4.91063
11
4.63976
21
-4.94213
0
LINE
8
BLACK
6
CONTINUOUS
10
4.62402
20
-4.92638
11
4.65551
21
-4.92638
0
LINE
8
BLACK
6
CONTINUOUS
10
4.66614
20
-2.06634
11
4.66614
21
-2.09783
0
LINE
8
BLACK
6
CONTINUOUS
10
4.65039
20
-2.08209
11
4.68189
21
-2.08209
0
LINE
8
BLACK
6
CONTINUOUS
10
4.66614
20
-2.66634
11
4.66614
21
-2.69783
0
LINE
8
BLACK
6
CONTINUOUS
10
4.65039
20
-2.68209
11
4.68189
21
-2.68209
0
LINE
8
BLACK
6
CONTINUOUS
10
4.68878
20
-3.06142
11
4.68878
21
-3.09291
0
LINE
8
BLACK
6
CONTINUOUS
10
4.67303
20
-3.07717
11
4.70453
21
-3.07717
0
LINE
8
BLACK
6
CONTINUOUS
10
4.68878
20
-3.36142
11
4.68878
21
-3.39291
0
LINE
8
BLACK
6
CONTINUOUS
10
4.67303
20
-3.37717
11
4.70453
21
-3.37717
0
LINE
8
BLACK
6
CONTINUOUS
10
4.73976
20
-4.31063
11
4.73976
21
-4.34213
0
LINE
8
BLACK
6
CONTINUOUS
10
4.72402
20
-4.32638
11
4.75551
21
-4.32638
0
LINE
8
BLACK
6
CONTINUOUS
10
4.73976
20
-4.91063
11
4.73976
21
-4.94213
0
LINE
8
BLACK
6
CONTINUOUS
10
4.72402
20
-4.92638
11
4.75551
21
-4.92638
0
LINE
8
BLACK
6
CONTINUOUS
10
4.76614
20
-2.06634
11
4.76614
21
-2.09783
0
LINE
8
BLACK
6
CONTINUOUS
10
4.75039
20
-2.08209
11
4.78189
21
-2.08209
0
LINE
8
BLACK
6
CONTINUOUS
10
4.76614
20
-2.66634
11
4.76614
21
-2.69783
0
LINE
8
BLACK
6
CONTINUOUS
10
4.75039
20
-2.68209
11
4.78189
21
-2.68209
0
LINE
8
BLACK
6
CONTINUOUS
10
4.78878
20
-3.06142
11
4.78878
21
-3.09291
0
LINE
8
BLACK
6
CONTINUOUS
10
4.77303
20
-3.07717
11
4.80453
21
-3.07717
0
LINE
8
BLACK
6
CONTINUOUS
10
4.78878
20
-3.36142
11
4.78878
21
-3.39291
0
LINE
8
BLACK
6
CONTINUOUS
10
4.77303
20
-3.37717
11
4.80453
21
-3.37717
0
LINE
8
BLACK
6
CONTINUOUS
10
4.83976
20
-4.31063
11
4.83976
21
-4.34213
0
LINE
8
BLACK
6
CONTINUOUS
10
4.82402
20
-4.32638
11
4.85551
21
-4.32638
0
LINE
8
BLACK
6
CONTINUOUS
10
4.83976
20
-4.91063
11
4.83976
21
-4.94213
0
LINE
8
BLACK
6
CONTINUOUS
10
4.82402
20
-4.92638
11
4.85551
21
-4.92638
0
LINE
8
BLACK
6
CONTINUOUS
10
4.86614
20
-2.06634
11
4.86614
21
-2.09783
0
LINE
8
BLACK
6
CONTINUOUS
10
4.85039
20
-2.08209
11
4.88189
21
-2.08209
0
LINE
8
BLACK
6
CONTINUOUS
10
4.86614
20
-2.66634
11
4.86614
21
-2.69783
0
LINE
8
BLACK
6
CONTINUOUS
10
4.85039
20
-2.68209
11
4.88189
21
-2.68209
0
LINE
8
BLACK
6
CONTINUOUS
10
4.88878
20
-3.06142
11
4.88878
21
-3.09291
0
LINE
8
BLACK
6
CONTINUOUS
10
4.87303
20
-3.07717
11
4.90453
21
-3.07717
0
LINE
8
BLACK
6
CONTINUOUS
10
4.88878
20
-3.36142
11
4.88878
21
-3.39291
0
LINE
8
BLACK
6
CONTINUOUS
10
4.87303
20
-3.37717
11
4.90453
21
-3.37717
0
LINE
8
BLACK
6
CONTINUOUS
10
4.93976
20
-4.31063
11
4.93976
21
-4.34213
0
LINE
8
BLACK
6
CONTINUOUS
10
4.92402
20
-4.32638
11
4.95551
21
-4.32638
0
LINE
8
BLACK
6
CONTINUOUS
10
4.93976
20
-4.91063
11
4.93976
21
-4.94213
0
LINE
8
BLACK
6
CONTINUOUS
10
4.92402
20
-4.92638
11
4.95551
21
-4.92638
0
LINE
8
BLACK
6
CONTINUOUS
10
4.96614
20
-2.06634
11
4.96614
21
-2.09783
0
LINE
8
BLACK
6
CONTINUOUS
10
4.95039
20
-2.08209
11
4.98189
21
-2.08209
0
LINE
8
BLACK
6
CONTINUOUS
10
4.96614
20
-2.66634
11
4.96614
21
-2.69783
0
LINE
8
BLACK
6
CONTINUOUS
10
4.95039
20
-2.68209
11
4.98189
21
-2.68209
0
LINE
8
BLACK
6
CONTINUOUS
10
4.98878
20
-3.06142
11
4.98878
21
-3.09291
0
LINE
8
BLACK
6
CONTINUOUS
10
4.97303
20
-3.07717
11
5.00453
21
-3.07717
0
LINE
8
BLACK
6
CONTINUOUS
10
4.98878
20
-3.36142
11
4.98878
21
-3.39291
0
LINE
8
BLACK
6
CONTINUOUS
10
4.97303
20
-3.37717
11
5.00453
21
-3.37717
0
LINE
8
BLACK
6
CONTINUOUS
10
5.03976
20
-4.31063
11
5.03976
21
-4.34213
0
LINE
8
BLACK
6
CONTINUOUS
10
5.02402
20
-4.32638
11
5.05551
21
-4.32638
0
LINE
8
BLACK
6
CONTINUOUS
10
5.03976
20
-4.91063
11
5.03976
21
-4.94213
0
LINE
8
BLACK
6
CONTINUOUS
10
5.02402
20
-4.92638
11
5.05551
21
-4.92638
0
LINE
8
BLACK
6
CONTINUOUS
10
5.06614
20
-2.06634
11
5.06614
21
-2.09783
0
LINE
8
BLACK
6
CONTINUOUS
10
5.05039
20
-2.08209
11
5.08189
21
-2.08209
0
LINE
8
BLACK
6
CONTINUOUS
10
5.06614
20
-2.66634
11
5.06614
21
-2.69783
0
LINE
8
BLACK
6
CONTINUOUS
10
5.05039
20
-2.68209
11
5.08189
21
-2.68209
0
LINE
8
BLACK
6
CONTINUOUS
10
5.13976
20
-4.31063
11
5.13976
21
-4.34213
0
LINE
8
BLACK
6
CONTINUOUS
10
5.12402
20
-4.32638
11
5.15551
21
-4.32638
0
LINE
8
BLACK
6
CONTINUOUS
10
5.13976
20
-4.91063
11
5.13976
21
-4.94213
0
LINE
8
BLACK
6
CONTINUOUS
10
5.12402
20
-4.92638
11
5.15551
21
-4.92638
0
LINE
8
BLACK
6
CONTINUOUS
10
5.1565
20
-3.06339
11
5.1565
21
-3.09488
0
LINE
8
BLACK
6
CONTINUOUS
10
5.14075
20
-3.07913
11
5.17224
21
-3.07913
0
LINE
8
BLACK
6
CONTINUOUS
10
5.1565
20
-3.36339
11
5.1565
21
-3.39488
0
LINE
8
BLACK
6
CONTINUOUS
10
5.14075
20
-3.37913
11
5.17224
21
-3.37913
0
LINE
8
BLACK
6
CONTINUOUS
10
5.16614
20
-2.06634
11
5.16614
21
-2.09783
0
LINE
8
BLACK
6
CONTINUOUS
10
5.15039
20
-2.08209
11
5.18189
21
-2.08209
0
LINE
8
BLACK
6
CONTINUOUS
10
5.16614
20
-2.66634
11
5.16614
21
-2.69783
0
LINE
8
BLACK
6
CONTINUOUS
10
5.15039
20
-2.68209
11
5.18189
21
-2.68209
0
LINE
8
BLACK
6
CONTINUOUS
10
5.23976
20
-4.31063
11
5.23976
21
-4.34213
0
LINE
8
BLACK
6
CONTINUOUS
10
5.22402
20
-4.32638
11
5.25551
21
-4.32638
0
LINE
8
BLACK
6
CONTINUOUS
10
5.23976
20
-4.91063
11
5.23976
21
-4.94213
0
LINE
8
BLACK
6
CONTINUOUS
10
5.22402
20
-4.92638
11
5.25551
21
-4.92638
0
LINE
8
BLACK
6
CONTINUOUS
10
5.2565
20
-3.06339
11
5.2565
21
-3.09488
0
LINE
8
BLACK
6
CONTINUOUS
10
5.24075
20
-3.07913
11
5.27224
21
-3.07913
0
LINE
8
BLACK
6
CONTINUOUS
10
5.2565
20
-3.36339
11
5.2565
21
-3.39488
0
LINE
8
BLACK
6
CONTINUOUS
10
5.24075
20
-3.37913
11
5.27224
21
-3.37913
0
LINE
8
BLACK
6
CONTINUOUS
10
5.26614
20
-2.06634
11
5.26614
21
-2.09783
0
LINE
8
BLACK
6
CONTINUOUS
10
5.25039
20
-2.08209
11
5.28189
21
-2.08209
0
LINE
8
BLACK
6
CONTINUOUS
10
5.26614
20
-2.66634
11
5.26614
21
-2.69783
0
LINE
8
BLACK
6
CONTINUOUS
10
5.25039
20
-2.68209
11
5.28189
21
-2.68209
0
LINE
8
BLACK
6
CONTINUOUS
10
5.33976
20
-4.31063
11
5.33976
21
-4.34213
0
LINE
8
BLACK
6
CONTINUOUS
10
5.32402
20
-4.32638
11
5.35551
21
-4.32638
0
LINE
8
BLACK
6
CONTINUOUS
10
5.33976
20
-4.91063
11
5.33976
21
-4.94213
0
LINE
8
BLACK
6
CONTINUOUS
10
5.32402
20
-4.92638
11
5.35551
21
-4.92638
0
LINE
8
BLACK
6
CONTINUOUS
10
5.3565
20
-3.06339
11
5.3565
21
-3.09488
0
LINE
8
BLACK
6
CONTINUOUS
10
5.34075
20
-3.07913
11
5.37224
21
-3.07913
0
LINE
8
BLACK
6
CONTINUOUS
10
5.3565
20
-3.36339
11
5.3565
21
-3.39488
0
LINE
8
BLACK
6
CONTINUOUS
10
5.34075
20
-3.37913
11
5.37224
21
-3.37913
0
LINE
8
BLACK
6
CONTINUOUS
10
5.36614
20
-2.06634
11
5.36614
21
-2.09783
0
LINE
8
BLACK
6
CONTINUOUS
10
5.35039
20
-2.08209
11
5.38189
21
-2.08209
0
LINE
8
BLACK
6
CONTINUOUS
10
5.36614
20
-2.66634
11
5.36614
21
-2.69783
0
LINE
8
BLACK
6
CONTINUOUS
10
5.35039
20
-2.68209
11
5.38189
21
-2.68209
0
LINE
8
BLACK
6
CONTINUOUS
10
5.43976
20
-4.31063
11
5.43976
21
-4.34213
0
LINE
8
BLACK
6
CONTINUOUS
10
5.42402
20
-4.32638
11
5.45551
21
-4.32638
0
LINE
8
BLACK
6
CONTINUOUS
10
5.43976
20
-4.91063
11
5.43976
21
-4.94213
0
LINE
8
BLACK
6
CONTINUOUS
10
5.42402
20
-4.92638
11
5.45551
21
-4.92638
0
LINE
8
BLACK
6
CONTINUOUS
10
5.4565
20
-3.06339
11
5.4565
21
-3.09488
0
LINE
8
BLACK
6
CONTINUOUS
10
5.44075
20
-3.07913
11
5.47224
21
-3.07913
0
LINE
8
BLACK
6
CONTINUOUS
10
5.4565
20
-3.36339
11
5.4565
21
-3.39488
0
LINE
8
BLACK
6
CONTINUOUS
10
5.44075
20
-3.37913
11
5.47224
21
-3.37913
0
LINE
8
BLACK
6
CONTINUOUS
10
5.46614
20
-2.06634
11
5.46614
21
-2.09783
0
LINE
8
BLACK
6
CONTINUOUS
10
5.45039
20
-2.08209
11
5.48189
21
-2.08209
0
LINE
8
BLACK
6
CONTINUOUS
10
5.46614
20
-2.66634
11
5.46614
21
-2.69783
0
LINE
8
BLACK
6
CONTINUOUS
10
5.45039
20
-2.68209
11
5.48189
21
-2.68209
0
LINE
8
BLACK
6
CONTINUOUS
10
5.52559
20
-5.01457
11
5.52559
21
-5.04606
0
LINE
8
BLACK
6
CONTINUOUS
10
5.50984
20
-5.03031
11
5.54134
21
-5.03031
0
LINE
8
BLACK
6
CONTINUOUS
10
5.53976
20
-4.31063
11
5.53976
21
-4.34213
0
LINE
8
BLACK
6
CONTINUOUS
10
5.52402
20
-4.32638
11
5.55551
21
-4.32638
0
LINE
8
BLACK
6
CONTINUOUS
10
5.53976
20
-4.91063
11
5.53976
21
-4.94213
0
LINE
8
BLACK
6
CONTINUOUS
10
5.52402
20
-4.92638
11
5.55551
21
-4.92638
0
LINE
8
BLACK
6
CONTINUOUS
10
5.5565
20
-3.06339
11
5.5565
21
-3.09488
0
LINE
8
BLACK
6
CONTINUOUS
10
5.54075
20
-3.07913
11
5.57224
21
-3.07913
0
LINE
8
BLACK
6
CONTINUOUS
10
5.5565
20
-3.36339
11
5.5565
21
-3.39488
0
LINE
8
BLACK
6
CONTINUOUS
10
5.54075
20
-3.37913
11
5.57224
21
-3.37913
0
LINE
8
BLACK
6
CONTINUOUS
10
5.56614
20
-2.06634
11
5.56614
21
-2.09783
0
LINE
8
BLACK
6
CONTINUOUS
10
5.55039
20
-2.08209
11
5.58189
21
-2.08209
0
LINE
8
BLACK
6
CONTINUOUS
10
5.56614
20
-2.66634
11
5.56614
21
-2.69783
0
LINE
8
BLACK
6
CONTINUOUS
10
5.55039
20
-2.68209
11
5.58189
21
-2.68209
0
LINE
8
BLACK
6
CONTINUOUS
10
5.62402
20
-5.01457
11
5.62402
21
-5.04606
0
LINE
8
BLACK
6
CONTINUOUS
10
5.60827
20
-5.03031
11
5.63976
21
-5.03031
0
LINE
8
BLACK
6
CONTINUOUS
10
5.63976
20
-4.31063
11
5.63976
21
-4.34213
0
LINE
8
BLACK
6
CONTINUOUS
10
5.62402
20
-4.32638
11
5.65551
21
-4.32638
0
LINE
8
BLACK
6
CONTINUOUS
10
5.63976
20
-4.91063
11
5.63976
21
-4.94213
0
LINE
8
BLACK
6
CONTINUOUS
10
5.62402
20
-4.92638
11
5.65551
21
-4.92638
0
LINE
8
BLACK
6
CONTINUOUS
10
5.6565
20
-3.06339
11
5.6565
21
-3.09488
0
LINE
8
BLACK
6
CONTINUOUS
10
5.64075
20
-3.07913
11
5.67224
21
-3.07913
0
LINE
8
BLACK
6
CONTINUOUS
10
5.6565
20
-3.36339
11
5.6565
21
-3.39488
0
LINE
8
BLACK
6
CONTINUOUS
10
5.64075
20
-3.37913
11
5.67224
21
-3.37913
0
LINE
8
BLACK
6
CONTINUOUS
10
5.66614
20
-2.06634
11
5.66614
21
-2.09783
0
LINE
8
BLACK
6
CONTINUOUS
10
5.65039
20
-2.08209
11
5.68189
21
-2.08209
0
LINE
8
BLACK
6
CONTINUOUS
10
5.66614
20
-2.66634
11
5.66614
21
-2.69783
0
LINE
8
BLACK
6
CONTINUOUS
10
5.65039
20
-2.68209
11
5.68189
21
-2.68209
0
LINE
8
BLACK
6
CONTINUOUS
10
5.7565
20
-3.06339
11
5.7565
21
-3.09488
0
LINE
8
BLACK
6
CONTINUOUS
10
5.74075
20
-3.07913
11
5.77224
21
-3.07913
0
LINE
8
BLACK
6
CONTINUOUS
10
5.7565
20
-3.36339
11
5.7565
21
-3.39488
0
LINE
8
BLACK
6
CONTINUOUS
10
5.74075
20
-3.37913
11
5.77224
21
-3.37913
0
LINE
8
BLACK
6
CONTINUOUS
10
5.76614
20
-2.06634
11
5.76614
21
-2.09783
0
LINE
8
BLACK
6
CONTINUOUS
10
5.75039
20
-2.08209
11
5.78189
21
-2.08209
0
LINE
8
BLACK
6
CONTINUOUS
10
5.76614
20
-2.66634
11
5.76614
21
-2.69783
0
LINE
8
BLACK
6
CONTINUOUS
10
5.75039
20
-2.68209
11
5.78189
21
-2.68209
0
LINE
8
BLACK
6
CONTINUOUS
10
2.16386
20
-5.93168
11
2.16386
21
-5.85294
0
LINE
8
BLACK
6
CONTINUOUS
10
2.16386
20
-5.85294
11
2.18261
21
-5.85294
0
LINE
8
BLACK
6
CONTINUOUS
10
2.18261
20
-5.85294
11
2.19385
21
-5.85669
0
LINE
8
BLACK
6
CONTINUOUS
10
2.19385
20
-5.85669
11
2.20135
21
-5.86419
0
LINE
8
BLACK
6
CONTINUOUS
10
2.20135
20
-5.86419
11
2.2051
21
-5.87169
0
LINE
8
BLACK
6
CONTINUOUS
10
2.2051
20
-5.87169
11
2.20885
21
-5.88669
0
LINE
8
BLACK
6
CONTINUOUS
10
2.20885
20
-5.88669
11
2.20885
21
-5.89794
0
LINE
8
BLACK
6
CONTINUOUS
10
2.20885
20
-5.89794
11
2.2051
21
-5.91294
0
LINE
8
BLACK
6
CONTINUOUS
10
2.2051
20
-5.91294
11
2.20135
21
-5.92043
0
LINE
8
BLACK
6
CONTINUOUS
10
2.20135
20
-5.92043
11
2.19385
21
-5.92793
0
LINE
8
BLACK
6
CONTINUOUS
10
2.19385
20
-5.92793
11
2.18261
21
-5.93168
0
LINE
8
BLACK
6
CONTINUOUS
10
2.18261
20
-5.93168
11
2.16386
21
-5.93168
0
LINE
8
BLACK
6
CONTINUOUS
10
2.2426
20
-5.93168
11
2.2426
21
-5.87919
0
LINE
8
BLACK
6
CONTINUOUS
10
2.2426
20
-5.89419
11
2.24635
21
-5.88669
0
LINE
8
BLACK
6
CONTINUOUS
10
2.24635
20
-5.88669
11
2.2501
21
-5.88294
0
LINE
8
BLACK
6
CONTINUOUS
10
2.2501
20
-5.88294
11
2.2576
21
-5.87919
0
LINE
8
BLACK
6
CONTINUOUS
10
2.2576
20
-5.87919
11
2.2651
21
-5.87919
0
LINE
8
BLACK
6
CONTINUOUS
10
2.29134
20
-5.93168
11
2.29134
21
-5.87919
0
LINE
8
BLACK
6
CONTINUOUS
10
2.29134
20
-5.85294
11
2.28759
21
-5.85669
0
LINE
8
BLACK
6
CONTINUOUS
10
2.28759
20
-5.85669
11
2.29134
21
-5.86044
0
LINE
8
BLACK
6
CONTINUOUS
10
2.29134
20
-5.86044
11
2.29509
21
-5.85669
0
LINE
8
BLACK
6
CONTINUOUS
10
2.29509
20
-5.85669
11
2.29134
21
-5.85294
0
LINE
8
BLACK
6
CONTINUOUS
10
2.29134
20
-5.85294
11
2.29134
21
-5.86044
0
LINE
8
BLACK
6
CONTINUOUS
10
2.34009
20
-5.93168
11
2.33259
21
-5.92793
0
LINE
8
BLACK
6
CONTINUOUS
10
2.33259
20
-5.92793
11
2.32884
21
-5.92043
0
LINE
8
BLACK
6
CONTINUOUS
10
2.32884
20
-5.92043
11
2.32884
21
-5.85294
0
LINE
8
BLACK
6
CONTINUOUS
10
2.38133
20
-5.93168
11
2.37383
21
-5.92793
0
LINE
8
BLACK
6
CONTINUOUS
10
2.37383
20
-5.92793
11
2.37008
21
-5.92043
0
LINE
8
BLACK
6
CONTINUOUS
10
2.37008
20
-5.92043
11
2.37008
21
-5.85294
0
LINE
8
BLACK
6
CONTINUOUS
10
2.45857
20
-5.93168
11
2.45857
21
-5.85294
0
LINE
8
BLACK
6
CONTINUOUS
10
2.45857
20
-5.85294
11
2.48482
21
-5.90919
0
LINE
8
BLACK
6
CONTINUOUS
10
2.48482
20
-5.90919
11
2.51106
21
-5.85294
0
LINE
8
BLACK
6
CONTINUOUS
10
2.51106
20
-5.85294
11
2.51106
21
-5.93168
0
LINE
8
BLACK
6
CONTINUOUS
10
2.58231
20
-5.93168
11
2.58231
21
-5.89044
0
LINE
8
BLACK
6
CONTINUOUS
10
2.58231
20
-5.89044
11
2.57856
21
-5.88294
0
LINE
8
BLACK
6
CONTINUOUS
10
2.57856
20
-5.88294
11
2.57106
21
-5.87919
0
LINE
8
BLACK
6
CONTINUOUS
10
2.57106
20
-5.87919
11
2.55606
21
-5.87919
0
LINE
8
BLACK
6
CONTINUOUS
10
2.55606
20
-5.87919
11
2.54856
21
-5.88294
0
LINE
8
BLACK
6
CONTINUOUS
10
2.58231
20
-5.92793
11
2.57481
21
-5.93168
0
LINE
8
BLACK
6
CONTINUOUS
10
2.57481
20
-5.93168
11
2.55606
21
-5.93168
0
LINE
8
BLACK
6
CONTINUOUS
10
2.55606
20
-5.93168
11
2.54856
21
-5.92793
0
LINE
8
BLACK
6
CONTINUOUS
10
2.54856
20
-5.92793
11
2.54481
21
-5.92043
0
LINE
8
BLACK
6
CONTINUOUS
10
2.54481
20
-5.92043
11
2.54481
21
-5.91294
0
LINE
8
BLACK
6
CONTINUOUS
10
2.54481
20
-5.91294
11
2.54856
21
-5.90544
0
LINE
8
BLACK
6
CONTINUOUS
10
2.54856
20
-5.90544
11
2.55606
21
-5.90169
0
LINE
8
BLACK
6
CONTINUOUS
10
2.55606
20
-5.90169
11
2.57481
21
-5.90169
0
LINE
8
BLACK
6
CONTINUOUS
10
2.57481
20
-5.90169
11
2.58231
21
-5.89794
0
LINE
8
BLACK
6
CONTINUOUS
10
2.6198
20
-5.87919
11
2.6198
21
-5.95793
0
LINE
8
BLACK
6
CONTINUOUS
10
2.6198
20
-5.88294
11
2.6273
21
-5.87919
0
LINE
8
BLACK
6
CONTINUOUS
10
2.6273
20
-5.87919
11
2.6423
21
-5.87919
0
LINE
8
BLACK
6
CONTINUOUS
10
2.6423
20
-5.87919
11
2.6498
21
-5.88294
0
LINE
8
BLACK
6
CONTINUOUS
10
2.6498
20
-5.88294
11
2.65355
21
-5.88669
0
LINE
8
BLACK
6
CONTINUOUS
10
2.65355
20
-5.88669
11
2.6573
21
-5.89419
0
LINE
8
BLACK
6
CONTINUOUS
10
2.6573
20
-5.89419
11
2.6573
21
-5.91669
0
LINE
8
BLACK
6
CONTINUOUS
10
2.6573
20
-5.91669
11
2.65355
21
-5.92418
0
LINE
8
BLACK
6
CONTINUOUS
10
2.65355
20
-5.92418
11
2.6498
21
-5.92793
0
LINE
8
BLACK
6
CONTINUOUS
10
2.6498
20
-5.92793
11
2.6423
21
-5.93168
0
LINE
8
BLACK
6
CONTINUOUS
10
2.6423
20
-5.93168
11
2.6273
21
-5.93168
0
LINE
8
BLACK
6
CONTINUOUS
10
2.6273
20
-5.93168
11
2.6198
21
-5.92793
0
LINE
8
BLACK
6
CONTINUOUS
10
2.69104
20
-5.92418
11
2.69479
21
-5.92793
0
LINE
8
BLACK
6
CONTINUOUS
10
2.69479
20
-5.92793
11
2.69104
21
-5.93168
0
LINE
8
BLACK
6
CONTINUOUS
10
2.69104
20
-5.93168
11
2.68729
21
-5.92793
0
LINE
8
BLACK
6
CONTINUOUS
10
2.68729
20
-5.92793
11
2.69104
21
-5.92418
0
LINE
8
BLACK
6
CONTINUOUS
10
2.69104
20
-5.92418
11
2.69104
21
-5.93168
0
LINE
8
BLACK
6
CONTINUOUS
10
2.69104
20
-5.88294
11
2.69479
21
-5.88669
0
LINE
8
BLACK
6
CONTINUOUS
10
2.69479
20
-5.88669
11
2.69104
21
-5.89044
0
LINE
8
BLACK
6
CONTINUOUS
10
2.69104
20
-5.89044
11
2.68729
21
-5.88669
0
LINE
8
BLACK
6
CONTINUOUS
10
2.68729
20
-5.88669
11
2.69104
21
-5.88294
0
LINE
8
BLACK
6
CONTINUOUS
10
2.69104
20
-5.88294
11
2.69104
21
-5.89044
0
LINE
8
BLACK
6
CONTINUOUS
10
2.05456
20
-6.0622
11
2.06637
21
-6.07402
0
LINE
8
BLACK
6
CONTINUOUS
10
2.06637
20
-6.0622
11
2.05456
21
-6.07402
0
LINE
8
BLACK
6
CONTINUOUS
10
2.17886
20
-6.0183
11
2.18636
21
-6.0183
0
LINE
8
BLACK
6
CONTINUOUS
10
2.18636
20
-6.0183
11
2.19385
21
-6.02205
0
LINE
8
BLACK
6
CONTINUOUS
10
2.19385
20
-6.02205
11
2.1976
21
-6.0258
0
LINE
8
BLACK
6
CONTINUOUS
10
2.1976
20
-6.0258
11
2.20135
21
-6.0333
0
LINE
8
BLACK
6
CONTINUOUS
10
2.20135
20
-6.0333
11
2.2051
21
-6.04829
0
LINE
8
BLACK
6
CONTINUOUS
10
2.2051
20
-6.04829
11
2.2051
21
-6.06704
0
LINE
8
BLACK
6
CONTINUOUS
10
2.2051
20
-6.06704
11
2.20135
21
-6.08204
0
LINE
8
BLACK
6
CONTINUOUS
10
2.20135
20
-6.08204
11
2.1976
21
-6.08954
0
LINE
8
BLACK
6
CONTINUOUS
10
2.1976
20
-6.08954
11
2.19385
21
-6.09329
0
LINE
8
BLACK
6
CONTINUOUS
10
2.19385
20
-6.09329
11
2.18636
21
-6.09704
0
LINE
8
BLACK
6
CONTINUOUS
10
2.18636
20
-6.09704
11
2.17886
21
-6.09704
0
LINE
8
BLACK
6
CONTINUOUS
10
2.17886
20
-6.09704
11
2.17136
21
-6.09329
0
LINE
8
BLACK
6
CONTINUOUS
10
2.17136
20
-6.09329
11
2.16761
21
-6.08954
0
LINE
8
BLACK
6
CONTINUOUS
10
2.16761
20
-6.08954
11
2.16386
21
-6.08204
0
LINE
8
BLACK
6
CONTINUOUS
10
2.16386
20
-6.08204
11
2.16011
21
-6.06704
0
LINE
8
BLACK
6
CONTINUOUS
10
2.16011
20
-6.06704
11
2.16011
21
-6.04829
0
LINE
8
BLACK
6
CONTINUOUS
10
2.16011
20
-6.04829
11
2.16386
21
-6.0333
0
LINE
8
BLACK
6
CONTINUOUS
10
2.16386
20
-6.0333
11
2.16761
21
-6.0258
0
LINE
8
BLACK
6
CONTINUOUS
10
2.16761
20
-6.0258
11
2.17136
21
-6.02205
0
LINE
8
BLACK
6
CONTINUOUS
10
2.17136
20
-6.02205
11
2.17886
21
-6.0183
0
LINE
8
BLACK
6
CONTINUOUS
10
2.23885
20
-6.08954
11
2.2426
21
-6.09329
0
LINE
8
BLACK
6
CONTINUOUS
10
2.2426
20
-6.09329
11
2.23885
21
-6.09704
0
LINE
8
BLACK
6
CONTINUOUS
10
2.23885
20
-6.09704
11
2.2351
21
-6.09329
0
LINE
8
BLACK
6
CONTINUOUS
10
2.2351
20
-6.09329
11
2.23885
21
-6.08954
0
LINE
8
BLACK
6
CONTINUOUS
10
2.23885
20
-6.08954
11
2.23885
21
-6.09704
0
LINE
8
BLACK
6
CONTINUOUS
10
2.26884
20
-6.0183
11
2.31759
21
-6.0183
0
LINE
8
BLACK
6
CONTINUOUS
10
2.31759
20
-6.0183
11
2.29134
21
-6.04829
0
LINE
8
BLACK
6
CONTINUOUS
10
2.29134
20
-6.04829
11
2.30259
21
-6.04829
0
LINE
8
BLACK
6
CONTINUOUS
10
2.30259
20
-6.04829
11
2.31009
21
-6.05204
0
LINE
8
BLACK
6
CONTINUOUS
10
2.31009
20
-6.05204
11
2.31384
21
-6.05579
0
LINE
8
BLACK
6
CONTINUOUS
10
2.31384
20
-6.05579
11
2.31759
21
-6.06329
0
LINE
8
BLACK
6
CONTINUOUS
10
2.31759
20
-6.06329
11
2.31759
21
-6.08204
0
LINE
8
BLACK
6
CONTINUOUS
10
2.31759
20
-6.08204
11
2.31384
21
-6.08954
0
LINE
8
BLACK
6
CONTINUOUS
10
2.31384
20
-6.08954
11
2.31009
21
-6.09329
0
LINE
8
BLACK
6
CONTINUOUS
10
2.31009
20
-6.09329
11
2.30259
21
-6.09704
0
LINE
8
BLACK
6
CONTINUOUS
10
2.30259
20
-6.09704
11
2.28009
21
-6.09704
0
LINE
8
BLACK
6
CONTINUOUS
10
2.28009
20
-6.09704
11
2.27259
21
-6.09329
0
LINE
8
BLACK
6
CONTINUOUS
10
2.27259
20
-6.09329
11
2.26884
21
-6.08954
0
LINE
8
BLACK
6
CONTINUOUS
10
2.36633
20
-6.0183
11
2.37383
21
-6.0183
0
LINE
8
BLACK
6
CONTINUOUS
10
2.37383
20
-6.0183
11
2.38133
21
-6.02205
0
LINE
8
BLACK
6
CONTINUOUS
10
2.38133
20
-6.02205
11
2.38508
21
-6.0258
0
LINE
8
BLACK
6
CONTINUOUS
10
2.38508
20
-6.0258
11
2.38883
21
-6.0333
0
LINE
8
BLACK
6
CONTINUOUS
10
2.38883
20
-6.0333
11
2.39258
21
-6.04829
0
LINE
8
BLACK
6
CONTINUOUS
10
2.39258
20
-6.04829
11
2.39258
21
-6.06704
0
LINE
8
BLACK
6
CONTINUOUS
10
2.39258
20
-6.06704
11
2.38883
21
-6.08204
0
LINE
8
BLACK
6
CONTINUOUS
10
2.38883
20
-6.08204
11
2.38508
21
-6.08954
0
LINE
8
BLACK
6
CONTINUOUS
10
2.38508
20
-6.08954
11
2.38133
21
-6.09329
0
LINE
8
BLACK
6
CONTINUOUS
10
2.38133
20
-6.09329
11
2.37383
21
-6.09704
0
LINE
8
BLACK
6
CONTINUOUS
10
2.37383
20
-6.09704
11
2.36633
21
-6.09704
0
LINE
8
BLACK
6
CONTINUOUS
10
2.36633
20
-6.09704
11
2.35883
21
-6.09329
0
LINE
8
BLACK
6
CONTINUOUS
10
2.35883
20
-6.09329
11
2.35508
21
-6.08954
0
LINE
8
BLACK
6
CONTINUOUS
10
2.35508
20
-6.08954
11
2.35133
21
-6.08204
0
LINE
8
BLACK
6
CONTINUOUS
10
2.35133
20
-6.08204
11
2.34758
21
-6.06704
0
LINE
8
BLACK
6
CONTINUOUS
10
2.34758
20
-6.06704
11
2.34758
21
-6.04829
0
LINE
8
BLACK
6
CONTINUOUS
10
2.34758
20
-6.04829
11
2.35133
21
-6.0333
0
LINE
8
BLACK
6
CONTINUOUS
10
2.35133
20
-6.0333
11
2.35508
21
-6.0258
0
LINE
8
BLACK
6
CONTINUOUS
10
2.35508
20
-6.0258
11
2.35883
21
-6.02205
0
LINE
8
BLACK
6
CONTINUOUS
10
2.35883
20
-6.02205
11
2.36633
21
-6.0183
0
LINE
8
BLACK
6
CONTINUOUS
10
2.44132
20
-6.0183
11
2.44882
21
-6.0183
0
LINE
8
BLACK
6
CONTINUOUS
10
2.44882
20
-6.0183
11
2.45632
21
-6.02205
0
LINE
8
BLACK
6
CONTINUOUS
10
2.45632
20
-6.02205
11
2.46007
21
-6.0258
0
LINE
8
BLACK
6
CONTINUOUS
10
2.46007
20
-6.0258
11
2.46382
21
-6.0333
0
LINE
8
BLACK
6
CONTINUOUS
10
2.46382
20
-6.0333
11
2.46757
21
-6.04829
0
LINE
8
BLACK
6
CONTINUOUS
10
2.46757
20
-6.04829
11
2.46757
21
-6.06704
0
LINE
8
BLACK
6
CONTINUOUS
10
2.46757
20
-6.06704
11
2.46382
21
-6.08204
0
LINE
8
BLACK
6
CONTINUOUS
10
2.46382
20
-6.08204
11
2.46007
21
-6.08954
0
LINE
8
BLACK
6
CONTINUOUS
10
2.46007
20
-6.08954
11
2.45632
21
-6.09329
0
LINE
8
BLACK
6
CONTINUOUS
10
2.45632
20
-6.09329
11
2.44882
21
-6.09704
0
LINE
8
BLACK
6
CONTINUOUS
10
2.44882
20
-6.09704
11
2.44132
21
-6.09704
0
LINE
8
BLACK
6
CONTINUOUS
10
2.44132
20
-6.09704
11
2.43382
21
-6.09329
0
LINE
8
BLACK
6
CONTINUOUS
10
2.43382
20
-6.09329
11
2.43007
21
-6.08954
0
LINE
8
BLACK
6
CONTINUOUS
10
2.43007
20
-6.08954
11
2.42633
21
-6.08204
0
LINE
8
BLACK
6
CONTINUOUS
10
2.42633
20
-6.08204
11
2.42258
21
-6.06704
0
LINE
8
BLACK
6
CONTINUOUS
10
2.42258
20
-6.06704
11
2.42258
21
-6.04829
0
LINE
8
BLACK
6
CONTINUOUS
10
2.42258
20
-6.04829
11
2.42633
21
-6.0333
0
LINE
8
BLACK
6
CONTINUOUS
10
2.42633
20
-6.0333
11
2.43007
21
-6.0258
0
LINE
8
BLACK
6
CONTINUOUS
10
2.43007
20
-6.0258
11
2.43382
21
-6.02205
0
LINE
8
BLACK
6
CONTINUOUS
10
2.43382
20
-6.02205
11
2.44132
21
-6.0183
0
LINE
8
BLACK
6
CONTINUOUS
10
2.50132
20
-6.09704
11
2.50132
21
-6.04454
0
LINE
8
BLACK
6
CONTINUOUS
10
2.50132
20
-6.05204
11
2.50507
21
-6.04829
0
LINE
8
BLACK
6
CONTINUOUS
10
2.50507
20
-6.04829
11
2.51256
21
-6.04454
0
LINE
8
BLACK
6
CONTINUOUS
10
2.51256
20
-6.04454
11
2.52381
21
-6.04454
0
LINE
8
BLACK
6
CONTINUOUS
10
2.52381
20
-6.04454
11
2.53131
21
-6.04829
0
LINE
8
BLACK
6
CONTINUOUS
10
2.53131
20
-6.04829
11
2.53506
21
-6.05579
0
LINE
8
BLACK
6
CONTINUOUS
10
2.53506
20
-6.05579
11
2.53506
21
-6.09704
0
LINE
8
BLACK
6
CONTINUOUS
10
2.53506
20
-6.05579
11
2.53881
21
-6.04829
0
LINE
8
BLACK
6
CONTINUOUS
10
2.53881
20
-6.04829
11
2.54631
21
-6.04454
0
LINE
8
BLACK
6
CONTINUOUS
10
2.54631
20
-6.04454
11
2.55756
21
-6.04454
0
LINE
8
BLACK
6
CONTINUOUS
10
2.55756
20
-6.04454
11
2.56506
21
-6.04829
0
LINE
8
BLACK
6
CONTINUOUS
10
2.56506
20
-6.04829
11
2.56881
21
-6.05579
0
LINE
8
BLACK
6
CONTINUOUS
10
2.56881
20
-6.05579
11
2.56881
21
-6.09704
0
LINE
8
BLACK
6
CONTINUOUS
10
2.6063
20
-6.09704
11
2.6063
21
-6.04454
0
LINE
8
BLACK
6
CONTINUOUS
10
2.6063
20
-6.05204
11
2.61005
21
-6.04829
0
LINE
8
BLACK
6
CONTINUOUS
10
2.61005
20
-6.04829
11
2.61755
21
-6.04454
0
LINE
8
BLACK
6
CONTINUOUS
10
2.61755
20
-6.04454
11
2.6288
21
-6.04454
0
LINE
8
BLACK
6
CONTINUOUS
10
2.6288
20
-6.04454
11
2.6363
21
-6.04829
0
LINE
8
BLACK
6
CONTINUOUS
10
2.6363
20
-6.04829
11
2.64005
21
-6.05579
0
LINE
8
BLACK
6
CONTINUOUS
10
2.64005
20
-6.05579
11
2.64005
21
-6.09704
0
LINE
8
BLACK
6
CONTINUOUS
10
2.64005
20
-6.05579
11
2.6438
21
-6.04829
0
LINE
8
BLACK
6
CONTINUOUS
10
2.6438
20
-6.04829
11
2.6513
21
-6.04454
0
LINE
8
BLACK
6
CONTINUOUS
10
2.6513
20
-6.04454
11
2.66255
21
-6.04454
0
LINE
8
BLACK
6
CONTINUOUS
10
2.66255
20
-6.04454
11
2.67004
21
-6.04829
0
LINE
8
BLACK
6
CONTINUOUS
10
2.67004
20
-6.04829
11
2.67379
21
-6.05579
0
LINE
8
BLACK
6
CONTINUOUS
10
2.67379
20
-6.05579
11
2.67379
21
-6.09704
0
LINE
8
BLACK
6
CONTINUOUS
10
2.81478
20
-6.01455
11
2.74728
21
-6.11579
0
LINE
8
BLACK
6
CONTINUOUS
10
2.90327
20
-6.0183
11
2.91076
21
-6.0183
0
LINE
8
BLACK
6
CONTINUOUS
10
2.91076
20
-6.0183
11
2.91826
21
-6.02205
0
LINE
8
BLACK
6
CONTINUOUS
10
2.91826
20
-6.02205
11
2.92201
21
-6.0258
0
LINE
8
BLACK
6
CONTINUOUS
10
2.92201
20
-6.0258
11
2.92576
21
-6.0333
0
LINE
8
BLACK
6
CONTINUOUS
10
2.92576
20
-6.0333
11
2.92951
21
-6.04829
0
LINE
8
BLACK
6
CONTINUOUS
10
2.92951
20
-6.04829
11
2.92951
21
-6.06704
0
LINE
8
BLACK
6
CONTINUOUS
10
2.92951
20
-6.06704
11
2.92576
21
-6.08204
0
LINE
8
BLACK
6
CONTINUOUS
10
2.92576
20
-6.08204
11
2.92201
21
-6.08954
0
LINE
8
BLACK
6
CONTINUOUS
10
2.92201
20
-6.08954
11
2.91826
21
-6.09329
0
LINE
8
BLACK
6
CONTINUOUS
10
2.91826
20
-6.09329
11
2.91076
21
-6.09704
0
LINE
8
BLACK
6
CONTINUOUS
10
2.91076
20
-6.09704
11
2.90327
21
-6.09704
0
LINE
8
BLACK
6
CONTINUOUS
10
2.90327
20
-6.09704
11
2.89577
21
-6.09329
0
LINE
8
BLACK
6
CONTINUOUS
10
2.89577
20
-6.09329
11
2.89202
21
-6.08954
0
LINE
8
BLACK
6
CONTINUOUS
10
2.89202
20
-6.08954
11
2.88827
21
-6.08204
0
LINE
8
BLACK
6
CONTINUOUS
10
2.88827
20
-6.08204
11
2.88452
21
-6.06704
0
LINE
8
BLACK
6
CONTINUOUS
10
2.88452
20
-6.06704
11
2.88452
21
-6.04829
0
LINE
8
BLACK
6
CONTINUOUS
10
2.88452
20
-6.04829
11
2.88827
21
-6.0333
0
LINE
8
BLACK
6
CONTINUOUS
10
2.88827
20
-6.0333
11
2.89202
21
-6.0258
0
LINE
8
BLACK
6
CONTINUOUS
10
2.89202
20
-6.0258
11
2.89577
21
-6.02205
0
LINE
8
BLACK
6
CONTINUOUS
10
2.89577
20
-6.02205
11
2.90327
21
-6.0183
0
LINE
8
BLACK
6
CONTINUOUS
10
2.96326
20
-6.08954
11
2.96701
21
-6.09329
0
LINE
8
BLACK
6
CONTINUOUS
10
2.96701
20
-6.09329
11
2.96326
21
-6.09704
0
LINE
8
BLACK
6
CONTINUOUS
10
2.96326
20
-6.09704
11
2.95951
21
-6.09329
0
LINE
8
BLACK
6
CONTINUOUS
10
2.95951
20
-6.09329
11
2.96326
21
-6.08954
0
LINE
8
BLACK
6
CONTINUOUS
10
2.96326
20
-6.08954
11
2.96326
21
-6.09704
0
LINE
8
BLACK
6
CONTINUOUS
10
3.01575
20
-6.0183
11
3.02325
21
-6.0183
0
LINE
8
BLACK
6
CONTINUOUS
10
3.02325
20
-6.0183
11
3.03075
21
-6.02205
0
LINE
8
BLACK
6
CONTINUOUS
10
3.03075
20
-6.02205
11
3.0345
21
-6.0258
0
LINE
8
BLACK
6
CONTINUOUS
10
3.0345
20
-6.0258
11
3.03825
21
-6.0333
0
LINE
8
BLACK
6
CONTINUOUS
10
3.03825
20
-6.0333
11
3.042
21
-6.04829
0
LINE
8
BLACK
6
CONTINUOUS
10
3.042
20
-6.04829
11
3.042
21
-6.06704
0
LINE
8
BLACK
6
CONTINUOUS
10
3.042
20
-6.06704
11
3.03825
21
-6.08204
0
LINE
8
BLACK
6
CONTINUOUS
10
3.03825
20
-6.08204
11
3.0345
21
-6.08954
0
LINE
8
BLACK
6
CONTINUOUS
10
3.0345
20
-6.08954
11
3.03075
21
-6.09329
0
LINE
8
BLACK
6
CONTINUOUS
10
3.03075
20
-6.09329
11
3.02325
21
-6.09704
0
LINE
8
BLACK
6
CONTINUOUS
10
3.02325
20
-6.09704
11
3.01575
21
-6.09704
0
LINE
8
BLACK
6
CONTINUOUS
10
3.01575
20
-6.09704
11
3.00825
21
-6.09329
0
LINE
8
BLACK
6
CONTINUOUS
10
3.00825
20
-6.09329
11
3.0045
21
-6.08954
0
LINE
8
BLACK
6
CONTINUOUS
10
3.0045
20
-6.08954
11
3.00075
21
-6.08204
0
LINE
8
BLACK
6
CONTINUOUS
10
3.00075
20
-6.08204
11
2.997
21
-6.06704
0
LINE
8
BLACK
6
CONTINUOUS
10
2.997
20
-6.06704
11
2.997
21
-6.04829
0
LINE
8
BLACK
6
CONTINUOUS
10
2.997
20
-6.04829
11
3.00075
21
-6.0333
0
LINE
8
BLACK
6
CONTINUOUS
10
3.00075
20
-6.0333
11
3.0045
21
-6.0258
0
LINE
8
BLACK
6
CONTINUOUS
10
3.0045
20
-6.0258
11
3.00825
21
-6.02205
0
LINE
8
BLACK
6
CONTINUOUS
10
3.00825
20
-6.02205
11
3.01575
21
-6.0183
0
LINE
8
BLACK
6
CONTINUOUS
10
3.11699
20
-6.09704
11
3.07199
21
-6.09704
0
LINE
8
BLACK
6
CONTINUOUS
10
3.09449
20
-6.09704
11
3.09449
21
-6.0183
0
LINE
8
BLACK
6
CONTINUOUS
10
3.09449
20
-6.0183
11
3.08699
21
-6.02955
0
LINE
8
BLACK
6
CONTINUOUS
10
3.08699
20
-6.02955
11
3.07949
21
-6.03705
0
LINE
8
BLACK
6
CONTINUOUS
10
3.07949
20
-6.03705
11
3.07199
21
-6.04079
0
LINE
8
BLACK
6
CONTINUOUS
10
3.19198
20
-6.09704
11
3.14699
21
-6.09704
0
LINE
8
BLACK
6
CONTINUOUS
10
3.16948
20
-6.09704
11
3.16948
21
-6.0183
0
LINE
8
BLACK
6
CONTINUOUS
10
3.16948
20
-6.0183
11
3.16198
21
-6.02955
0
LINE
8
BLACK
6
CONTINUOUS
10
3.16198
20
-6.02955
11
3.15448
21
-6.03705
0
LINE
8
BLACK
6
CONTINUOUS
10
3.15448
20
-6.03705
11
3.14699
21
-6.04079
0
LINE
8
BLACK
6
CONTINUOUS
10
3.23697
20
-6.05204
11
3.22947
21
-6.04829
0
LINE
8
BLACK
6
CONTINUOUS
10
3.22947
20
-6.04829
11
3.22573
21
-6.04454
0
LINE
8
BLACK
6
CONTINUOUS
10
3.22573
20
-6.04454
11
3.22198
21
-6.03705
0
LINE
8
BLACK
6
CONTINUOUS
10
3.22198
20
-6.03705
11
3.22198
21
-6.0333
0
LINE
8
BLACK
6
CONTINUOUS
10
3.22198
20
-6.0333
11
3.22573
21
-6.0258
0
LINE
8
BLACK
6
CONTINUOUS
10
3.22573
20
-6.0258
11
3.22947
21
-6.02205
0
LINE
8
BLACK
6
CONTINUOUS
10
3.22947
20
-6.02205
11
3.23697
21
-6.0183
0
LINE
8
BLACK
6
CONTINUOUS
10
3.23697
20
-6.0183
11
3.25197
21
-6.0183
0
LINE
8
BLACK
6
CONTINUOUS
10
3.25197
20
-6.0183
11
3.25947
21
-6.02205
0
LINE
8
BLACK
6
CONTINUOUS
10
3.25947
20
-6.02205
11
3.26322
21
-6.0258
0
LINE
8
BLACK
6
CONTINUOUS
10
3.26322
20
-6.0258
11
3.26697
21
-6.0333
0
LINE
8
BLACK
6
CONTINUOUS
10
3.26697
20
-6.0333
11
3.26697
21
-6.03705
0
LINE
8
BLACK
6
CONTINUOUS
10
3.26697
20
-6.03705
11
3.26322
21
-6.04454
0
LINE
8
BLACK
6
CONTINUOUS
10
3.26322
20
-6.04454
11
3.25947
21
-6.04829
0
LINE
8
BLACK
6
CONTINUOUS
10
3.25947
20
-6.04829
11
3.25197
21
-6.05204
0
LINE
8
BLACK
6
CONTINUOUS
10
3.25197
20
-6.05204
11
3.23697
21
-6.05204
0
LINE
8
BLACK
6
CONTINUOUS
10
3.23697
20
-6.05204
11
3.22947
21
-6.05579
0
LINE
8
BLACK
6
CONTINUOUS
10
3.22947
20
-6.05579
11
3.22573
21
-6.05954
0
LINE
8
BLACK
6
CONTINUOUS
10
3.22573
20
-6.05954
11
3.22198
21
-6.06704
0
LINE
8
BLACK
6
CONTINUOUS
10
3.22198
20
-6.06704
11
3.22198
21
-6.08204
0
LINE
8
BLACK
6
CONTINUOUS
10
3.22198
20
-6.08204
11
3.22573
21
-6.08954
0
LINE
8
BLACK
6
CONTINUOUS
10
3.22573
20
-6.08954
11
3.22947
21
-6.09329
0
LINE
8
BLACK
6
CONTINUOUS
10
3.22947
20
-6.09329
11
3.23697
21
-6.09704
0
LINE
8
BLACK
6
CONTINUOUS
10
3.23697
20
-6.09704
11
3.25197
21
-6.09704
0
LINE
8
BLACK
6
CONTINUOUS
10
3.25197
20
-6.09704
11
3.25947
21
-6.09329
0
LINE
8
BLACK
6
CONTINUOUS
10
3.25947
20
-6.09329
11
3.26322
21
-6.08954
0
LINE
8
BLACK
6
CONTINUOUS
10
3.26322
20
-6.08954
11
3.26697
21
-6.08204
0
LINE
8
BLACK
6
CONTINUOUS
10
3.26697
20
-6.08204
11
3.26697
21
-6.06704
0
LINE
8
BLACK
6
CONTINUOUS
10
3.26697
20
-6.06704
11
3.26322
21
-6.05954
0
LINE
8
BLACK
6
CONTINUOUS
10
3.26322
20
-6.05954
11
3.25947
21
-6.05579
0
LINE
8
BLACK
6
CONTINUOUS
10
3.25947
20
-6.05579
11
3.25197
21
-6.05204
0
LINE
8
BLACK
6
CONTINUOUS
10
3.29697
20
-6.0183
11
3.29697
21
-6.0333
0
LINE
8
BLACK
6
CONTINUOUS
10
3.32696
20
-6.0183
11
3.32696
21
-6.0333
0
LINE
8
BLACK
6
CONTINUOUS
10
3.43045
20
-6.12703
11
3.4267
21
-6.12328
0
LINE
8
BLACK
6
CONTINUOUS
10
3.4267
20
-6.12328
11
3.4192
21
-6.11204
0
LINE
8
BLACK
6
CONTINUOUS
10
3.4192
20
-6.11204
11
3.41545
21
-6.10454
0
LINE
8
BLACK
6
CONTINUOUS
10
3.41545
20
-6.10454
11
3.4117
21
-6.09329
0
LINE
8
BLACK
6
CONTINUOUS
10
3.4117
20
-6.09329
11
3.40795
21
-6.07454
0
LINE
8
BLACK
6
CONTINUOUS
10
3.40795
20
-6.07454
11
3.40795
21
-6.05954
0
LINE
8
BLACK
6
CONTINUOUS
10
3.40795
20
-6.05954
11
3.4117
21
-6.04079
0
LINE
8
BLACK
6
CONTINUOUS
10
3.4117
20
-6.04079
11
3.41545
21
-6.02955
0
LINE
8
BLACK
6
CONTINUOUS
10
3.41545
20
-6.02955
11
3.4192
21
-6.02205
0
LINE
8
BLACK
6
CONTINUOUS
10
3.4192
20
-6.02205
11
3.4267
21
-6.0108
0
LINE
8
BLACK
6
CONTINUOUS
10
3.4267
20
-6.0108
11
3.43045
21
-6.00705
0
LINE
8
BLACK
6
CONTINUOUS
10
3.50169
20
-6.09704
11
3.4567
21
-6.09704
0
LINE
8
BLACK
6
CONTINUOUS
10
3.47919
20
-6.09704
11
3.47919
21
-6.0183
0
LINE
8
BLACK
6
CONTINUOUS
10
3.47919
20
-6.0183
11
3.47169
21
-6.02955
0
LINE
8
BLACK
6
CONTINUOUS
10
3.47169
20
-6.02955
11
3.4642
21
-6.03705
0
LINE
8
BLACK
6
CONTINUOUS
10
3.4642
20
-6.03705
11
3.4567
21
-6.04079
0
LINE
8
BLACK
6
CONTINUOUS
10
3.55043
20
-6.0183
11
3.55793
21
-6.0183
0
LINE
8
BLACK
6
CONTINUOUS
10
3.55793
20
-6.0183
11
3.56543
21
-6.02205
0
LINE
8
BLACK
6
CONTINUOUS
10
3.56543
20
-6.02205
11
3.56918
21
-6.0258
0
LINE
8
BLACK
6
CONTINUOUS
10
3.56918
20
-6.0258
11
3.57293
21
-6.0333
0
LINE
8
BLACK
6
CONTINUOUS
10
3.57293
20
-6.0333
11
3.57668
21
-6.04829
0
LINE
8
BLACK
6
CONTINUOUS
10
3.57668
20
-6.04829
11
3.57668
21
-6.06704
0
LINE
8
BLACK
6
CONTINUOUS
10
3.57668
20
-6.06704
11
3.57293
21
-6.08204
0
LINE
8
BLACK
6
CONTINUOUS
10
3.57293
20
-6.08204
11
3.56918
21
-6.08954
0
LINE
8
BLACK
6
CONTINUOUS
10
3.56918
20
-6.08954
11
3.56543
21
-6.09329
0
LINE
8
BLACK
6
CONTINUOUS
10
3.56543
20
-6.09329
11
3.55793
21
-6.09704
0
LINE
8
BLACK
6
CONTINUOUS
10
3.55793
20
-6.09704
11
3.55043
21
-6.09704
0
LINE
8
BLACK
6
CONTINUOUS
10
3.55043
20
-6.09704
11
3.54294
21
-6.09329
0
LINE
8
BLACK
6
CONTINUOUS
10
3.54294
20
-6.09329
11
3.53919
21
-6.08954
0
LINE
8
BLACK
6
CONTINUOUS
10
3.53919
20
-6.08954
11
3.53544
21
-6.08204
0
LINE
8
BLACK
6
CONTINUOUS
10
3.53544
20
-6.08204
11
3.53169
21
-6.06704
0
LINE
8
BLACK
6
CONTINUOUS
10
3.53169
20
-6.06704
11
3.53169
21
-6.04829
0
LINE
8
BLACK
6
CONTINUOUS
10
3.53169
20
-6.04829
11
3.53544
21
-6.0333
0
LINE
8
BLACK
6
CONTINUOUS
10
3.53544
20
-6.0333
11
3.53919
21
-6.0258
0
LINE
8
BLACK
6
CONTINUOUS
10
3.53919
20
-6.0258
11
3.54294
21
-6.02205
0
LINE
8
BLACK
6
CONTINUOUS
10
3.54294
20
-6.02205
11
3.55043
21
-6.0183
0
LINE
8
BLACK
6
CONTINUOUS
10
3.64417
20
-6.0183
11
3.62917
21
-6.0183
0
LINE
8
BLACK
6
CONTINUOUS
10
3.62917
20
-6.0183
11
3.62168
21
-6.02205
0
LINE
8
BLACK
6
CONTINUOUS
10
3.62168
20
-6.02205
11
3.61793
21
-6.0258
0
LINE
8
BLACK
6
CONTINUOUS
10
3.61793
20
-6.0258
11
3.61043
21
-6.03705
0
LINE
8
BLACK
6
CONTINUOUS
10
3.61043
20
-6.03705
11
3.60668
21
-6.05204
0
LINE
8
BLACK
6
CONTINUOUS
10
3.60668
20
-6.05204
11
3.60668
21
-6.08204
0
LINE
8
BLACK
6
CONTINUOUS
10
3.60668
20
-6.08204
11
3.61043
21
-6.08954
0
LINE
8
BLACK
6
CONTINUOUS
10
3.61043
20
-6.08954
11
3.61418
21
-6.09329
0
LINE
8
BLACK
6
CONTINUOUS
10
3.61418
20
-6.09329
11
3.62168
21
-6.09704
0
LINE
8
BLACK
6
CONTINUOUS
10
3.62168
20
-6.09704
11
3.63667
21
-6.09704
0
LINE
8
BLACK
6
CONTINUOUS
10
3.63667
20
-6.09704
11
3.64417
21
-6.09329
0
LINE
8
BLACK
6
CONTINUOUS
10
3.64417
20
-6.09329
11
3.64792
21
-6.08954
0
LINE
8
BLACK
6
CONTINUOUS
10
3.64792
20
-6.08954
11
3.65167
21
-6.08204
0
LINE
8
BLACK
6
CONTINUOUS
10
3.65167
20
-6.08204
11
3.65167
21
-6.06329
0
LINE
8
BLACK
6
CONTINUOUS
10
3.65167
20
-6.06329
11
3.64792
21
-6.05579
0
LINE
8
BLACK
6
CONTINUOUS
10
3.64792
20
-6.05579
11
3.64417
21
-6.05204
0
LINE
8
BLACK
6
CONTINUOUS
10
3.64417
20
-6.05204
11
3.63667
21
-6.04829
0
LINE
8
BLACK
6
CONTINUOUS
10
3.63667
20
-6.04829
11
3.62168
21
-6.04829
0
LINE
8
BLACK
6
CONTINUOUS
10
3.62168
20
-6.04829
11
3.61418
21
-6.05204
0
LINE
8
BLACK
6
CONTINUOUS
10
3.61418
20
-6.05204
11
3.61043
21
-6.05579
0
LINE
8
BLACK
6
CONTINUOUS
10
3.61043
20
-6.05579
11
3.60668
21
-6.06329
0
LINE
8
BLACK
6
CONTINUOUS
10
3.73266
20
-6.09704
11
3.73266
21
-6.0183
0
LINE
8
BLACK
6
CONTINUOUS
10
3.76641
20
-6.09704
11
3.76641
21
-6.05579
0
LINE
8
BLACK
6
CONTINUOUS
10
3.76641
20
-6.05579
11
3.76266
21
-6.04829
0
LINE
8
BLACK
6
CONTINUOUS
10
3.76266
20
-6.04829
11
3.75516
21
-6.04454
0
LINE
8
BLACK
6
CONTINUOUS
10
3.75516
20
-6.04454
11
3.74391
21
-6.04454
0
LINE
8
BLACK
6
CONTINUOUS
10
3.74391
20
-6.04454
11
3.73641
21
-6.04829
0
LINE
8
BLACK
6
CONTINUOUS
10
3.73641
20
-6.04829
11
3.73266
21
-6.05204
0
LINE
8
BLACK
6
CONTINUOUS
10
3.81515
20
-6.09704
11
3.80765
21
-6.09329
0
LINE
8
BLACK
6
CONTINUOUS
10
3.80765
20
-6.09329
11
3.8039
21
-6.08954
0
LINE
8
BLACK
6
CONTINUOUS
10
3.8039
20
-6.08954
11
3.80015
21
-6.08204
0
LINE
8
BLACK
6
CONTINUOUS
10
3.80015
20
-6.08204
11
3.80015
21
-6.05954
0
LINE
8
BLACK
6
CONTINUOUS
10
3.80015
20
-6.05954
11
3.8039
21
-6.05204
0
LINE
8
BLACK
6
CONTINUOUS
10
3.8039
20
-6.05204
11
3.80765
21
-6.04829
0
LINE
8
BLACK
6
CONTINUOUS
10
3.80765
20
-6.04829
11
3.81515
21
-6.04454
0
LINE
8
BLACK
6
CONTINUOUS
10
3.81515
20
-6.04454
11
3.8264
21
-6.04454
0
LINE
8
BLACK
6
CONTINUOUS
10
3.8264
20
-6.04454
11
3.8339
21
-6.04829
0
LINE
8
BLACK
6
CONTINUOUS
10
3.8339
20
-6.04829
11
3.83765
21
-6.05204
0
LINE
8
BLACK
6
CONTINUOUS
10
3.83765
20
-6.05204
11
3.8414
21
-6.05954
0
LINE
8
BLACK
6
CONTINUOUS
10
3.8414
20
-6.05954
11
3.8414
21
-6.08204
0
LINE
8
BLACK
6
CONTINUOUS
10
3.8414
20
-6.08204
11
3.83765
21
-6.08954
0
LINE
8
BLACK
6
CONTINUOUS
10
3.83765
20
-6.08954
11
3.8339
21
-6.09329
0
LINE
8
BLACK
6
CONTINUOUS
10
3.8339
20
-6.09329
11
3.8264
21
-6.09704
0
LINE
8
BLACK
6
CONTINUOUS
10
3.8264
20
-6.09704
11
3.81515
21
-6.09704
0
LINE
8
BLACK
6
CONTINUOUS
10
3.88639
20
-6.09704
11
3.87889
21
-6.09329
0
LINE
8
BLACK
6
CONTINUOUS
10
3.87889
20
-6.09329
11
3.87514
21
-6.08579
0
LINE
8
BLACK
6
CONTINUOUS
10
3.87514
20
-6.08579
11
3.87514
21
-6.0183
0
LINE
8
BLACK
6
CONTINUOUS
10
3.94639
20
-6.09329
11
3.93889
21
-6.09704
0
LINE
8
BLACK
6
CONTINUOUS
10
3.93889
20
-6.09704
11
3.92389
21
-6.09704
0
LINE
8
BLACK
6
CONTINUOUS
10
3.92389
20
-6.09704
11
3.91639
21
-6.09329
0
LINE
8
BLACK
6
CONTINUOUS
10
3.91639
20
-6.09329
11
3.91264
21
-6.08579
0
LINE
8
BLACK
6
CONTINUOUS
10
3.91264
20
-6.08579
11
3.91264
21
-6.05579
0
LINE
8
BLACK
6
CONTINUOUS
10
3.91264
20
-6.05579
11
3.91639
21
-6.04829
0
LINE
8
BLACK
6
CONTINUOUS
10
3.91639
20
-6.04829
11
3.92389
21
-6.04454
0
LINE
8
BLACK
6
CONTINUOUS
10
3.92389
20
-6.04454
11
3.93889
21
-6.04454
0
LINE
8
BLACK
6
CONTINUOUS
10
3.93889
20
-6.04454
11
3.94639
21
-6.04829
0
LINE
8
BLACK
6
CONTINUOUS
10
3.94639
20
-6.04829
11
3.95013
21
-6.05579
0
LINE
8
BLACK
6
CONTINUOUS
10
3.95013
20
-6.05579
11
3.95013
21
-6.06329
0
LINE
8
BLACK
6
CONTINUOUS
10
3.95013
20
-6.06329
11
3.91264
21
-6.07079
0
LINE
8
BLACK
6
CONTINUOUS
10
3.98013
20
-6.09329
11
3.98763
21
-6.09704
0
LINE
8
BLACK
6
CONTINUOUS
10
3.98763
20
-6.09704
11
4.00263
21
-6.09704
0
LINE
8
BLACK
6
CONTINUOUS
10
4.00263
20
-6.09704
11
4.01013
21
-6.09329
0
LINE
8
BLACK
6
CONTINUOUS
10
4.01013
20
-6.09329
11
4.01388
21
-6.08579
0
LINE
8
BLACK
6
CONTINUOUS
10
4.01388
20
-6.08579
11
4.01388
21
-6.08204
0
LINE
8
BLACK
6
CONTINUOUS
10
4.01388
20
-6.08204
11
4.01013
21
-6.07454
0
LINE
8
BLACK
6
CONTINUOUS
10
4.01013
20
-6.07454
11
4.00263
21
-6.07079
0
LINE
8
BLACK
6
CONTINUOUS
10
4.00263
20
-6.07079
11
3.99138
21
-6.07079
0
LINE
8
BLACK
6
CONTINUOUS
10
3.99138
20
-6.07079
11
3.98388
21
-6.06704
0
LINE
8
BLACK
6
CONTINUOUS
10
3.98388
20
-6.06704
11
3.98013
21
-6.05954
0
LINE
8
BLACK
6
CONTINUOUS
10
3.98013
20
-6.05954
11
3.98013
21
-6.05579
0
LINE
8
BLACK
6
CONTINUOUS
10
3.98013
20
-6.05579
11
3.98388
21
-6.04829
0
LINE
8
BLACK
6
CONTINUOUS
10
3.98388
20
-6.04829
11
3.99138
21
-6.04454
0
LINE
8
BLACK
6
CONTINUOUS
10
3.99138
20
-6.04454
11
4.00263
21
-6.04454
0
LINE
8
BLACK
6
CONTINUOUS
10
4.00263
20
-6.04454
11
4.01013
21
-6.04829
0
LINE
8
BLACK
6
CONTINUOUS
10
4.04012
20
-6.12703
11
4.04387
21
-6.12328
0
LINE
8
BLACK
6
CONTINUOUS
10
4.04387
20
-6.12328
11
4.05137
21
-6.11204
0
LINE
8
BLACK
6
CONTINUOUS
10
4.05137
20
-6.11204
11
4.05512
21
-6.10454
0
LINE
8
BLACK
6
CONTINUOUS
10
4.05512
20
-6.10454
11
4.05887
21
-6.09329
0
LINE
8
BLACK
6
CONTINUOUS
10
4.05887
20
-6.09329
11
4.06262
21
-6.07454
0
LINE
8
BLACK
6
CONTINUOUS
10
4.06262
20
-6.07454
11
4.06262
21
-6.05954
0
LINE
8
BLACK
6
CONTINUOUS
10
4.06262
20
-6.05954
11
4.05887
21
-6.04079
0
LINE
8
BLACK
6
CONTINUOUS
10
4.05887
20
-6.04079
11
4.05512
21
-6.02955
0
LINE
8
BLACK
6
CONTINUOUS
10
4.05512
20
-6.02955
11
4.05137
21
-6.02205
0
LINE
8
BLACK
6
CONTINUOUS
10
4.05137
20
-6.02205
11
4.04387
21
-6.0108
0
LINE
8
BLACK
6
CONTINUOUS
10
4.04387
20
-6.0108
11
4.04012
21
-6.00705
0
CIRCLE
8
BLACK
10
2.05653
20
-6.17205
40
0.00984252
0
LINE
8
BLACK
6
CONTINUOUS
10
2.17886
20
-6.12223
11
2.18636
21
-6.12223
0
LINE
8
BLACK
6
CONTINUOUS
10
2.18636
20
-6.12223
11
2.19385
21
-6.12598
0
LINE
8
BLACK
6
CONTINUOUS
10
2.19385
20
-6.12598
11
2.1976
21
-6.12973
0
LINE
8
BLACK
6
CONTINUOUS
10
2.1976
20
-6.12973
11
2.20135
21
-6.13723
0
LINE
8
BLACK
6
CONTINUOUS
10
2.20135
20
-6.13723
11
2.2051
21
-6.15223
0
LINE
8
BLACK
6
CONTINUOUS
10
2.2051
20
-6.15223
11
2.2051
21
-6.17098
0
LINE
8
BLACK
6
CONTINUOUS
10
2.2051
20
-6.17098
11
2.20135
21
-6.18598
0
LINE
8
BLACK
6
CONTINUOUS
10
2.20135
20
-6.18598
11
2.1976
21
-6.19348
0
LINE
8
BLACK
6
CONTINUOUS
10
2.1976
20
-6.19348
11
2.19385
21
-6.19723
0
LINE
8
BLACK
6
CONTINUOUS
10
2.19385
20
-6.19723
11
2.18636
21
-6.20097
0
LINE
8
BLACK
6
CONTINUOUS
10
2.18636
20
-6.20097
11
2.17886
21
-6.20097
0
LINE
8
BLACK
6
CONTINUOUS
10
2.17886
20
-6.20097
11
2.17136
21
-6.19723
0
LINE
8
BLACK
6
CONTINUOUS
10
2.17136
20
-6.19723
11
2.16761
21
-6.19348
0
LINE
8
BLACK
6
CONTINUOUS
10
2.16761
20
-6.19348
11
2.16386
21
-6.18598
0
LINE
8
BLACK
6
CONTINUOUS
10
2.16386
20
-6.18598
11
2.16011
21
-6.17098
0
LINE
8
BLACK
6
CONTINUOUS
10
2.16011
20
-6.17098
11
2.16011
21
-6.15223
0
LINE
8
BLACK
6
CONTINUOUS
10
2.16011
20
-6.15223
11
2.16386
21
-6.13723
0
LINE
8
BLACK
6
CONTINUOUS
10
2.16386
20
-6.13723
11
2.16761
21
-6.12973
0
LINE
8
BLACK
6
CONTINUOUS
10
2.16761
20
-6.12973
11
2.17136
21
-6.12598
0
LINE
8
BLACK
6
CONTINUOUS
10
2.17136
20
-6.12598
11
2.17886
21
-6.12223
0
LINE
8
BLACK
6
CONTINUOUS
10
2.23885
20
-6.19348
11
2.2426
21
-6.19723
0
LINE
8
BLACK
6
CONTINUOUS
10
2.2426
20
-6.19723
11
2.23885
21
-6.20097
0
LINE
8
BLACK
6
CONTINUOUS
10
2.23885
20
-6.20097
11
2.2351
21
-6.19723
0
LINE
8
BLACK
6
CONTINUOUS
10
2.2351
20
-6.19723
11
2.23885
21
-6.19348
0
LINE
8
BLACK
6
CONTINUOUS
10
2.23885
20
-6.19348
11
2.23885
21
-6.20097
0
LINE
8
BLACK
6
CONTINUOUS
10
2.31384
20
-6.12223
11
2.27634
21
-6.12223
0
LINE
8
BLACK
6
CONTINUOUS
10
2.27634
20
-6.12223
11
2.27259
21
-6.15973
0
LINE
8
BLACK
6
CONTINUOUS
10
2.27259
20
-6.15973
11
2.27634
21
-6.15598
0
LINE
8
BLACK
6
CONTINUOUS
10
2.27634
20
-6.15598
11
2.28384
21
-6.15223
0
LINE
8
BLACK
6
CONTINUOUS
10
2.28384
20
-6.15223
11
2.30259
21
-6.15223
0
LINE
8
BLACK
6
CONTINUOUS
10
2.30259
20
-6.15223
11
2.31009
21
-6.15598
0
LINE
8
BLACK
6
CONTINUOUS
10
2.31009
20
-6.15598
11
2.31384
21
-6.15973
0
LINE
8
BLACK
6
CONTINUOUS
10
2.31384
20
-6.15973
11
2.31759
21
-6.16723
0
LINE
8
BLACK
6
CONTINUOUS
10
2.31759
20
-6.16723
11
2.31759
21
-6.18598
0
LINE
8
BLACK
6
CONTINUOUS
10
2.31759
20
-6.18598
11
2.31384
21
-6.19348
0
LINE
8
BLACK
6
CONTINUOUS
10
2.31384
20
-6.19348
11
2.31009
21
-6.19723
0
LINE
8
BLACK
6
CONTINUOUS
10
2.31009
20
-6.19723
11
2.30259
21
-6.20097
0
LINE
8
BLACK
6
CONTINUOUS
10
2.30259
20
-6.20097
11
2.28384
21
-6.20097
0
LINE
8
BLACK
6
CONTINUOUS
10
2.28384
20
-6.20097
11
2.27634
21
-6.19723
0
LINE
8
BLACK
6
CONTINUOUS
10
2.27634
20
-6.19723
11
2.27259
21
-6.19348
0
LINE
8
BLACK
6
CONTINUOUS
10
2.36633
20
-6.12223
11
2.37383
21
-6.12223
0
LINE
8
BLACK
6
CONTINUOUS
10
2.37383
20
-6.12223
11
2.38133
21
-6.12598
0
LINE
8
BLACK
6
CONTINUOUS
10
2.38133
20
-6.12598
11
2.38508
21
-6.12973
0
LINE
8
BLACK
6
CONTINUOUS
10
2.38508
20
-6.12973
11
2.38883
21
-6.13723
0
LINE
8
BLACK
6
CONTINUOUS
10
2.38883
20
-6.13723
11
2.39258
21
-6.15223
0
LINE
8
BLACK
6
CONTINUOUS
10
2.39258
20
-6.15223
11
2.39258
21
-6.17098
0
LINE
8
BLACK
6
CONTINUOUS
10
2.39258
20
-6.17098
11
2.38883
21
-6.18598
0
LINE
8
BLACK
6
CONTINUOUS
10
2.38883
20
-6.18598
11
2.38508
21
-6.19348
0
LINE
8
BLACK
6
CONTINUOUS
10
2.38508
20
-6.19348
11
2.38133
21
-6.19723
0
LINE
8
BLACK
6
CONTINUOUS
10
2.38133
20
-6.19723
11
2.37383
21
-6.20097
0
LINE
8
BLACK
6
CONTINUOUS
10
2.37383
20
-6.20097
11
2.36633
21
-6.20097
0
LINE
8
BLACK
6
CONTINUOUS
10
2.36633
20
-6.20097
11
2.35883
21
-6.19723
0
LINE
8
BLACK
6
CONTINUOUS
10
2.35883
20
-6.19723
11
2.35508
21
-6.19348
0
LINE
8
BLACK
6
CONTINUOUS
10
2.35508
20
-6.19348
11
2.35133
21
-6.18598
0
LINE
8
BLACK
6
CONTINUOUS
10
2.35133
20
-6.18598
11
2.34758
21
-6.17098
0
LINE
8
BLACK
6
CONTINUOUS
10
2.34758
20
-6.17098
11
2.34758
21
-6.15223
0
LINE
8
BLACK
6
CONTINUOUS
10
2.34758
20
-6.15223
11
2.35133
21
-6.13723
0
LINE
8
BLACK
6
CONTINUOUS
10
2.35133
20
-6.13723
11
2.35508
21
-6.12973
0
LINE
8
BLACK
6
CONTINUOUS
10
2.35508
20
-6.12973
11
2.35883
21
-6.12598
0
LINE
8
BLACK
6
CONTINUOUS
10
2.35883
20
-6.12598
11
2.36633
21
-6.12223
0
LINE
8
BLACK
6
CONTINUOUS
10
2.44132
20
-6.12223
11
2.44882
21
-6.12223
0
LINE
8
BLACK
6
CONTINUOUS
10
2.44882
20
-6.12223
11
2.45632
21
-6.12598
0
LINE
8
BLACK
6
CONTINUOUS
10
2.45632
20
-6.12598
11
2.46007
21
-6.12973
0
LINE
8
BLACK
6
CONTINUOUS
10
2.46007
20
-6.12973
11
2.46382
21
-6.13723
0
LINE
8
BLACK
6
CONTINUOUS
10
2.46382
20
-6.13723
11
2.46757
21
-6.15223
0
LINE
8
BLACK
6
CONTINUOUS
10
2.46757
20
-6.15223
11
2.46757
21
-6.17098
0
LINE
8
BLACK
6
CONTINUOUS
10
2.46757
20
-6.17098
11
2.46382
21
-6.18598
0
LINE
8
BLACK
6
CONTINUOUS
10
2.46382
20
-6.18598
11
2.46007
21
-6.19348
0
LINE
8
BLACK
6
CONTINUOUS
10
2.46007
20
-6.19348
11
2.45632
21
-6.19723
0
LINE
8
BLACK
6
CONTINUOUS
10
2.45632
20
-6.19723
11
2.44882
21
-6.20097
0
LINE
8
BLACK
6
CONTINUOUS
10
2.44882
20
-6.20097
11
2.44132
21
-6.20097
0
LINE
8
BLACK
6
CONTINUOUS
10
2.44132
20
-6.20097
11
2.43382
21
-6.19723
0
LINE
8
BLACK
6
CONTINUOUS
10
2.43382
20
-6.19723
11
2.43007
21
-6.19348
0
LINE
8
BLACK
6
CONTINUOUS
10
2.43007
20
-6.19348
11
2.42633
21
-6.18598
0
LINE
8
BLACK
6
CONTINUOUS
10
2.42633
20
-6.18598
11
2.42258
21
-6.17098
0
LINE
8
BLACK
6
CONTINUOUS
10
2.42258
20
-6.17098
11
2.42258
21
-6.15223
0
LINE
8
BLACK
6
CONTINUOUS
10
2.42258
20
-6.15223
11
2.42633
21
-6.13723
0
LINE
8
BLACK
6
CONTINUOUS
10
2.42633
20
-6.13723
11
2.43007
21
-6.12973
0
LINE
8
BLACK
6
CONTINUOUS
10
2.43007
20
-6.12973
11
2.43382
21
-6.12598
0
LINE
8
BLACK
6
CONTINUOUS
10
2.43382
20
-6.12598
11
2.44132
21
-6.12223
0
LINE
8
BLACK
6
CONTINUOUS
10
2.50132
20
-6.20097
11
2.50132
21
-6.14848
0
LINE
8
BLACK
6
CONTINUOUS
10
2.50132
20
-6.15598
11
2.50507
21
-6.15223
0
LINE
8
BLACK
6
CONTINUOUS
10
2.50507
20
-6.15223
11
2.51256
21
-6.14848
0
LINE
8
BLACK
6
CONTINUOUS
10
2.51256
20
-6.14848
11
2.52381
21
-6.14848
0
LINE
8
BLACK
6
CONTINUOUS
10
2.52381
20
-6.14848
11
2.53131
21
-6.15223
0
LINE
8
BLACK
6
CONTINUOUS
10
2.53131
20
-6.15223
11
2.53506
21
-6.15973
0
LINE
8
BLACK
6
CONTINUOUS
10
2.53506
20
-6.15973
11
2.53506
21
-6.20097
0
LINE
8
BLACK
6
CONTINUOUS
10
2.53506
20
-6.15973
11
2.53881
21
-6.15223
0
LINE
8
BLACK
6
CONTINUOUS
10
2.53881
20
-6.15223
11
2.54631
21
-6.14848
0
LINE
8
BLACK
6
CONTINUOUS
10
2.54631
20
-6.14848
11
2.55756
21
-6.14848
0
LINE
8
BLACK
6
CONTINUOUS
10
2.55756
20
-6.14848
11
2.56506
21
-6.15223
0
LINE
8
BLACK
6
CONTINUOUS
10
2.56506
20
-6.15223
11
2.56881
21
-6.15973
0
LINE
8
BLACK
6
CONTINUOUS
10
2.56881
20
-6.15973
11
2.56881
21
-6.20097
0
LINE
8
BLACK
6
CONTINUOUS
10
2.6063
20
-6.20097
11
2.6063
21
-6.14848
0
LINE
8
BLACK
6
CONTINUOUS
10
2.6063
20
-6.15598
11
2.61005
21
-6.15223
0
LINE
8
BLACK
6
CONTINUOUS
10
2.61005
20
-6.15223
11
2.61755
21
-6.14848
0
LINE
8
BLACK
6
CONTINUOUS
10
2.61755
20
-6.14848
11
2.6288
21
-6.14848
0
LINE
8
BLACK
6
CONTINUOUS
10
2.6288
20
-6.14848
11
2.6363
21
-6.15223
0
LINE
8
BLACK
6
CONTINUOUS
10
2.6363
20
-6.15223
11
2.64005
21
-6.15973
0
LINE
8
BLACK
6
CONTINUOUS
10
2.64005
20
-6.15973
11
2.64005
21
-6.20097
0
LINE
8
BLACK
6
CONTINUOUS
10
2.64005
20
-6.15973
11
2.6438
21
-6.15223
0
LINE
8
BLACK
6
CONTINUOUS
10
2.6438
20
-6.15223
11
2.6513
21
-6.14848
0
LINE
8
BLACK
6
CONTINUOUS
10
2.6513
20
-6.14848
11
2.66255
21
-6.14848
0
LINE
8
BLACK
6
CONTINUOUS
10
2.66255
20
-6.14848
11
2.67004
21
-6.15223
0
LINE
8
BLACK
6
CONTINUOUS
10
2.67004
20
-6.15223
11
2.67379
21
-6.15973
0
LINE
8
BLACK
6
CONTINUOUS
10
2.67379
20
-6.15973
11
2.67379
21
-6.20097
0
LINE
8
BLACK
6
CONTINUOUS
10
2.81478
20
-6.11849
11
2.74728
21
-6.21972
0
LINE
8
BLACK
6
CONTINUOUS
10
2.90327
20
-6.12223
11
2.91076
21
-6.12223
0
LINE
8
BLACK
6
CONTINUOUS
10
2.91076
20
-6.12223
11
2.91826
21
-6.12598
0
LINE
8
BLACK
6
CONTINUOUS
10
2.91826
20
-6.12598
11
2.92201
21
-6.12973
0
LINE
8
BLACK
6
CONTINUOUS
10
2.92201
20
-6.12973
11
2.92576
21
-6.13723
0
LINE
8
BLACK
6
CONTINUOUS
10
2.92576
20
-6.13723
11
2.92951
21
-6.15223
0
LINE
8
BLACK
6
CONTINUOUS
10
2.92951
20
-6.15223
11
2.92951
21
-6.17098
0
LINE
8
BLACK
6
CONTINUOUS
10
2.92951
20
-6.17098
11
2.92576
21
-6.18598
0
LINE
8
BLACK
6
CONTINUOUS
10
2.92576
20
-6.18598
11
2.92201
21
-6.19348
0
LINE
8
BLACK
6
CONTINUOUS
10
2.92201
20
-6.19348
11
2.91826
21
-6.19723
0
LINE
8
BLACK
6
CONTINUOUS
10
2.91826
20
-6.19723
11
2.91076
21
-6.20097
0
LINE
8
BLACK
6
CONTINUOUS
10
2.91076
20
-6.20097
11
2.90327
21
-6.20097
0
LINE
8
BLACK
6
CONTINUOUS
10
2.90327
20
-6.20097
11
2.89577
21
-6.19723
0
LINE
8
BLACK
6
CONTINUOUS
10
2.89577
20
-6.19723
11
2.89202
21
-6.19348
0
LINE
8
BLACK
6
CONTINUOUS
10
2.89202
20
-6.19348
11
2.88827
21
-6.18598
0
LINE
8
BLACK
6
CONTINUOUS
10
2.88827
20
-6.18598
11
2.88452
21
-6.17098
0
LINE
8
BLACK
6
CONTINUOUS
10
2.88452
20
-6.17098
11
2.88452
21
-6.15223
0
LINE
8
BLACK
6
CONTINUOUS
10
2.88452
20
-6.15223
11
2.88827
21
-6.13723
0
LINE
8
BLACK
6
CONTINUOUS
10
2.88827
20
-6.13723
11
2.89202
21
-6.12973
0
LINE
8
BLACK
6
CONTINUOUS
10
2.89202
20
-6.12973
11
2.89577
21
-6.12598
0
LINE
8
BLACK
6
CONTINUOUS
10
2.89577
20
-6.12598
11
2.90327
21
-6.12223
0
LINE
8
BLACK
6
CONTINUOUS
10
2.96326
20
-6.19348
11
2.96701
21
-6.19723
0
LINE
8
BLACK
6
CONTINUOUS
10
2.96701
20
-6.19723
11
2.96326
21
-6.20097
0
LINE
8
BLACK
6
CONTINUOUS
10
2.96326
20
-6.20097
11
2.95951
21
-6.19723
0
LINE
8
BLACK
6
CONTINUOUS
10
2.95951
20
-6.19723
11
2.96326
21
-6.19348
0
LINE
8
BLACK
6
CONTINUOUS
10
2.96326
20
-6.19348
11
2.96326
21
-6.20097
0
LINE
8
BLACK
6
CONTINUOUS
10
3.01575
20
-6.12223
11
3.02325
21
-6.12223
0
LINE
8
BLACK
6
CONTINUOUS
10
3.02325
20
-6.12223
11
3.03075
21
-6.12598
0
LINE
8
BLACK
6
CONTINUOUS
10
3.03075
20
-6.12598
11
3.0345
21
-6.12973
0
LINE
8
BLACK
6
CONTINUOUS
10
3.0345
20
-6.12973
11
3.03825
21
-6.13723
0
LINE
8
BLACK
6
CONTINUOUS
10
3.03825
20
-6.13723
11
3.042
21
-6.15223
0
LINE
8
BLACK
6
CONTINUOUS
10
3.042
20
-6.15223
11
3.042
21
-6.17098
0
LINE
8
BLACK
6
CONTINUOUS
10
3.042
20
-6.17098
11
3.03825
21
-6.18598
0
LINE
8
BLACK
6
CONTINUOUS
10
3.03825
20
-6.18598
11
3.0345
21
-6.19348
0
LINE
8
BLACK
6
CONTINUOUS
10
3.0345
20
-6.19348
11
3.03075
21
-6.19723
0
LINE
8
BLACK
6
CONTINUOUS
10
3.03075
20
-6.19723
11
3.02325
21
-6.20097
0
LINE
8
BLACK
6
CONTINUOUS
10
3.02325
20
-6.20097
11
3.01575
21
-6.20097
0
LINE
8
BLACK
6
CONTINUOUS
10
3.01575
20
-6.20097
11
3.00825
21
-6.19723
0
LINE
8
BLACK
6
CONTINUOUS
10
3.00825
20
-6.19723
11
3.0045
21
-6.19348
0
LINE
8
BLACK
6
CONTINUOUS
10
3.0045
20
-6.19348
11
3.00075
21
-6.18598
0
LINE
8
BLACK
6
CONTINUOUS
10
3.00075
20
-6.18598
11
2.997
21
-6.17098
0
LINE
8
BLACK
6
CONTINUOUS
10
2.997
20
-6.17098
11
2.997
21
-6.15223
0
LINE
8
BLACK
6
CONTINUOUS
10
2.997
20
-6.15223
11
3.00075
21
-6.13723
0
LINE
8
BLACK
6
CONTINUOUS
10
3.00075
20
-6.13723
11
3.0045
21
-6.12973
0
LINE
8
BLACK
6
CONTINUOUS
10
3.0045
20
-6.12973
11
3.00825
21
-6.12598
0
LINE
8
BLACK
6
CONTINUOUS
10
3.00825
20
-6.12598
11
3.01575
21
-6.12223
0
LINE
8
BLACK
6
CONTINUOUS
10
3.11699
20
-6.20097
11
3.07199
21
-6.20097
0
LINE
8
BLACK
6
CONTINUOUS
10
3.09449
20
-6.20097
11
3.09449
21
-6.12223
0
LINE
8
BLACK
6
CONTINUOUS
10
3.09449
20
-6.12223
11
3.08699
21
-6.13348
0
LINE
8
BLACK
6
CONTINUOUS
10
3.08699
20
-6.13348
11
3.07949
21
-6.14098
0
LINE
8
BLACK
6
CONTINUOUS
10
3.07949
20
-6.14098
11
3.07199
21
-6.14473
0
LINE
8
BLACK
6
CONTINUOUS
10
3.15448
20
-6.20097
11
3.16948
21
-6.20097
0
LINE
8
BLACK
6
CONTINUOUS
10
3.16948
20
-6.20097
11
3.17698
21
-6.19723
0
LINE
8
BLACK
6
CONTINUOUS
10
3.17698
20
-6.19723
11
3.18073
21
-6.19348
0
LINE
8
BLACK
6
CONTINUOUS
10
3.18073
20
-6.19348
11
3.18823
21
-6.18223
0
LINE
8
BLACK
6
CONTINUOUS
10
3.18823
20
-6.18223
11
3.19198
21
-6.16723
0
LINE
8
BLACK
6
CONTINUOUS
10
3.19198
20
-6.16723
11
3.19198
21
-6.13723
0
LINE
8
BLACK
6
CONTINUOUS
10
3.19198
20
-6.13723
11
3.18823
21
-6.12973
0
LINE
8
BLACK
6
CONTINUOUS
10
3.18823
20
-6.12973
11
3.18448
21
-6.12598
0
LINE
8
BLACK
6
CONTINUOUS
10
3.18448
20
-6.12598
11
3.17698
21
-6.12223
0
LINE
8
BLACK
6
CONTINUOUS
10
3.17698
20
-6.12223
11
3.16198
21
-6.12223
0
LINE
8
BLACK
6
CONTINUOUS
10
3.16198
20
-6.12223
11
3.15448
21
-6.12598
0
LINE
8
BLACK
6
CONTINUOUS
10
3.15448
20
-6.12598
11
3.15073
21
-6.12973
0
LINE
8
BLACK
6
CONTINUOUS
10
3.15073
20
-6.12973
11
3.14699
21
-6.13723
0
LINE
8
BLACK
6
CONTINUOUS
10
3.14699
20
-6.13723
11
3.14699
21
-6.15598
0
LINE
8
BLACK
6
CONTINUOUS
10
3.14699
20
-6.15598
11
3.15073
21
-6.16348
0
LINE
8
BLACK
6
CONTINUOUS
10
3.15073
20
-6.16348
11
3.15448
21
-6.16723
0
LINE
8
BLACK
6
CONTINUOUS
10
3.15448
20
-6.16723
11
3.16198
21
-6.17098
0
LINE
8
BLACK
6
CONTINUOUS
10
3.16198
20
-6.17098
11
3.17698
21
-6.17098
0
LINE
8
BLACK
6
CONTINUOUS
10
3.17698
20
-6.17098
11
3.18448
21
-6.16723
0
LINE
8
BLACK
6
CONTINUOUS
10
3.18448
20
-6.16723
11
3.18823
21
-6.16348
0
LINE
8
BLACK
6
CONTINUOUS
10
3.18823
20
-6.16348
11
3.19198
21
-6.15598
0
LINE
8
BLACK
6
CONTINUOUS
10
3.21823
20
-6.12223
11
3.27072
21
-6.12223
0
LINE
8
BLACK
6
CONTINUOUS
10
3.27072
20
-6.12223
11
3.23697
21
-6.20097
0
LINE
8
BLACK
6
CONTINUOUS
10
3.29697
20
-6.12223
11
3.29697
21
-6.13723
0
LINE
8
BLACK
6
CONTINUOUS
10
3.32696
20
-6.12223
11
3.32696
21
-6.13723
0
LINE
8
BLACK
6
CONTINUOUS
10
3.43045
20
-6.23097
11
3.4267
21
-6.22722
0
LINE
8
BLACK
6
CONTINUOUS
10
3.4267
20
-6.22722
11
3.4192
21
-6.21597
0
LINE
8
BLACK
6
CONTINUOUS
10
3.4192
20
-6.21597
11
3.41545
21
-6.20847
0
LINE
8
BLACK
6
CONTINUOUS
10
3.41545
20
-6.20847
11
3.4117
21
-6.19723
0
LINE
8
BLACK
6
CONTINUOUS
10
3.4117
20
-6.19723
11
3.40795
21
-6.17848
0
LINE
8
BLACK
6
CONTINUOUS
10
3.40795
20
-6.17848
11
3.40795
21
-6.16348
0
LINE
8
BLACK
6
CONTINUOUS
10
3.40795
20
-6.16348
11
3.4117
21
-6.14473
0
LINE
8
BLACK
6
CONTINUOUS
10
3.4117
20
-6.14473
11
3.41545
21
-6.13348
0
LINE
8
BLACK
6
CONTINUOUS
10
3.41545
20
-6.13348
11
3.4192
21
-6.12598
0
LINE
8
BLACK
6
CONTINUOUS
10
3.4192
20
-6.12598
11
3.4267
21
-6.11474
0
LINE
8
BLACK
6
CONTINUOUS
10
3.4267
20
-6.11474
11
3.43045
21
-6.11099
0
LINE
8
BLACK
6
CONTINUOUS
10
3.49419
20
-6.14848
11
3.49419
21
-6.20097
0
LINE
8
BLACK
6
CONTINUOUS
10
3.47544
20
-6.11849
11
3.4567
21
-6.17473
0
LINE
8
BLACK
6
CONTINUOUS
10
3.4567
20
-6.17473
11
3.50544
21
-6.17473
0
LINE
8
BLACK
6
CONTINUOUS
10
3.58268
20
-6.20097
11
3.58268
21
-6.12223
0
LINE
8
BLACK
6
CONTINUOUS
10
3.61643
20
-6.20097
11
3.61643
21
-6.15973
0
LINE
8
BLACK
6
CONTINUOUS
10
3.61643
20
-6.15973
11
3.61268
21
-6.15223
0
LINE
8
BLACK
6
CONTINUOUS
10
3.61268
20
-6.15223
11
3.60518
21
-6.14848
0
LINE
8
BLACK
6
CONTINUOUS
10
3.60518
20
-6.14848
11
3.59393
21
-6.14848
0
LINE
8
BLACK
6
CONTINUOUS
10
3.59393
20
-6.14848
11
3.58643
21
-6.15223
0
LINE
8
BLACK
6
CONTINUOUS
10
3.58643
20
-6.15223
11
3.58268
21
-6.15598
0
LINE
8
BLACK
6
CONTINUOUS
10
3.66517
20
-6.20097
11
3.65767
21
-6.19723
0
LINE
8
BLACK
6
CONTINUOUS
10
3.65767
20
-6.19723
11
3.65392
21
-6.19348
0
LINE
8
BLACK
6
CONTINUOUS
10
3.65392
20
-6.19348
11
3.65017
21
-6.18598
0
LINE
8
BLACK
6
CONTINUOUS
10
3.65017
20
-6.18598
11
3.65017
21
-6.16348
0
LINE
8
BLACK
6
CONTINUOUS
10
3.65017
20
-6.16348
11
3.65392
21
-6.15598
0
LINE
8
BLACK
6
CONTINUOUS
10
3.65392
20
-6.15598
11
3.65767
21
-6.15223
0
LINE
8
BLACK
6
CONTINUOUS
10
3.65767
20
-6.15223
11
3.66517
21
-6.14848
0
LINE
8
BLACK
6
CONTINUOUS
10
3.66517
20
-6.14848
11
3.67642
21
-6.14848
0
LINE
8
BLACK
6
CONTINUOUS
10
3.67642
20
-6.14848
11
3.68392
21
-6.15223
0
LINE
8
BLACK
6
CONTINUOUS
10
3.68392
20
-6.15223
11
3.68767
21
-6.15598
0
LINE
8
BLACK
6
CONTINUOUS
10
3.68767
20
-6.15598
11
3.69142
21
-6.16348
0
LINE
8
BLACK
6
CONTINUOUS
10
3.69142
20
-6.16348
11
3.69142
21
-6.18598
0
LINE
8
BLACK
6
CONTINUOUS
10
3.69142
20
-6.18598
11
3.68767
21
-6.19348
0
LINE
8
BLACK
6
CONTINUOUS
10
3.68767
20
-6.19348
11
3.68392
21
-6.19723
0
LINE
8
BLACK
6
CONTINUOUS
10
3.68392
20
-6.19723
11
3.67642
21
-6.20097
0
LINE
8
BLACK
6
CONTINUOUS
10
3.67642
20
-6.20097
11
3.66517
21
-6.20097
0
LINE
8
BLACK
6
CONTINUOUS
10
3.73641
20
-6.20097
11
3.72891
21
-6.19723
0
LINE
8
BLACK
6
CONTINUOUS
10
3.72891
20
-6.19723
11
3.72516
21
-6.18973
0
LINE
8
BLACK
6
CONTINUOUS
10
3.72516
20
-6.18973
11
3.72516
21
-6.12223
0
LINE
8
BLACK
6
CONTINUOUS
10
3.7964
20
-6.19723
11
3.7889
21
-6.20097
0
LINE
8
BLACK
6
CONTINUOUS
10
3.7889
20
-6.20097
11
3.77391
21
-6.20097
0
LINE
8
BLACK
6
CONTINUOUS
10
3.77391
20
-6.20097
11
3.76641
21
-6.19723
0
LINE
8
BLACK
6
CONTINUOUS
10
3.76641
20
-6.19723
11
3.76266
21
-6.18973
0
LINE
8
BLACK
6
CONTINUOUS
10
3.76266
20
-6.18973
11
3.76266
21
-6.15973
0
LINE
8
BLACK
6
CONTINUOUS
10
3.76266
20
-6.15973
11
3.76641
21
-6.15223
0
LINE
8
BLACK
6
CONTINUOUS
10
3.76641
20
-6.15223
11
3.77391
21
-6.14848
0
LINE
8
BLACK
6
CONTINUOUS
10
3.77391
20
-6.14848
11
3.7889
21
-6.14848
0
LINE
8
BLACK
6
CONTINUOUS
10
3.7889
20
-6.14848
11
3.7964
21
-6.15223
0
LINE
8
BLACK
6
CONTINUOUS
10
3.7964
20
-6.15223
11
3.80015
21
-6.15973
0
LINE
8
BLACK
6
CONTINUOUS
10
3.80015
20
-6.15973
11
3.80015
21
-6.16723
0
LINE
8
BLACK
6
CONTINUOUS
10
3.80015
20
-6.16723
11
3.76266
21
-6.17473
0
LINE
8
BLACK
6
CONTINUOUS
10
3.83015
20
-6.19723
11
3.83765
21
-6.20097
0
LINE
8
BLACK
6
CONTINUOUS
10
3.83765
20
-6.20097
11
3.85265
21
-6.20097
0
LINE
8
BLACK
6
CONTINUOUS
10
3.85265
20
-6.20097
11
3.86015
21
-6.19723
0
LINE
8
BLACK
6
CONTINUOUS
10
3.86015
20
-6.19723
11
3.8639
21
-6.18973
0
LINE
8
BLACK
6
CONTINUOUS
10
3.8639
20
-6.18973
11
3.8639
21
-6.18598
0
LINE
8
BLACK
6
CONTINUOUS
10
3.8639
20
-6.18598
11
3.86015
21
-6.17848
0
LINE
8
BLACK
6
CONTINUOUS
10
3.86015
20
-6.17848
11
3.85265
21
-6.17473
0
LINE
8
BLACK
6
CONTINUOUS
10
3.85265
20
-6.17473
11
3.8414
21
-6.17473
0
LINE
8
BLACK
6
CONTINUOUS
10
3.8414
20
-6.17473
11
3.8339
21
-6.17098
0
LINE
8
BLACK
6
CONTINUOUS
10
3.8339
20
-6.17098
11
3.83015
21
-6.16348
0
LINE
8
BLACK
6
CONTINUOUS
10
3.83015
20
-6.16348
11
3.83015
21
-6.15973
0
LINE
8
BLACK
6
CONTINUOUS
10
3.83015
20
-6.15973
11
3.8339
21
-6.15223
0
LINE
8
BLACK
6
CONTINUOUS
10
3.8339
20
-6.15223
11
3.8414
21
-6.14848
0
LINE
8
BLACK
6
CONTINUOUS
10
3.8414
20
-6.14848
11
3.85265
21
-6.14848
0
LINE
8
BLACK
6
CONTINUOUS
10
3.85265
20
-6.14848
11
3.86015
21
-6.15223
0
LINE
8
BLACK
6
CONTINUOUS
10
3.89014
20
-6.23097
11
3.89389
21
-6.22722
0
LINE
8
BLACK
6
CONTINUOUS
10
3.89389
20
-6.22722
11
3.90139
21
-6.21597
0
LINE
8
BLACK
6
CONTINUOUS
10
3.90139
20
-6.21597
11
3.90514
21
-6.20847
0
LINE
8
BLACK
6
CONTINUOUS
10
3.90514
20
-6.20847
11
3.90889
21
-6.19723
0
LINE
8
BLACK
6
CONTINUOUS
10
3.90889
20
-6.19723
11
3.91264
21
-6.17848
0
LINE
8
BLACK
6
CONTINUOUS
10
3.91264
20
-6.17848
11
3.91264
21
-6.16348
0
LINE
8
BLACK
6
CONTINUOUS
10
3.91264
20
-6.16348
11
3.90889
21
-6.14473
0
LINE
8
BLACK
6
CONTINUOUS
10
3.90889
20
-6.14473
11
3.90514
21
-6.13348
0
LINE
8
BLACK
6
CONTINUOUS
10
3.90514
20
-6.13348
11
3.90139
21
-6.12598
0
LINE
8
BLACK
6
CONTINUOUS
10
3.90139
20
-6.12598
11
3.89389
21
-6.11474
0
LINE
8
BLACK
6
CONTINUOUS
10
3.89389
20
-6.11474
11
3.89014
21
-6.11099
0
LINE
8
BLACK
6
CONTINUOUS
10
2.05062
20
-6.26024
11
2.05062
21
-6.29173
0
LINE
8
BLACK
6
CONTINUOUS
10
2.03487
20
-6.27598
11
2.06637
21
-6.27598
0
LINE
8
BLACK
6
CONTINUOUS
10
2.17886
20
-6.22617
11
2.18636
21
-6.22617
0
LINE
8
BLACK
6
CONTINUOUS
10
2.18636
20
-6.22617
11
2.19385
21
-6.22992
0
LINE
8
BLACK
6
CONTINUOUS
10
2.19385
20
-6.22992
11
2.1976
21
-6.23367
0
LINE
8
BLACK
6
CONTINUOUS
10
2.1976
20
-6.23367
11
2.20135
21
-6.24117
0
LINE
8
BLACK
6
CONTINUOUS
10
2.20135
20
-6.24117
11
2.2051
21
-6.25617
0
LINE
8
BLACK
6
CONTINUOUS
10
2.2051
20
-6.25617
11
2.2051
21
-6.27492
0
LINE
8
BLACK
6
CONTINUOUS
10
2.2051
20
-6.27492
11
2.20135
21
-6.28991
0
LINE
8
BLACK
6
CONTINUOUS
10
2.20135
20
-6.28991
11
2.1976
21
-6.29741
0
LINE
8
BLACK
6
CONTINUOUS
10
2.1976
20
-6.29741
11
2.19385
21
-6.30116
0
LINE
8
BLACK
6
CONTINUOUS
10
2.19385
20
-6.30116
11
2.18636
21
-6.30491
0
LINE
8
BLACK
6
CONTINUOUS
10
2.18636
20
-6.30491
11
2.17886
21
-6.30491
0
LINE
8
BLACK
6
CONTINUOUS
10
2.17886
20
-6.30491
11
2.17136
21
-6.30116
0
LINE
8
BLACK
6
CONTINUOUS
10
2.17136
20
-6.30116
11
2.16761
21
-6.29741
0
LINE
8
BLACK
6
CONTINUOUS
10
2.16761
20
-6.29741
11
2.16386
21
-6.28991
0
LINE
8
BLACK
6
CONTINUOUS
10
2.16386
20
-6.28991
11
2.16011
21
-6.27492
0
LINE
8
BLACK
6
CONTINUOUS
10
2.16011
20
-6.27492
11
2.16011
21
-6.25617
0
LINE
8
BLACK
6
CONTINUOUS
10
2.16011
20
-6.25617
11
2.16386
21
-6.24117
0
LINE
8
BLACK
6
CONTINUOUS
10
2.16386
20
-6.24117
11
2.16761
21
-6.23367
0
LINE
8
BLACK
6
CONTINUOUS
10
2.16761
20
-6.23367
11
2.17136
21
-6.22992
0
LINE
8
BLACK
6
CONTINUOUS
10
2.17136
20
-6.22992
11
2.17886
21
-6.22617
0
LINE
8
BLACK
6
CONTINUOUS
10
2.23885
20
-6.29741
11
2.2426
21
-6.30116
0
LINE
8
BLACK
6
CONTINUOUS
10
2.2426
20
-6.30116
11
2.23885
21
-6.30491
0
LINE
8
BLACK
6
CONTINUOUS
10
2.23885
20
-6.30491
11
2.2351
21
-6.30116
0
LINE
8
BLACK
6
CONTINUOUS
10
2.2351
20
-6.30116
11
2.23885
21
-6.29741
0
LINE
8
BLACK
6
CONTINUOUS
10
2.23885
20
-6.29741
11
2.23885
21
-6.30491
0
LINE
8
BLACK
6
CONTINUOUS
10
2.28759
20
-6.25992
11
2.28009
21
-6.25617
0
LINE
8
BLACK
6
CONTINUOUS
10
2.28009
20
-6.25617
11
2.27634
21
-6.25242
0
LINE
8
BLACK
6
CONTINUOUS
10
2.27634
20
-6.25242
11
2.27259
21
-6.24492
0
LINE
8
BLACK
6
CONTINUOUS
10
2.27259
20
-6.24492
11
2.27259
21
-6.24117
0
LINE
8
BLACK
6
CONTINUOUS
10
2.27259
20
-6.24117
11
2.27634
21
-6.23367
0
LINE
8
BLACK
6
CONTINUOUS
10
2.27634
20
-6.23367
11
2.28009
21
-6.22992
0
LINE
8
BLACK
6
CONTINUOUS
10
2.28009
20
-6.22992
11
2.28759
21
-6.22617
0
LINE
8
BLACK
6
CONTINUOUS
10
2.28759
20
-6.22617
11
2.30259
21
-6.22617
0
LINE
8
BLACK
6
CONTINUOUS
10
2.30259
20
-6.22617
11
2.31009
21
-6.22992
0
LINE
8
BLACK
6
CONTINUOUS
10
2.31009
20
-6.22992
11
2.31384
21
-6.23367
0
LINE
8
BLACK
6
CONTINUOUS
10
2.31384
20
-6.23367
11
2.31759
21
-6.24117
0
LINE
8
BLACK
6
CONTINUOUS
10
2.31759
20
-6.24117
11
2.31759
21
-6.24492
0
LINE
8
BLACK
6
CONTINUOUS
10
2.31759
20
-6.24492
11
2.31384
21
-6.25242
0
LINE
8
BLACK
6
CONTINUOUS
10
2.31384
20
-6.25242
11
2.31009
21
-6.25617
0
LINE
8
BLACK
6
CONTINUOUS
10
2.31009
20
-6.25617
11
2.30259
21
-6.25992
0
LINE
8
BLACK
6
CONTINUOUS
10
2.30259
20
-6.25992
11
2.28759
21
-6.25992
0
LINE
8
BLACK
6
CONTINUOUS
10
2.28759
20
-6.25992
11
2.28009
21
-6.26367
0
LINE
8
BLACK
6
CONTINUOUS
10
2.28009
20
-6.26367
11
2.27634
21
-6.26742
0
LINE
8
BLACK
6
CONTINUOUS
10
2.27634
20
-6.26742
11
2.27259
21
-6.27492
0
LINE
8
BLACK
6
CONTINUOUS
10
2.27259
20
-6.27492
11
2.27259
21
-6.28991
0
LINE
8
BLACK
6
CONTINUOUS
10
2.27259
20
-6.28991
11
2.27634
21
-6.29741
0
LINE
8
BLACK
6
CONTINUOUS
10
2.27634
20
-6.29741
11
2.28009
21
-6.30116
0
LINE
8
BLACK
6
CONTINUOUS
10
2.28009
20
-6.30116
11
2.28759
21
-6.30491
0
LINE
8
BLACK
6
CONTINUOUS
10
2.28759
20
-6.30491
11
2.30259
21
-6.30491
0
LINE
8
BLACK
6
CONTINUOUS
10
2.30259
20
-6.30491
11
2.31009
21
-6.30116
0
LINE
8
BLACK
6
CONTINUOUS
10
2.31009
20
-6.30116
11
2.31384
21
-6.29741
0
LINE
8
BLACK
6
CONTINUOUS
10
2.31384
20
-6.29741
11
2.31759
21
-6.28991
0
LINE
8
BLACK
6
CONTINUOUS
10
2.31759
20
-6.28991
11
2.31759
21
-6.27492
0
LINE
8
BLACK
6
CONTINUOUS
10
2.31759
20
-6.27492
11
2.31384
21
-6.26742
0
LINE
8
BLACK
6
CONTINUOUS
10
2.31384
20
-6.26742
11
2.31009
21
-6.26367
0
LINE
8
BLACK
6
CONTINUOUS
10
2.31009
20
-6.26367
11
2.30259
21
-6.25992
0
LINE
8
BLACK
6
CONTINUOUS
10
2.36633
20
-6.22617
11
2.37383
21
-6.22617
0
LINE
8
BLACK
6
CONTINUOUS
10
2.37383
20
-6.22617
11
2.38133
21
-6.22992
0
LINE
8
BLACK
6
CONTINUOUS
10
2.38133
20
-6.22992
11
2.38508
21
-6.23367
0
LINE
8
BLACK
6
CONTINUOUS
10
2.38508
20
-6.23367
11
2.38883
21
-6.24117
0
LINE
8
BLACK
6
CONTINUOUS
10
2.38883
20
-6.24117
11
2.39258
21
-6.25617
0
LINE
8
BLACK
6
CONTINUOUS
10
2.39258
20
-6.25617
11
2.39258
21
-6.27492
0
LINE
8
BLACK
6
CONTINUOUS
10
2.39258
20
-6.27492
11
2.38883
21
-6.28991
0
LINE
8
BLACK
6
CONTINUOUS
10
2.38883
20
-6.28991
11
2.38508
21
-6.29741
0
LINE
8
BLACK
6
CONTINUOUS
10
2.38508
20
-6.29741
11
2.38133
21
-6.30116
0
LINE
8
BLACK
6
CONTINUOUS
10
2.38133
20
-6.30116
11
2.37383
21
-6.30491
0
LINE
8
BLACK
6
CONTINUOUS
10
2.37383
20
-6.30491
11
2.36633
21
-6.30491
0
LINE
8
BLACK
6
CONTINUOUS
10
2.36633
20
-6.30491
11
2.35883
21
-6.30116
0
LINE
8
BLACK
6
CONTINUOUS
10
2.35883
20
-6.30116
11
2.35508
21
-6.29741
0
LINE
8
BLACK
6
CONTINUOUS
10
2.35508
20
-6.29741
11
2.35133
21
-6.28991
0
LINE
8
BLACK
6
CONTINUOUS
10
2.35133
20
-6.28991
11
2.34758
21
-6.27492
0
LINE
8
BLACK
6
CONTINUOUS
10
2.34758
20
-6.27492
11
2.34758
21
-6.25617
0
LINE
8
BLACK
6
CONTINUOUS
10
2.34758
20
-6.25617
11
2.35133
21
-6.24117
0
LINE
8
BLACK
6
CONTINUOUS
10
2.35133
20
-6.24117
11
2.35508
21
-6.23367
0
LINE
8
BLACK
6
CONTINUOUS
10
2.35508
20
-6.23367
11
2.35883
21
-6.22992
0
LINE
8
BLACK
6
CONTINUOUS
10
2.35883
20
-6.22992
11
2.36633
21
-6.22617
0
LINE
8
BLACK
6
CONTINUOUS
10
2.44132
20
-6.22617
11
2.44882
21
-6.22617
0
LINE
8
BLACK
6
CONTINUOUS
10
2.44882
20
-6.22617
11
2.45632
21
-6.22992
0
LINE
8
BLACK
6
CONTINUOUS
10
2.45632
20
-6.22992
11
2.46007
21
-6.23367
0
LINE
8
BLACK
6
CONTINUOUS
10
2.46007
20
-6.23367
11
2.46382
21
-6.24117
0
LINE
8
BLACK
6
CONTINUOUS
10
2.46382
20
-6.24117
11
2.46757
21
-6.25617
0
LINE
8
BLACK
6
CONTINUOUS
10
2.46757
20
-6.25617
11
2.46757
21
-6.27492
0
LINE
8
BLACK
6
CONTINUOUS
10
2.46757
20
-6.27492
11
2.46382
21
-6.28991
0
LINE
8
BLACK
6
CONTINUOUS
10
2.46382
20
-6.28991
11
2.46007
21
-6.29741
0
LINE
8
BLACK
6
CONTINUOUS
10
2.46007
20
-6.29741
11
2.45632
21
-6.30116
0
LINE
8
BLACK
6
CONTINUOUS
10
2.45632
20
-6.30116
11
2.44882
21
-6.30491
0
LINE
8
BLACK
6
CONTINUOUS
10
2.44882
20
-6.30491
11
2.44132
21
-6.30491
0
LINE
8
BLACK
6
CONTINUOUS
10
2.44132
20
-6.30491
11
2.43382
21
-6.30116
0
LINE
8
BLACK
6
CONTINUOUS
10
2.43382
20
-6.30116
11
2.43007
21
-6.29741
0
LINE
8
BLACK
6
CONTINUOUS
10
2.43007
20
-6.29741
11
2.42633
21
-6.28991
0
LINE
8
BLACK
6
CONTINUOUS
10
2.42633
20
-6.28991
11
2.42258
21
-6.27492
0
LINE
8
BLACK
6
CONTINUOUS
10
2.42258
20
-6.27492
11
2.42258
21
-6.25617
0
LINE
8
BLACK
6
CONTINUOUS
10
2.42258
20
-6.25617
11
2.42633
21
-6.24117
0
LINE
8
BLACK
6
CONTINUOUS
10
2.42633
20
-6.24117
11
2.43007
21
-6.23367
0
LINE
8
BLACK
6
CONTINUOUS
10
2.43007
20
-6.23367
11
2.43382
21
-6.22992
0
LINE
8
BLACK
6
CONTINUOUS
10
2.43382
20
-6.22992
11
2.44132
21
-6.22617
0
LINE
8
BLACK
6
CONTINUOUS
10
2.50132
20
-6.30491
11
2.50132
21
-6.25242
0
LINE
8
BLACK
6
CONTINUOUS
10
2.50132
20
-6.25992
11
2.50507
21
-6.25617
0
LINE
8
BLACK
6
CONTINUOUS
10
2.50507
20
-6.25617
11
2.51256
21
-6.25242
0
LINE
8
BLACK
6
CONTINUOUS
10
2.51256
20
-6.25242
11
2.52381
21
-6.25242
0
LINE
8
BLACK
6
CONTINUOUS
10
2.52381
20
-6.25242
11
2.53131
21
-6.25617
0
LINE
8
BLACK
6
CONTINUOUS
10
2.53131
20
-6.25617
11
2.53506
21
-6.26367
0
LINE
8
BLACK
6
CONTINUOUS
10
2.53506
20
-6.26367
11
2.53506
21
-6.30491
0
LINE
8
BLACK
6
CONTINUOUS
10
2.53506
20
-6.26367
11
2.53881
21
-6.25617
0
LINE
8
BLACK
6
CONTINUOUS
10
2.53881
20
-6.25617
11
2.54631
21
-6.25242
0
LINE
8
BLACK
6
CONTINUOUS
10
2.54631
20
-6.25242
11
2.55756
21
-6.25242
0
LINE
8
BLACK
6
CONTINUOUS
10
2.55756
20
-6.25242
11
2.56506
21
-6.25617
0
LINE
8
BLACK
6
CONTINUOUS
10
2.56506
20
-6.25617
11
2.56881
21
-6.26367
0
LINE
8
BLACK
6
CONTINUOUS
10
2.56881
20
-6.26367
11
2.56881
21
-6.30491
0
LINE
8
BLACK
6
CONTINUOUS
10
2.6063
20
-6.30491
11
2.6063
21
-6.25242
0
LINE
8
BLACK
6
CONTINUOUS
10
2.6063
20
-6.25992
11
2.61005
21
-6.25617
0
LINE
8
BLACK
6
CONTINUOUS
10
2.61005
20
-6.25617
11
2.61755
21
-6.25242
0
LINE
8
BLACK
6
CONTINUOUS
10
2.61755
20
-6.25242
11
2.6288
21
-6.25242
0
LINE
8
BLACK
6
CONTINUOUS
10
2.6288
20
-6.25242
11
2.6363
21
-6.25617
0
LINE
8
BLACK
6
CONTINUOUS
10
2.6363
20
-6.25617
11
2.64005
21
-6.26367
0
LINE
8
BLACK
6
CONTINUOUS
10
2.64005
20
-6.26367
11
2.64005
21
-6.30491
0
LINE
8
BLACK
6
CONTINUOUS
10
2.64005
20
-6.26367
11
2.6438
21
-6.25617
0
LINE
8
BLACK
6
CONTINUOUS
10
2.6438
20
-6.25617
11
2.6513
21
-6.25242
0
LINE
8
BLACK
6
CONTINUOUS
10
2.6513
20
-6.25242
11
2.66255
21
-6.25242
0
LINE
8
BLACK
6
CONTINUOUS
10
2.66255
20
-6.25242
11
2.67004
21
-6.25617
0
LINE
8
BLACK
6
CONTINUOUS
10
2.67004
20
-6.25617
11
2.67379
21
-6.26367
0
LINE
8
BLACK
6
CONTINUOUS
10
2.67379
20
-6.26367
11
2.67379
21
-6.30491
0
LINE
8
BLACK
6
CONTINUOUS
10
2.81478
20
-6.22242
11
2.74728
21
-6.32366
0
LINE
8
BLACK
6
CONTINUOUS
10
2.90327
20
-6.22617
11
2.91076
21
-6.22617
0
LINE
8
BLACK
6
CONTINUOUS
10
2.91076
20
-6.22617
11
2.91826
21
-6.22992
0
LINE
8
BLACK
6
CONTINUOUS
10
2.91826
20
-6.22992
11
2.92201
21
-6.23367
0
LINE
8
BLACK
6
CONTINUOUS
10
2.92201
20
-6.23367
11
2.92576
21
-6.24117
0
LINE
8
BLACK
6
CONTINUOUS
10
2.92576
20
-6.24117
11
2.92951
21
-6.25617
0
LINE
8
BLACK
6
CONTINUOUS
10
2.92951
20
-6.25617
11
2.92951
21
-6.27492
0
LINE
8
BLACK
6
CONTINUOUS
10
2.92951
20
-6.27492
11
2.92576
21
-6.28991
0
LINE
8
BLACK
6
CONTINUOUS
10
2.92576
20
-6.28991
11
2.92201
21
-6.29741
0
LINE
8
BLACK
6
CONTINUOUS
10
2.92201
20
-6.29741
11
2.91826
21
-6.30116
0
LINE
8
BLACK
6
CONTINUOUS
10
2.91826
20
-6.30116
11
2.91076
21
-6.30491
0
LINE
8
BLACK
6
CONTINUOUS
10
2.91076
20
-6.30491
11
2.90327
21
-6.30491
0
LINE
8
BLACK
6
CONTINUOUS
10
2.90327
20
-6.30491
11
2.89577
21
-6.30116
0
LINE
8
BLACK
6
CONTINUOUS
10
2.89577
20
-6.30116
11
2.89202
21
-6.29741
0
LINE
8
BLACK
6
CONTINUOUS
10
2.89202
20
-6.29741
11
2.88827
21
-6.28991
0
LINE
8
BLACK
6
CONTINUOUS
10
2.88827
20
-6.28991
11
2.88452
21
-6.27492
0
LINE
8
BLACK
6
CONTINUOUS
10
2.88452
20
-6.27492
11
2.88452
21
-6.25617
0
LINE
8
BLACK
6
CONTINUOUS
10
2.88452
20
-6.25617
11
2.88827
21
-6.24117
0
LINE
8
BLACK
6
CONTINUOUS
10
2.88827
20
-6.24117
11
2.89202
21
-6.23367
0
LINE
8
BLACK
6
CONTINUOUS
10
2.89202
20
-6.23367
11
2.89577
21
-6.22992
0
LINE
8
BLACK
6
CONTINUOUS
10
2.89577
20
-6.22992
11
2.90327
21
-6.22617
0
LINE
8
BLACK
6
CONTINUOUS
10
2.96326
20
-6.29741
11
2.96701
21
-6.30116
0
LINE
8
BLACK
6
CONTINUOUS
10
2.96701
20
-6.30116
11
2.96326
21
-6.30491
0
LINE
8
BLACK
6
CONTINUOUS
10
2.96326
20
-6.30491
11
2.95951
21
-6.30116
0
LINE
8
BLACK
6
CONTINUOUS
10
2.95951
20
-6.30116
11
2.96326
21
-6.29741
0
LINE
8
BLACK
6
CONTINUOUS
10
2.96326
20
-6.29741
11
2.96326
21
-6.30491
0
LINE
8
BLACK
6
CONTINUOUS
10
3.01575
20
-6.22617
11
3.02325
21
-6.22617
0
LINE
8
BLACK
6
CONTINUOUS
10
3.02325
20
-6.22617
11
3.03075
21
-6.22992
0
LINE
8
BLACK
6
CONTINUOUS
10
3.03075
20
-6.22992
11
3.0345
21
-6.23367
0
LINE
8
BLACK
6
CONTINUOUS
10
3.0345
20
-6.23367
11
3.03825
21
-6.24117
0
LINE
8
BLACK
6
CONTINUOUS
10
3.03825
20
-6.24117
11
3.042
21
-6.25617
0
LINE
8
BLACK
6
CONTINUOUS
10
3.042
20
-6.25617
11
3.042
21
-6.27492
0
LINE
8
BLACK
6
CONTINUOUS
10
3.042
20
-6.27492
11
3.03825
21
-6.28991
0
LINE
8
BLACK
6
CONTINUOUS
10
3.03825
20
-6.28991
11
3.0345
21
-6.29741
0
LINE
8
BLACK
6
CONTINUOUS
10
3.0345
20
-6.29741
11
3.03075
21
-6.30116
0
LINE
8
BLACK
6
CONTINUOUS
10
3.03075
20
-6.30116
11
3.02325
21
-6.30491
0
LINE
8
BLACK
6
CONTINUOUS
10
3.02325
20
-6.30491
11
3.01575
21
-6.30491
0
LINE
8
BLACK
6
CONTINUOUS
10
3.01575
20
-6.30491
11
3.00825
21
-6.30116
0
LINE
8
BLACK
6
CONTINUOUS
10
3.00825
20
-6.30116
11
3.0045
21
-6.29741
0
LINE
8
BLACK
6
CONTINUOUS
10
3.0045
20
-6.29741
11
3.00075
21
-6.28991
0
LINE
8
BLACK
6
CONTINUOUS
10
3.00075
20
-6.28991
11
2.997
21
-6.27492
0
LINE
8
BLACK
6
CONTINUOUS
10
2.997
20
-6.27492
11
2.997
21
-6.25617
0
LINE
8
BLACK
6
CONTINUOUS
10
2.997
20
-6.25617
11
3.00075
21
-6.24117
0
LINE
8
BLACK
6
CONTINUOUS
10
3.00075
20
-6.24117
11
3.0045
21
-6.23367
0
LINE
8
BLACK
6
CONTINUOUS
10
3.0045
20
-6.23367
11
3.00825
21
-6.22992
0
LINE
8
BLACK
6
CONTINUOUS
10
3.00825
20
-6.22992
11
3.01575
21
-6.22617
0
LINE
8
BLACK
6
CONTINUOUS
10
3.06824
20
-6.22617
11
3.11699
21
-6.22617
0
LINE
8
BLACK
6
CONTINUOUS
10
3.11699
20
-6.22617
11
3.09074
21
-6.25617
0
LINE
8
BLACK
6
CONTINUOUS
10
3.09074
20
-6.25617
11
3.10199
21
-6.25617
0
LINE
8
BLACK
6
CONTINUOUS
10
3.10199
20
-6.25617
11
3.10949
21
-6.25992
0
LINE
8
BLACK
6
CONTINUOUS
10
3.10949
20
-6.25992
11
3.11324
21
-6.26367
0
LINE
8
BLACK
6
CONTINUOUS
10
3.11324
20
-6.26367
11
3.11699
21
-6.27117
0
LINE
8
BLACK
6
CONTINUOUS
10
3.11699
20
-6.27117
11
3.11699
21
-6.28991
0
LINE
8
BLACK
6
CONTINUOUS
10
3.11699
20
-6.28991
11
3.11324
21
-6.29741
0
LINE
8
BLACK
6
CONTINUOUS
10
3.11324
20
-6.29741
11
3.10949
21
-6.30116
0
LINE
8
BLACK
6
CONTINUOUS
10
3.10949
20
-6.30116
11
3.10199
21
-6.30491
0
LINE
8
BLACK
6
CONTINUOUS
10
3.10199
20
-6.30491
11
3.07949
21
-6.30491
0
LINE
8
BLACK
6
CONTINUOUS
10
3.07949
20
-6.30491
11
3.07199
21
-6.30116
0
LINE
8
BLACK
6
CONTINUOUS
10
3.07199
20
-6.30116
11
3.06824
21
-6.29741
0
LINE
8
BLACK
6
CONTINUOUS
10
3.19198
20
-6.30491
11
3.14699
21
-6.30491
0
LINE
8
BLACK
6
CONTINUOUS
10
3.16948
20
-6.30491
11
3.16948
21
-6.22617
0
LINE
8
BLACK
6
CONTINUOUS
10
3.16948
20
-6.22617
11
3.16198
21
-6.23742
0
LINE
8
BLACK
6
CONTINUOUS
10
3.16198
20
-6.23742
11
3.15448
21
-6.24492
0
LINE
8
BLACK
6
CONTINUOUS
10
3.15448
20
-6.24492
11
3.14699
21
-6.24867
0
LINE
8
BLACK
6
CONTINUOUS
10
3.26322
20
-6.22617
11
3.22573
21
-6.22617
0
LINE
8
BLACK
6
CONTINUOUS
10
3.22573
20
-6.22617
11
3.22198
21
-6.26367
0
LINE
8
BLACK
6
CONTINUOUS
10
3.22198
20
-6.26367
11
3.22573
21
-6.25992
0
LINE
8
BLACK
6
CONTINUOUS
10
3.22573
20
-6.25992
11
3.23322
21
-6.25617
0
LINE
8
BLACK
6
CONTINUOUS
10
3.23322
20
-6.25617
11
3.25197
21
-6.25617
0
LINE
8
BLACK
6
CONTINUOUS
10
3.25197
20
-6.25617
11
3.25947
21
-6.25992
0
LINE
8
BLACK
6
CONTINUOUS
10
3.25947
20
-6.25992
11
3.26322
21
-6.26367
0
LINE
8
BLACK
6
CONTINUOUS
10
3.26322
20
-6.26367
11
3.26697
21
-6.27117
0
LINE
8
BLACK
6
CONTINUOUS
10
3.26697
20
-6.27117
11
3.26697
21
-6.28991
0
LINE
8
BLACK
6
CONTINUOUS
10
3.26697
20
-6.28991
11
3.26322
21
-6.29741
0
LINE
8
BLACK
6
CONTINUOUS
10
3.26322
20
-6.29741
11
3.25947
21
-6.30116
0
LINE
8
BLACK
6
CONTINUOUS
10
3.25947
20
-6.30116
11
3.25197
21
-6.30491
0
LINE
8
BLACK
6
CONTINUOUS
10
3.25197
20
-6.30491
11
3.23322
21
-6.30491
0
LINE
8
BLACK
6
CONTINUOUS
10
3.23322
20
-6.30491
11
3.22573
21
-6.30116
0
LINE
8
BLACK
6
CONTINUOUS
10
3.22573
20
-6.30116
11
3.22198
21
-6.29741
0
LINE
8
BLACK
6
CONTINUOUS
10
3.29697
20
-6.22617
11
3.29697
21
-6.24117
0
LINE
8
BLACK
6
CONTINUOUS
10
3.32696
20
-6.22617
11
3.32696
21
-6.24117
0
LINE
8
BLACK
6
CONTINUOUS
10
3.43045
20
-6.33491
11
3.4267
21
-6.33116
0
LINE
8
BLACK
6
CONTINUOUS
10
3.4267
20
-6.33116
11
3.4192
21
-6.31991
0
LINE
8
BLACK
6
CONTINUOUS
10
3.4192
20
-6.31991
11
3.41545
21
-6.31241
0
LINE
8
BLACK
6
CONTINUOUS
10
3.41545
20
-6.31241
11
3.4117
21
-6.30116
0
LINE
8
BLACK
6
CONTINUOUS
10
3.4117
20
-6.30116
11
3.40795
21
-6.28241
0
LINE
8
BLACK
6
CONTINUOUS
10
3.40795
20
-6.28241
11
3.40795
21
-6.26742
0
LINE
8
BLACK
6
CONTINUOUS
10
3.40795
20
-6.26742
11
3.4117
21
-6.24867
0
LINE
8
BLACK
6
CONTINUOUS
10
3.4117
20
-6.24867
11
3.41545
21
-6.23742
0
LINE
8
BLACK
6
CONTINUOUS
10
3.41545
20
-6.23742
11
3.4192
21
-6.22992
0
LINE
8
BLACK
6
CONTINUOUS
10
3.4192
20
-6.22992
11
3.4267
21
-6.21867
0
LINE
8
BLACK
6
CONTINUOUS
10
3.4267
20
-6.21867
11
3.43045
21
-6.21492
0
LINE
8
BLACK
6
CONTINUOUS
10
3.50169
20
-6.30491
11
3.4567
21
-6.30491
0
LINE
8
BLACK
6
CONTINUOUS
10
3.47919
20
-6.30491
11
3.47919
21
-6.22617
0
LINE
8
BLACK
6
CONTINUOUS
10
3.47919
20
-6.22617
11
3.47169
21
-6.23742
0
LINE
8
BLACK
6
CONTINUOUS
10
3.47169
20
-6.23742
11
3.4642
21
-6.24492
0
LINE
8
BLACK
6
CONTINUOUS
10
3.4642
20
-6.24492
11
3.4567
21
-6.24867
0
LINE
8
BLACK
6
CONTINUOUS
10
3.52794
20
-6.22617
11
3.58043
21
-6.22617
0
LINE
8
BLACK
6
CONTINUOUS
10
3.58043
20
-6.22617
11
3.54669
21
-6.30491
0
LINE
8
BLACK
6
CONTINUOUS
10
3.62168
20
-6.25992
11
3.61418
21
-6.25617
0
LINE
8
BLACK
6
CONTINUOUS
10
3.61418
20
-6.25617
11
3.61043
21
-6.25242
0
LINE
8
BLACK
6
CONTINUOUS
10
3.61043
20
-6.25242
11
3.60668
21
-6.24492
0
LINE
8
BLACK
6
CONTINUOUS
10
3.60668
20
-6.24492
11
3.60668
21
-6.24117
0
LINE
8
BLACK
6
CONTINUOUS
10
3.60668
20
-6.24117
11
3.61043
21
-6.23367
0
LINE
8
BLACK
6
CONTINUOUS
10
3.61043
20
-6.23367
11
3.61418
21
-6.22992
0
LINE
8
BLACK
6
CONTINUOUS
10
3.61418
20
-6.22992
11
3.62168
21
-6.22617
0
LINE
8
BLACK
6
CONTINUOUS
10
3.62168
20
-6.22617
11
3.63667
21
-6.22617
0
LINE
8
BLACK
6
CONTINUOUS
10
3.63667
20
-6.22617
11
3.64417
21
-6.22992
0
LINE
8
BLACK
6
CONTINUOUS
10
3.64417
20
-6.22992
11
3.64792
21
-6.23367
0
LINE
8
BLACK
6
CONTINUOUS
10
3.64792
20
-6.23367
11
3.65167
21
-6.24117
0
LINE
8
BLACK
6
CONTINUOUS
10
3.65167
20
-6.24117
11
3.65167
21
-6.24492
0
LINE
8
BLACK
6
CONTINUOUS
10
3.65167
20
-6.24492
11
3.64792
21
-6.25242
0
LINE
8
BLACK
6
CONTINUOUS
10
3.64792
20
-6.25242
11
3.64417
21
-6.25617
0
LINE
8
BLACK
6
CONTINUOUS
10
3.64417
20
-6.25617
11
3.63667
21
-6.25992
0
LINE
8
BLACK
6
CONTINUOUS
10
3.63667
20
-6.25992
11
3.62168
21
-6.25992
0
LINE
8
BLACK
6
CONTINUOUS
10
3.62168
20
-6.25992
11
3.61418
21
-6.26367
0
LINE
8
BLACK
6
CONTINUOUS
10
3.61418
20
-6.26367
11
3.61043
21
-6.26742
0
LINE
8
BLACK
6
CONTINUOUS
10
3.61043
20
-6.26742
11
3.60668
21
-6.27492
0
LINE
8
BLACK
6
CONTINUOUS
10
3.60668
20
-6.27492
11
3.60668
21
-6.28991
0
LINE
8
BLACK
6
CONTINUOUS
10
3.60668
20
-6.28991
11
3.61043
21
-6.29741
0
LINE
8
BLACK
6
CONTINUOUS
10
3.61043
20
-6.29741
11
3.61418
21
-6.30116
0
LINE
8
BLACK
6
CONTINUOUS
10
3.61418
20
-6.30116
11
3.62168
21
-6.30491
0
LINE
8
BLACK
6
CONTINUOUS
10
3.62168
20
-6.30491
11
3.63667
21
-6.30491
0
LINE
8
BLACK
6
CONTINUOUS
10
3.63667
20
-6.30491
11
3.64417
21
-6.30116
0
LINE
8
BLACK
6
CONTINUOUS
10
3.64417
20
-6.30116
11
3.64792
21
-6.29741
0
LINE
8
BLACK
6
CONTINUOUS
10
3.64792
20
-6.29741
11
3.65167
21
-6.28991
0
LINE
8
BLACK
6
CONTINUOUS
10
3.65167
20
-6.28991
11
3.65167
21
-6.27492
0
LINE
8
BLACK
6
CONTINUOUS
10
3.65167
20
-6.27492
11
3.64792
21
-6.26742
0
LINE
8
BLACK
6
CONTINUOUS
10
3.64792
20
-6.26742
11
3.64417
21
-6.26367
0
LINE
8
BLACK
6
CONTINUOUS
10
3.64417
20
-6.26367
11
3.63667
21
-6.25992
0
LINE
8
BLACK
6
CONTINUOUS
10
3.73266
20
-6.30491
11
3.73266
21
-6.22617
0
LINE
8
BLACK
6
CONTINUOUS
10
3.76641
20
-6.30491
11
3.76641
21
-6.26367
0
LINE
8
BLACK
6
CONTINUOUS
10
3.76641
20
-6.26367
11
3.76266
21
-6.25617
0
LINE
8
BLACK
6
CONTINUOUS
10
3.76266
20
-6.25617
11
3.75516
21
-6.25242
0
LINE
8
BLACK
6
CONTINUOUS
10
3.75516
20
-6.25242
11
3.74391
21
-6.25242
0
LINE
8
BLACK
6
CONTINUOUS
10
3.74391
20
-6.25242
11
3.73641
21
-6.25617
0
LINE
8
BLACK
6
CONTINUOUS
10
3.73641
20
-6.25617
11
3.73266
21
-6.25992
0
LINE
8
BLACK
6
CONTINUOUS
10
3.81515
20
-6.30491
11
3.80765
21
-6.30116
0
LINE
8
BLACK
6
CONTINUOUS
10
3.80765
20
-6.30116
11
3.8039
21
-6.29741
0
LINE
8
BLACK
6
CONTINUOUS
10
3.8039
20
-6.29741
11
3.80015
21
-6.28991
0
LINE
8
BLACK
6
CONTINUOUS
10
3.80015
20
-6.28991
11
3.80015
21
-6.26742
0
LINE
8
BLACK
6
CONTINUOUS
10
3.80015
20
-6.26742
11
3.8039
21
-6.25992
0
LINE
8
BLACK
6
CONTINUOUS
10
3.8039
20
-6.25992
11
3.80765
21
-6.25617
0
LINE
8
BLACK
6
CONTINUOUS
10
3.80765
20
-6.25617
11
3.81515
21
-6.25242
0
LINE
8
BLACK
6
CONTINUOUS
10
3.81515
20
-6.25242
11
3.8264
21
-6.25242
0
LINE
8
BLACK
6
CONTINUOUS
10
3.8264
20
-6.25242
11
3.8339
21
-6.25617
0
LINE
8
BLACK
6
CONTINUOUS
10
3.8339
20
-6.25617
11
3.83765
21
-6.25992
0
LINE
8
BLACK
6
CONTINUOUS
10
3.83765
20
-6.25992
11
3.8414
21
-6.26742
0
LINE
8
BLACK
6
CONTINUOUS
10
3.8414
20
-6.26742
11
3.8414
21
-6.28991
0
LINE
8
BLACK
6
CONTINUOUS
10
3.8414
20
-6.28991
11
3.83765
21
-6.29741
0
LINE
8
BLACK
6
CONTINUOUS
10
3.83765
20
-6.29741
11
3.8339
21
-6.30116
0
LINE
8
BLACK
6
CONTINUOUS
10
3.8339
20
-6.30116
11
3.8264
21
-6.30491
0
LINE
8
BLACK
6
CONTINUOUS
10
3.8264
20
-6.30491
11
3.81515
21
-6.30491
0
LINE
8
BLACK
6
CONTINUOUS
10
3.88639
20
-6.30491
11
3.87889
21
-6.30116
0
LINE
8
BLACK
6
CONTINUOUS
10
3.87889
20
-6.30116
11
3.87514
21
-6.29366
0
LINE
8
BLACK
6
CONTINUOUS
10
3.87514
20
-6.29366
11
3.87514
21
-6.22617
0
LINE
8
BLACK
6
CONTINUOUS
10
3.94639
20
-6.30116
11
3.93889
21
-6.30491
0
LINE
8
BLACK
6
CONTINUOUS
10
3.93889
20
-6.30491
11
3.92389
21
-6.30491
0
LINE
8
BLACK
6
CONTINUOUS
10
3.92389
20
-6.30491
11
3.91639
21
-6.30116
0
LINE
8
BLACK
6
CONTINUOUS
10
3.91639
20
-6.30116
11
3.91264
21
-6.29366
0
LINE
8
BLACK
6
CONTINUOUS
10
3.91264
20
-6.29366
11
3.91264
21
-6.26367
0
LINE
8
BLACK
6
CONTINUOUS
10
3.91264
20
-6.26367
11
3.91639
21
-6.25617
0
LINE
8
BLACK
6
CONTINUOUS
10
3.91639
20
-6.25617
11
3.92389
21
-6.25242
0
LINE
8
BLACK
6
CONTINUOUS
10
3.92389
20
-6.25242
11
3.93889
21
-6.25242
0
LINE
8
BLACK
6
CONTINUOUS
10
3.93889
20
-6.25242
11
3.94639
21
-6.25617
0
LINE
8
BLACK
6
CONTINUOUS
10
3.94639
20
-6.25617
11
3.95013
21
-6.26367
0
LINE
8
BLACK
6
CONTINUOUS
10
3.95013
20
-6.26367
11
3.95013
21
-6.27117
0
LINE
8
BLACK
6
CONTINUOUS
10
3.95013
20
-6.27117
11
3.91264
21
-6.27867
0
LINE
8
BLACK
6
CONTINUOUS
10
3.98013
20
-6.30116
11
3.98763
21
-6.30491
0
LINE
8
BLACK
6
CONTINUOUS
10
3.98763
20
-6.30491
11
4.00263
21
-6.30491
0
LINE
8
BLACK
6
CONTINUOUS
10
4.00263
20
-6.30491
11
4.01013
21
-6.30116
0
LINE
8
BLACK
6
CONTINUOUS
10
4.01013
20
-6.30116
11
4.01388
21
-6.29366
0
LINE
8
BLACK
6
CONTINUOUS
10
4.01388
20
-6.29366
11
4.01388
21
-6.28991
0
LINE
8
BLACK
6
CONTINUOUS
10
4.01388
20
-6.28991
11
4.01013
21
-6.28241
0
LINE
8
BLACK
6
CONTINUOUS
10
4.01013
20
-6.28241
11
4.00263
21
-6.27867
0
LINE
8
BLACK
6
CONTINUOUS
10
4.00263
20
-6.27867
11
3.99138
21
-6.27867
0
LINE
8
BLACK
6
CONTINUOUS
10
3.99138
20
-6.27867
11
3.98388
21
-6.27492
0
LINE
8
BLACK
6
CONTINUOUS
10
3.98388
20
-6.27492
11
3.98013
21
-6.26742
0
LINE
8
BLACK
6
CONTINUOUS
10
3.98013
20
-6.26742
11
3.98013
21
-6.26367
0
LINE
8
BLACK
6
CONTINUOUS
10
3.98013
20
-6.26367
11
3.98388
21
-6.25617
0
LINE
8
BLACK
6
CONTINUOUS
10
3.98388
20
-6.25617
11
3.99138
21
-6.25242
0
LINE
8
BLACK
6
CONTINUOUS
10
3.99138
20
-6.25242
11
4.00263
21
-6.25242
0
LINE
8
BLACK
6
CONTINUOUS
10
4.00263
20
-6.25242
11
4.01013
21
-6.25617
0
LINE
8
BLACK
6
CONTINUOUS
10
4.04012
20
-6.33491
11
4.04387
21
-6.33116
0
LINE
8
BLACK
6
CONTINUOUS
10
4.04387
20
-6.33116
11
4.05137
21
-6.31991
0
LINE
8
BLACK
6
CONTINUOUS
10
4.05137
20
-6.31991
11
4.05512
21
-6.31241
0
LINE
8
BLACK
6
CONTINUOUS
10
4.05512
20
-6.31241
11
4.05887
21
-6.30116
0
LINE
8
BLACK
6
CONTINUOUS
10
4.05887
20
-6.30116
11
4.06262
21
-6.28241
0
LINE
8
BLACK
6
CONTINUOUS
10
4.06262
20
-6.28241
11
4.06262
21
-6.26742
0
LINE
8
BLACK
6
CONTINUOUS
10
4.06262
20
-6.26742
11
4.05887
21
-6.24867
0
LINE
8
BLACK
6
CONTINUOUS
10
4.05887
20
-6.24867
11
4.05512
21
-6.23742
0
LINE
8
BLACK
6
CONTINUOUS
10
4.05512
20
-6.23742
11
4.05137
21
-6.22992
0
LINE
8
BLACK
6
CONTINUOUS
10
4.05137
20
-6.22992
11
4.04387
21
-6.21867
0
LINE
8
BLACK
6
CONTINUOUS
10
4.04387
20
-6.21867
11
4.04012
21
-6.21492
  0
ENDSEC
  0
EOF
