%TF.GenerationSoftware,KiCad,Pcbnew,(7.0.0)*%
%TF.CreationDate,2023-06-26T18:42:24-07:00*%
%TF.ProjectId,AS-NES-Mapper474,41532d4e-4553-42d4-9d61-707065723437,rev?*%
%TF.SameCoordinates,Original*%
%TF.FileFunction,Profile,NP*%
%FSLAX46Y46*%
G04 Gerber Fmt 4.6, Leading zero omitted, Abs format (unit mm)*
G04 Created by KiCad (PCBNEW (7.0.0)) date 2023-06-26 18:42:24*
%MOMM*%
%LPD*%
G01*
G04 APERTURE LIST*
%TA.AperFunction,Profile*%
%ADD10C,0.100000*%
%TD*%
G04 APERTURE END LIST*
D10*
X152536800Y-47644900D02*
X152536000Y-103205100D01*
X57538700Y-106645900D02*
X57538800Y-110147100D01*
X147582100Y-103205100D02*
X152536000Y-103205100D01*
X151083600Y-112702400D02*
X152538600Y-112699700D01*
X147583600Y-106703400D02*
X147582100Y-103205100D01*
X52537600Y-47644700D02*
X152536800Y-47644900D01*
X145561300Y-49419000D02*
G75*
G03*
X145561300Y-49419000I-1601600J0D01*
G01*
X152536300Y-133173900D02*
X152538800Y-119649400D01*
X152538800Y-119649400D02*
X152538600Y-112699700D01*
X52538000Y-116143300D02*
X54038800Y-116146000D01*
X54039600Y-110146200D02*
X57538800Y-110147100D01*
X109654400Y-70948300D02*
G75*
G03*
X109654400Y-70948300I-1905000J0D01*
G01*
X54038800Y-116146000D02*
X54039600Y-110146200D01*
X106113700Y-80140200D02*
G75*
G03*
X106113700Y-80140200I-3577100J0D01*
G01*
X147583600Y-106703400D02*
X151082800Y-106702500D01*
X52537600Y-47644700D02*
X52539100Y-106648600D01*
X151082800Y-106702500D02*
X151083600Y-112702400D01*
X52539100Y-106648600D02*
X57538700Y-106645900D01*
X52535800Y-133175300D02*
X52538000Y-116143300D01*
%TO.C,J1*%
X52535800Y-133175300D02*
X55786800Y-133171700D01*
X55774700Y-146918000D02*
X55786800Y-133171700D01*
X55774700Y-146918000D02*
X56536700Y-147680000D01*
X56536700Y-147680000D02*
X148535100Y-147674000D01*
X148535100Y-147674000D02*
X149286000Y-146924000D01*
X149284600Y-133173900D02*
X149286000Y-146924000D01*
X149284600Y-133173900D02*
X152536300Y-133173900D01*
%TD*%
M02*
