%TF.GenerationSoftware,KiCad,Pcbnew,(7.0.0)*%
%TF.CreationDate,2023-06-26T18:42:24-07:00*%
%TF.ProjectId,AS-NES-Mapper474,41532d4e-4553-42d4-9d61-707065723437,rev?*%
%TF.SameCoordinates,Original*%
%TF.FileFunction,Legend,Bot*%
%TF.FilePolarity,Positive*%
%FSLAX46Y46*%
G04 Gerber Fmt 4.6, Leading zero omitted, Abs format (unit mm)*
G04 Created by KiCad (PCBNEW (7.0.0)) date 2023-06-26 18:42:24*
%MOMM*%
%LPD*%
G01*
G04 APERTURE LIST*
%ADD10C,0.150000*%
G04 APERTURE END LIST*
D10*
%TO.C,J1*%
X101520714Y-130913180D02*
X101996904Y-130913180D01*
X101996904Y-130913180D02*
X102044523Y-131389371D01*
X102044523Y-131389371D02*
X101996904Y-131341752D01*
X101996904Y-131341752D02*
X101901666Y-131294133D01*
X101901666Y-131294133D02*
X101663571Y-131294133D01*
X101663571Y-131294133D02*
X101568333Y-131341752D01*
X101568333Y-131341752D02*
X101520714Y-131389371D01*
X101520714Y-131389371D02*
X101473095Y-131484609D01*
X101473095Y-131484609D02*
X101473095Y-131722704D01*
X101473095Y-131722704D02*
X101520714Y-131817942D01*
X101520714Y-131817942D02*
X101568333Y-131865561D01*
X101568333Y-131865561D02*
X101663571Y-131913180D01*
X101663571Y-131913180D02*
X101901666Y-131913180D01*
X101901666Y-131913180D02*
X101996904Y-131865561D01*
X101996904Y-131865561D02*
X102044523Y-131817942D01*
X100568333Y-130913180D02*
X101044523Y-130913180D01*
X101044523Y-130913180D02*
X101092142Y-131389371D01*
X101092142Y-131389371D02*
X101044523Y-131341752D01*
X101044523Y-131341752D02*
X100949285Y-131294133D01*
X100949285Y-131294133D02*
X100711190Y-131294133D01*
X100711190Y-131294133D02*
X100615952Y-131341752D01*
X100615952Y-131341752D02*
X100568333Y-131389371D01*
X100568333Y-131389371D02*
X100520714Y-131484609D01*
X100520714Y-131484609D02*
X100520714Y-131722704D01*
X100520714Y-131722704D02*
X100568333Y-131817942D01*
X100568333Y-131817942D02*
X100615952Y-131865561D01*
X100615952Y-131865561D02*
X100711190Y-131913180D01*
X100711190Y-131913180D02*
X100949285Y-131913180D01*
X100949285Y-131913180D02*
X101044523Y-131865561D01*
X101044523Y-131865561D02*
X101092142Y-131817942D01*
X113915914Y-130125780D02*
X114392104Y-130125780D01*
X114392104Y-130125780D02*
X114439723Y-130601971D01*
X114439723Y-130601971D02*
X114392104Y-130554352D01*
X114392104Y-130554352D02*
X114296866Y-130506733D01*
X114296866Y-130506733D02*
X114058771Y-130506733D01*
X114058771Y-130506733D02*
X113963533Y-130554352D01*
X113963533Y-130554352D02*
X113915914Y-130601971D01*
X113915914Y-130601971D02*
X113868295Y-130697209D01*
X113868295Y-130697209D02*
X113868295Y-130935304D01*
X113868295Y-130935304D02*
X113915914Y-131030542D01*
X113915914Y-131030542D02*
X113963533Y-131078161D01*
X113963533Y-131078161D02*
X114058771Y-131125780D01*
X114058771Y-131125780D02*
X114296866Y-131125780D01*
X114296866Y-131125780D02*
X114392104Y-131078161D01*
X114392104Y-131078161D02*
X114439723Y-131030542D01*
X113249247Y-130125780D02*
X113154009Y-130125780D01*
X113154009Y-130125780D02*
X113058771Y-130173400D01*
X113058771Y-130173400D02*
X113011152Y-130221019D01*
X113011152Y-130221019D02*
X112963533Y-130316257D01*
X112963533Y-130316257D02*
X112915914Y-130506733D01*
X112915914Y-130506733D02*
X112915914Y-130744828D01*
X112915914Y-130744828D02*
X112963533Y-130935304D01*
X112963533Y-130935304D02*
X113011152Y-131030542D01*
X113011152Y-131030542D02*
X113058771Y-131078161D01*
X113058771Y-131078161D02*
X113154009Y-131125780D01*
X113154009Y-131125780D02*
X113249247Y-131125780D01*
X113249247Y-131125780D02*
X113344485Y-131078161D01*
X113344485Y-131078161D02*
X113392104Y-131030542D01*
X113392104Y-131030542D02*
X113439723Y-130935304D01*
X113439723Y-130935304D02*
X113487342Y-130744828D01*
X113487342Y-130744828D02*
X113487342Y-130506733D01*
X113487342Y-130506733D02*
X113439723Y-130316257D01*
X113439723Y-130316257D02*
X113392104Y-130221019D01*
X113392104Y-130221019D02*
X113344485Y-130173400D01*
X113344485Y-130173400D02*
X113249247Y-130125780D01*
X126536533Y-130586114D02*
X126536533Y-131252780D01*
X126774628Y-130205161D02*
X127012723Y-130919447D01*
X127012723Y-130919447D02*
X126393676Y-130919447D01*
X125536533Y-130252780D02*
X126012723Y-130252780D01*
X126012723Y-130252780D02*
X126060342Y-130728971D01*
X126060342Y-130728971D02*
X126012723Y-130681352D01*
X126012723Y-130681352D02*
X125917485Y-130633733D01*
X125917485Y-130633733D02*
X125679390Y-130633733D01*
X125679390Y-130633733D02*
X125584152Y-130681352D01*
X125584152Y-130681352D02*
X125536533Y-130728971D01*
X125536533Y-130728971D02*
X125488914Y-130824209D01*
X125488914Y-130824209D02*
X125488914Y-131062304D01*
X125488914Y-131062304D02*
X125536533Y-131157542D01*
X125536533Y-131157542D02*
X125584152Y-131205161D01*
X125584152Y-131205161D02*
X125679390Y-131252780D01*
X125679390Y-131252780D02*
X125917485Y-131252780D01*
X125917485Y-131252780D02*
X126012723Y-131205161D01*
X126012723Y-131205161D02*
X126060342Y-131157542D01*
X88969933Y-129947980D02*
X89160409Y-129947980D01*
X89160409Y-129947980D02*
X89255647Y-129995600D01*
X89255647Y-129995600D02*
X89303266Y-130043219D01*
X89303266Y-130043219D02*
X89398504Y-130186076D01*
X89398504Y-130186076D02*
X89446123Y-130376552D01*
X89446123Y-130376552D02*
X89446123Y-130757504D01*
X89446123Y-130757504D02*
X89398504Y-130852742D01*
X89398504Y-130852742D02*
X89350885Y-130900361D01*
X89350885Y-130900361D02*
X89255647Y-130947980D01*
X89255647Y-130947980D02*
X89065171Y-130947980D01*
X89065171Y-130947980D02*
X88969933Y-130900361D01*
X88969933Y-130900361D02*
X88922314Y-130852742D01*
X88922314Y-130852742D02*
X88874695Y-130757504D01*
X88874695Y-130757504D02*
X88874695Y-130519409D01*
X88874695Y-130519409D02*
X88922314Y-130424171D01*
X88922314Y-130424171D02*
X88969933Y-130376552D01*
X88969933Y-130376552D02*
X89065171Y-130328933D01*
X89065171Y-130328933D02*
X89255647Y-130328933D01*
X89255647Y-130328933D02*
X89350885Y-130376552D01*
X89350885Y-130376552D02*
X89398504Y-130424171D01*
X89398504Y-130424171D02*
X89446123Y-130519409D01*
X88255647Y-129947980D02*
X88160409Y-129947980D01*
X88160409Y-129947980D02*
X88065171Y-129995600D01*
X88065171Y-129995600D02*
X88017552Y-130043219D01*
X88017552Y-130043219D02*
X87969933Y-130138457D01*
X87969933Y-130138457D02*
X87922314Y-130328933D01*
X87922314Y-130328933D02*
X87922314Y-130567028D01*
X87922314Y-130567028D02*
X87969933Y-130757504D01*
X87969933Y-130757504D02*
X88017552Y-130852742D01*
X88017552Y-130852742D02*
X88065171Y-130900361D01*
X88065171Y-130900361D02*
X88160409Y-130947980D01*
X88160409Y-130947980D02*
X88255647Y-130947980D01*
X88255647Y-130947980D02*
X88350885Y-130900361D01*
X88350885Y-130900361D02*
X88398504Y-130852742D01*
X88398504Y-130852742D02*
X88446123Y-130757504D01*
X88446123Y-130757504D02*
X88493742Y-130567028D01*
X88493742Y-130567028D02*
X88493742Y-130328933D01*
X88493742Y-130328933D02*
X88446123Y-130138457D01*
X88446123Y-130138457D02*
X88398504Y-130043219D01*
X88398504Y-130043219D02*
X88350885Y-129995600D01*
X88350885Y-129995600D02*
X88255647Y-129947980D01*
X76625533Y-130074980D02*
X76816009Y-130074980D01*
X76816009Y-130074980D02*
X76911247Y-130122600D01*
X76911247Y-130122600D02*
X76958866Y-130170219D01*
X76958866Y-130170219D02*
X77054104Y-130313076D01*
X77054104Y-130313076D02*
X77101723Y-130503552D01*
X77101723Y-130503552D02*
X77101723Y-130884504D01*
X77101723Y-130884504D02*
X77054104Y-130979742D01*
X77054104Y-130979742D02*
X77006485Y-131027361D01*
X77006485Y-131027361D02*
X76911247Y-131074980D01*
X76911247Y-131074980D02*
X76720771Y-131074980D01*
X76720771Y-131074980D02*
X76625533Y-131027361D01*
X76625533Y-131027361D02*
X76577914Y-130979742D01*
X76577914Y-130979742D02*
X76530295Y-130884504D01*
X76530295Y-130884504D02*
X76530295Y-130646409D01*
X76530295Y-130646409D02*
X76577914Y-130551171D01*
X76577914Y-130551171D02*
X76625533Y-130503552D01*
X76625533Y-130503552D02*
X76720771Y-130455933D01*
X76720771Y-130455933D02*
X76911247Y-130455933D01*
X76911247Y-130455933D02*
X77006485Y-130503552D01*
X77006485Y-130503552D02*
X77054104Y-130551171D01*
X77054104Y-130551171D02*
X77101723Y-130646409D01*
X75625533Y-130074980D02*
X76101723Y-130074980D01*
X76101723Y-130074980D02*
X76149342Y-130551171D01*
X76149342Y-130551171D02*
X76101723Y-130503552D01*
X76101723Y-130503552D02*
X76006485Y-130455933D01*
X76006485Y-130455933D02*
X75768390Y-130455933D01*
X75768390Y-130455933D02*
X75673152Y-130503552D01*
X75673152Y-130503552D02*
X75625533Y-130551171D01*
X75625533Y-130551171D02*
X75577914Y-130646409D01*
X75577914Y-130646409D02*
X75577914Y-130884504D01*
X75577914Y-130884504D02*
X75625533Y-130979742D01*
X75625533Y-130979742D02*
X75673152Y-131027361D01*
X75673152Y-131027361D02*
X75768390Y-131074980D01*
X75768390Y-131074980D02*
X76006485Y-131074980D01*
X76006485Y-131074980D02*
X76101723Y-131027361D01*
X76101723Y-131027361D02*
X76149342Y-130979742D01*
X138880933Y-129976514D02*
X138880933Y-130643180D01*
X139119028Y-129595561D02*
X139357123Y-130309847D01*
X139357123Y-130309847D02*
X138738076Y-130309847D01*
X138166647Y-129643180D02*
X138071409Y-129643180D01*
X138071409Y-129643180D02*
X137976171Y-129690800D01*
X137976171Y-129690800D02*
X137928552Y-129738419D01*
X137928552Y-129738419D02*
X137880933Y-129833657D01*
X137880933Y-129833657D02*
X137833314Y-130024133D01*
X137833314Y-130024133D02*
X137833314Y-130262228D01*
X137833314Y-130262228D02*
X137880933Y-130452704D01*
X137880933Y-130452704D02*
X137928552Y-130547942D01*
X137928552Y-130547942D02*
X137976171Y-130595561D01*
X137976171Y-130595561D02*
X138071409Y-130643180D01*
X138071409Y-130643180D02*
X138166647Y-130643180D01*
X138166647Y-130643180D02*
X138261885Y-130595561D01*
X138261885Y-130595561D02*
X138309504Y-130547942D01*
X138309504Y-130547942D02*
X138357123Y-130452704D01*
X138357123Y-130452704D02*
X138404742Y-130262228D01*
X138404742Y-130262228D02*
X138404742Y-130024133D01*
X138404742Y-130024133D02*
X138357123Y-129833657D01*
X138357123Y-129833657D02*
X138309504Y-129738419D01*
X138309504Y-129738419D02*
X138261885Y-129690800D01*
X138261885Y-129690800D02*
X138166647Y-129643180D01*
X64449342Y-130887780D02*
X63782676Y-130887780D01*
X63782676Y-130887780D02*
X64211247Y-131887780D01*
X63211247Y-130887780D02*
X63116009Y-130887780D01*
X63116009Y-130887780D02*
X63020771Y-130935400D01*
X63020771Y-130935400D02*
X62973152Y-130983019D01*
X62973152Y-130983019D02*
X62925533Y-131078257D01*
X62925533Y-131078257D02*
X62877914Y-131268733D01*
X62877914Y-131268733D02*
X62877914Y-131506828D01*
X62877914Y-131506828D02*
X62925533Y-131697304D01*
X62925533Y-131697304D02*
X62973152Y-131792542D01*
X62973152Y-131792542D02*
X63020771Y-131840161D01*
X63020771Y-131840161D02*
X63116009Y-131887780D01*
X63116009Y-131887780D02*
X63211247Y-131887780D01*
X63211247Y-131887780D02*
X63306485Y-131840161D01*
X63306485Y-131840161D02*
X63354104Y-131792542D01*
X63354104Y-131792542D02*
X63401723Y-131697304D01*
X63401723Y-131697304D02*
X63449342Y-131506828D01*
X63449342Y-131506828D02*
X63449342Y-131268733D01*
X63449342Y-131268733D02*
X63401723Y-131078257D01*
X63401723Y-131078257D02*
X63354104Y-130983019D01*
X63354104Y-130983019D02*
X63306485Y-130935400D01*
X63306485Y-130935400D02*
X63211247Y-130887780D01*
%TD*%
M02*
